<svg t="1574516549668" class="icon" viewBox="0 0 1026 1024" version="1.1" xmlns="http://www.w3.org/2000/svg" p-id="1971" width="1em" height="1em" fill="currentColor"><path d="M897.18784 19.80928H281.94816c-16.85504 0.32768-25.31328 13.91104-25.64096 30.76096 0.32768 16.85504 8.79104 40.67328 25.64096 41.00096h615.23968c16.84992-0.32768 25.31328-24.15104 25.64096-41.00096-0.32256-16.85504-8.79104-30.43328-25.64096-30.76096z" p-id="1972"></path><path d="M324.79744 515.69152V50.57024c-0.32768-16.85504-19.03104-30.43328-35.88096-30.76096-16.85504 0.32768-35.55328 13.91104-35.88096 30.76096v465.12128c0.32768 16.85504 19.03104 30.43328 35.88096 30.76608 16.84992-0.3328 35.55328-13.91104 35.88096-30.76608z m603.15136 0V50.57024c-0.32256-16.85504-19.03104-30.43328-35.88096-30.76096-16.84992 0.32768-35.55328 13.91104-35.88096 30.76096v465.12128c0.32256 16.85504 19.03104 30.43328 35.88096 30.76608 16.84992-0.3328 35.5584-13.91104 35.88096-30.76608z m76.29312 457.73824v-457.73824c0-16.98816-13.7728-30.76096-30.76096-30.76096s-41.00096 13.7728-41.00096 30.76096v457.73824c0 16.98304 24.0128 30.76608 41.00096 30.76608s30.76096-13.78304 30.76096-30.76608z m-912.61952 0v-457.73824c-0.32256-16.84992-24.15104-30.43328-41.00096-30.76096a31.99488 31.99488 0 0 0-30.76096 30.76096v457.73824a31.3856 31.3856 0 0 0 30.76096 30.76608c16.84992-0.3328 40.67328-13.91616 41.00096-30.76608z m76.288-457.73824V204.38016c0-16.98816-24.0128-30.76096-41.00096-30.76096a30.76096 30.76096 0 0 0-30.76096 30.76096v311.31136a30.76608 30.76608 0 0 0 30.76096 30.76608c16.98816-0.00512 41.00096-13.77792 41.00096-30.76608z" p-id="1973"></path><path d="M973.48096 484.93056H53.07904a31.98976 31.98976 0 0 0-30.76096 30.76096c0.32768 16.85504 13.91104 40.67328 30.76096 41.00608h922.85952c16.85504-0.32768 25.31328-24.15104 25.64608-41.00608-0.32768-16.84992-8.79104-30.43328-25.64608-30.76096h-2.4576z m0 447.49824H53.07904c-16.98816 0-30.76096 24.0128-30.76096 41.00096s13.7728 30.76608 30.76096 30.76608h922.85952c16.98304 0 25.64608-13.77792 25.64608-30.76608s-8.65792-41.00096-25.64608-41.00096h-2.4576z m-194.41664-218.2144H241.34144c-16.84992 0.32768-30.43328 19.03104-30.76096 35.88608 0.32256 16.84992 13.91104 35.55328 30.76096 35.88096h537.72288c16.84992-0.32256 30.43328-19.03104 30.76096-35.88096-0.63488-16.72704-14.04416-35.2512-30.76096-35.88608z" p-id="1974"></path><path d="M277.22752 819.61984v-148.8896c0-16.98304-18.8928-30.76096-35.88096-30.76096s-35.88096 13.7728-35.88096 30.76096v148.8896c0 16.98304 18.8928 30.76096 35.88096 30.76096s35.88096-13.77792 35.88096-30.76096z m537.71776 0v-148.8896c-0.32256-16.84992-19.03104-30.43328-35.88096-30.76096-16.85504 0.32256-35.55328 13.91104-35.88608 30.76096v148.8896c0.32768 16.84992 19.03104 30.43328 35.88608 30.76096 16.7168-0.62976 35.24608-14.03904 35.88096-30.76096zM741.53472 173.0048h-148.2752c-16.84992 0.32768-30.43328 19.03104-30.76096 35.88096 0.32256 16.84992 13.91104 35.55328 30.76096 35.88096h148.2752c16.84992-0.32768 30.43328-19.03104 30.76096-35.88096-0.32768-16.85504-13.91104-35.55328-30.76096-35.88096z m-467.584 0h-148.2752c-16.84992 0.32768-25.31328 13.91104-25.64096 30.76096 0.32256 16.84992 8.79104 40.67328 25.64096 41.00096h148.2752c16.7168-0.63488 30.1312-24.27904 30.76096-41.00096a31.37024 31.37024 0 0 0-30.76096-30.76096z m183.34208 0h-45.52704c-16.85504 0.32768-30.43328 19.03104-30.76096 35.88096 0.32768 16.84992 13.91104 35.55328 30.76096 35.88096h45.52704c16.72192-0.63488 30.1312-19.15904 30.76096-35.88096-0.32768-16.85504-13.91104-35.55328-30.76096-35.88096z m284.24192 149.30432h-148.2752c-16.98304 0-30.76096 18.8928-30.76096 35.88096s13.7728 35.88096 30.76096 35.88096h148.2752c16.98304 0 30.76096-18.8928 30.76096-35.88096s-13.77792-35.88096-30.76096-35.88096z m-284.24192 0h-45.52704c-16.98816 0-30.76096 18.8928-30.76096 35.88096s13.7728 35.88096 30.76096 35.88096h45.52704c16.98816 0 30.76096-18.8928 30.76096-35.88096s-13.7728-35.88096-30.76096-35.88096z" p-id="1975"></path></svg>