<svg t="1576149823841" class="icon" viewBox="0 0 1024 1024" version="1.1" xmlns="http://www.w3.org/2000/svg" p-id="1151" width="1em" height="1em"><path d="M640 341.333333H384c-25.6 0-42.666667 17.066667-42.666667 42.666667v256c0 25.6 17.066667 42.666667 42.666667 42.666667h256c25.6 0 42.666667-17.066667 42.666667-42.666667V384c0-25.6-17.066667-42.666667-42.666667-42.666667z m-42.666667 256H426.666667V426.666667h170.666666v170.666666z" fill="currentColor" p-id="1152"></path><path d="M981.333333 554.666667h-85.333333V426.666667h85.333333c25.6 0 42.666667-17.066667 42.666667-42.666667s-17.066667-42.666667-42.666667-42.666667h-85.333333v-85.333333c0-72.533333-55.466667-128-128-128h-85.333333V42.666667c0-25.6-17.066667-42.666667-42.666667-42.666667s-42.666667 17.066667-42.666667 42.666667v85.333333H426.666667V42.666667c0-25.6-17.066667-42.666667-42.666667-42.666667s-42.666667 17.066667-42.666667 42.666667v85.333333h-85.333333c-72.533333 0-128 55.466667-128 128v85.333333H42.666667c-25.6 0-42.666667 17.066667-42.666667 42.666667s17.066667 42.666667 42.666667 42.666667h85.333333v128H42.666667c-25.6 0-42.666667 17.066667-42.666667 42.666666s17.066667 42.666667 42.666667 42.666667h85.333333v128c0 72.533333 55.466667 128 128 128h85.333333v85.333333c0 25.6 17.066667 42.666667 42.666667 42.666667s42.666667-17.066667 42.666667-42.666667v-85.333333h170.666666v85.333333c0 25.6 17.066667 42.666667 42.666667 42.666667s42.666667-17.066667 42.666667-42.666667v-85.333333h85.333333c72.533333 0 128-55.466667 128-128V640h85.333333c25.6 0 42.666667-17.066667 42.666667-42.666667s-17.066667-42.666667-42.666667-42.666666zM810.666667 768c0 25.6-17.066667 42.666667-42.666667 42.666667H256c-25.6 0-42.666667-17.066667-42.666667-42.666667V256c0-25.6 17.066667-42.666667 42.666667-42.666667h512c25.6 0 42.666667 17.066667 42.666667 42.666667v512z" fill="currentColor" p-id="1153"></path></svg>