<svg t="1577351912247" class="icon" viewBox="0 0 1024 1024" version="1.1" xmlns="http://www.w3.org/2000/svg" p-id="4927" width="1em" height="1em" fill="currentColor"><path d="M511.397647 1023.578353c-6.927059 0-6.927059 0 0 0-256.301176-41.562353-450.319059-284.069647-450.319059-540.370824V143.721412c0-20.781176 13.854118-34.635294 27.708236-34.635294C275.877647 88.304941 407.431529 53.669647 490.616471 5.180235c13.854118-6.927059 27.708235-6.927059 34.635294 0 83.124706 48.489412 214.738824 83.124706 401.769411 103.905883 20.841412 0 27.708235 13.854118 27.708236 34.635294v339.486117c6.987294 256.301176-193.957647 498.748235-443.331765 540.310589zM130.349176 171.489882v311.717647c0 214.738824 173.236706 429.477647 381.048471 471.04 207.811765-41.562353 381.048471-256.301176 381.048471-471.04V171.489882C719.209412 150.588235 594.522353 116.073412 511.397647 67.463529c-90.051765 48.489412-214.738824 83.124706-381.048471 103.966118z" p-id="4928"></path><path d="M511.397647 552.478118a171.489882 171.489882 0 0 1-173.176471-173.176471A171.489882 171.489882 0 0 1 511.397647 206.125176a171.489882 171.489882 0 0 1 173.176471 173.176471c0 96.978824-83.124706 173.176471-173.176471 173.176471z m0-277.082353c-55.416471 0-103.905882 48.489412-103.905882 103.905882S455.981176 483.207529 511.397647 483.207529s103.905882-48.489412 103.905882-103.905882S566.814118 275.395765 511.397647 275.395765z" p-id="4929"></path><path d="M511.397647 829.620706c-20.781176 0-34.635294-13.854118-34.635294-34.69553v-277.082352c0-20.781176 13.854118-34.635294 34.635294-34.635295s34.635294 13.854118 34.635294 34.635295v277.082352c0 13.854118-20.781176 34.695529-34.635294 34.69553z" p-id="4930"></path></svg>