<svg t="1577172934842" class="icon" viewBox="0 0 1024 1024" version="1.1" xmlns="http://www.w3.org/2000/svg" p-id="14309" width="1em" height="1em" fill="currentColor"><path d="M757.9008 294.6304l-190.72 190.72-131.072-131.072L179.456 610.944l26.4704 26.4704 230.1824-230.1824 131.072 131.072 217.1904-217.1904 31.1552 31.1168 32.512-121.2672-121.3056 32.512 31.168 31.1552z m0 0" p-id="14310"></path><path d="M960.3968 81.1648H548.4544V43.7248c0-20.6976-16.7552-37.4528-37.4528-37.4528s-37.4528 16.7552-37.4528 37.4528v37.4528H61.6192c-20.6976 0-37.4528 16.768-37.4528 37.44v636.6336c0 20.6976 16.7552 37.44 37.4528 37.44h171.7376L72.5888 953.472c-14.6304 14.6304-14.6304 38.3232 0 52.9536 7.3088 7.3088 16.896 10.9696 26.4832 10.9696 9.5744 0 19.1616-3.6608 26.4704-10.9696L339.264 792.704H682.752l213.7216 213.7216c7.3088 7.3088 16.896 10.9696 26.4704 10.9696s19.1616-3.6608 26.4832-10.9696c14.6304-14.6304 14.6304-38.3232 0-52.9536l-160.768-160.768h171.7376c20.6976 0 37.4528-16.7424 37.4528-37.44V118.6176c0-20.6848-16.7552-37.4528-37.4528-37.4528zM99.072 717.7984V156.0576h823.8848v561.7408H99.072z m0 0" p-id="14311"></path></svg>