<svg t="1569145789971" class="icon" viewBox="0 0 1024 1024" version="1.1" xmlns="http://www.w3.org/2000/svg" p-id="9315" width="1em" height="1em" fill="currentColor"><path d="M1024.512 705.024c-1.024-8.192-7.168-15.36-15.36-15.36h-9.728c-10.752 0-18.944-6.144-23.552-14.336-1.024-2.048-1.536-4.608-2.048-6.656-2.048-5.12-3.584-10.752-6.656-15.36-1.536-1.536-2.048-3.584-3.072-6.144-1.024-3.072-1.536-6.144-1.536-9.216 0-7.168 3.072-13.312 7.168-18.944l5.12-5.12c6.144-6.144 6.656-16.384 1.024-23.552-3.584-4.608-8.192-9.728-12.8-14.336s-9.728-9.216-14.336-12.8c-6.144-5.12-15.36-5.12-20.992-1.024l-3.584 3.584-3.584 3.584c-7.168 7.168-18.944 9.728-28.672 6.144-1.536-1.024-2.048-1.024-3.584-1.536-6.144-3.072-11.776-5.12-18.944-7.168-1.536 0-2.048-1.024-3.072-1.024-3.072-1.536-6.144-3.072-8.192-5.12-4.608-4.608-6.656-9.728-7.168-15.36v-11.264c0-8.192-6.144-15.36-14.336-17.408h-3.072c-6.144-1.024-11.264-1.024-17.408-1.024s-11.264 0-17.408 1.024h-3.072c-8.192 1.536-14.336 8.192-14.336 17.408v7.168c0 11.264-6.656 20.992-17.408 24.576-1.024 0-1.536 1.024-2.048 1.024-6.656 2.048-13.312 5.12-19.968 8.192-1.024 0-1.024 1.024-1.536 1.024-3.584 1.536-6.656 2.048-10.752 2.048-6.656 0-13.312-3.072-17.92-7.168l-5.12-5.12c-6.144-6.144-15.36-6.656-22.528-2.048l-2.048 2.048c-4.608 3.584-9.216 7.168-12.8 11.776-3.584 3.584-8.192 8.192-11.776 12.8l-2.048 2.048c-4.608 6.656-3.584 15.36 2.048 22.528l5.12 5.12c7.168 8.192 9.728 19.968 5.12 29.184 0 1.024-1.024 1.536-1.024 1.536-3.072 6.656-6.144 13.312-8.192 19.968 0 1.024-1.024 1.536-1.024 2.048-1.536 3.072-3.072 6.656-6.144 9.216-5.12 5.12-11.776 7.168-18.944 7.168h-7.168c-8.192 0-15.36 6.144-17.408 14.336v3.072c-1.024 6.144-1.024 11.264-1.024 17.408 0 6.144 0 11.264 1.024 17.408v3.072c1.536 8.192 8.192 14.336 17.408 14.336h7.168c11.264 0 19.968 6.656 24.064 16.384 0 1.024 1.024 1.536 1.024 2.048 2.048 6.656 5.12 13.312 8.192 19.968 0 1.024 1.024 1.024 1.024 1.536 1.536 3.584 2.048 6.656 2.048 10.752 0 7.168-3.072 13.312-7.168 18.944l-5.12 5.12c-6.144 6.144-6.656 15.36-2.048 21.504 1.024 1.024 1.536 1.536 2.048 3.072 3.584 4.608 7.168 8.192 11.776 12.8 3.584 3.584 8.192 8.192 12.8 11.776 1.024 1.024 1.536 1.536 3.072 2.048 6.144 3.584 14.336 3.584 19.968-1.024l3.584-3.584 3.584-3.584c8.192-7.168 19.968-9.728 29.184-5.12 1.024 0 1.024 1.024 1.536 1.024 6.656 3.072 13.312 6.144 19.968 8.192 1.024 0 1.536 1.024 1.536 1.024 3.584 1.536 6.656 3.072 9.216 6.144 5.12 5.12 7.168 11.776 7.168 18.944v7.168c0 9.216 6.656 16.384 15.36 17.408 6.144 1.024 12.8 1.024 18.944 1.024s12.8 0 18.944-1.024c9.216-1.024 15.36-8.192 15.36-17.408v-7.168c0-10.752 6.144-19.968 15.36-24.064 1.536-1.024 3.584-1.536 6.144-2.048 6.144-2.048 11.264-4.608 16.384-6.656 1.536-1.024 3.072-1.536 5.12-2.048 3.072-1.024 6.144-1.536 9.216-1.536 6.656 0 12.8 2.048 17.408 6.656l2.048 2.048 4.608 4.608c6.144 6.144 15.36 6.656 22.528 1.536l1.536-1.536c4.608-3.584 9.216-7.168 12.8-11.776 4.608-4.608 8.192-8.192 11.776-13.312 1.024-1.024 1.024-1.536 1.536-1.536 4.608-6.656 4.608-15.36-1.536-21.504l-1.536-1.536-4.608-4.608c-7.168-7.168-9.728-19.968-5.12-28.672 1.024-1.024 1.024-1.536 1.536-2.048 3.072-6.144 6.144-12.8 8.192-19.968 0-1.024 1.024-1.536 1.024-2.048 1.536-3.072 3.072-6.144 6.144-9.216 5.12-5.12 11.776-7.168 18.944-7.168h7.168c9.216 0 16.384-7.168 17.408-16.384 1.024-6.144 1.024-11.776 1.024-17.92 3.072-8.192 2.048-15.36 1.024-20.992z m-100.352 19.456c0 11.776-2.048 24.064-6.144 34.304-1.536 4.608-3.072 8.192-5.12 11.776-5.12 10.752-11.776 19.968-19.968 28.672-8.192 8.192-17.92 15.36-28.672 19.968-3.584 2.048-8.192 3.584-11.776 5.12-11.264 3.584-23.552 6.144-34.304 6.144-11.776 0-23.552-2.048-34.304-6.144-4.608-1.536-8.192-3.072-12.8-5.12-10.752-5.12-19.968-11.776-28.672-19.968-8.192-8.192-15.36-17.92-19.968-28.672-2.048-3.584-3.584-8.192-5.12-12.8-3.584-10.752-6.144-22.528-6.144-34.304s2.048-24.064 6.144-35.328c1.536-4.608 3.072-8.192 5.12-12.8 5.12-10.752 11.776-19.968 19.968-28.672 8.192-8.192 17.92-15.36 28.672-19.968 3.584-2.048 8.192-3.584 12.8-5.12 11.264-3.584 22.528-6.144 34.304-6.144s23.552 2.048 34.304 6.144c4.608 1.536 8.192 3.072 11.776 5.12 10.752 5.12 19.968 11.776 28.672 19.968 8.192 8.192 15.36 17.92 19.968 28.672 2.048 3.584 3.584 8.192 5.12 11.776 3.584 13.312 6.144 24.576 6.144 37.376zM33.792 356.864h178.176c16.896 0 30.208-14.848 30.208-33.792s-13.312-33.792-30.208-33.792H33.792c-16.896 0-30.208 14.848-30.208 33.792 0 18.432 13.312 33.792 30.208 33.792zM243.2 691.2c0-18.944-13.312-33.792-30.208-33.792h-179.2c-16.896 0-30.208 14.848-30.208 33.792s13.312 33.792 30.208 33.792h178.176c16.896 0 31.232-15.36 31.232-33.792zM366.08 361.984h364.032c16.896 0 30.208-14.848 30.208-33.792s-13.312-33.792-30.208-33.792H366.08c-16.896 0-30.208 14.848-30.208 33.792-0.512 18.944 13.312 33.792 30.208 33.792zM366.08 541.184h239.616c16.896 0 30.208-14.848 30.208-33.792s-13.312-33.792-30.208-33.792H366.08c-16.896 0-30.208 14.848-30.208 33.792-0.512 17.92 13.312 33.792 30.208 33.792zM366.08 719.872h154.624c16.896 0 30.208-14.848 30.208-33.792 0-18.944-13.312-33.792-30.208-33.792H366.08c-16.896 0-30.208 14.848-30.208 33.792-0.512 18.432 13.312 33.792 30.208 33.792zM96.256 422.912h68.608v169.984H96.256zM244.224 900.608h353.792v67.584H238.08c-78.336 0-141.824-63.488-141.824-141.824v-41.984h68.608v36.352c0 44.032 35.84 79.872 79.36 79.872z"  p-id="9316"></path><path d="M1020.416 197.632v187.392h-68.608V203.264c0-44.032-35.328-79.36-79.36-79.36H244.224c-44.032 0-79.36 35.328-79.36 79.36v15.36H96.256v-20.992c0-78.336 63.488-141.824 141.824-141.824h640.512c78.336 0.512 141.824 63.488 141.824 141.824z"  p-id="9317"></path><path d="M987.136 423.424h-3.072c-17.92 0-32.768-14.848-32.768-32.768v-22.528c0-17.92 14.848-32.768 32.768-32.768h3.072c17.92 0 32.768 14.848 32.768 32.768v22.528c0.512 17.92-14.336 32.768-32.768 32.768zM131.584 252.928h-2.048c-18.432 0-33.28-14.848-33.28-33.28v-21.504c0-18.432 14.848-33.28 33.28-33.28h2.048c18.432 0 33.28 14.848 33.28 33.28v21.504c0 18.432-14.848 33.28-33.28 33.28zM635.904 933.888v1.024c0 18.432-14.848 33.28-33.28 33.28h-20.48c-18.432 0-33.28-14.848-33.28-33.28v-1.024c0-18.432 14.848-33.28 33.28-33.28h20.48c18.432 0 33.28 14.848 33.28 33.28zM132.096 482.816h-3.072c-17.92 0-32.768-14.848-32.768-32.768v-22.528c0-17.92 14.848-32.768 32.768-32.768h3.072c17.92 0 32.768 14.848 32.768 32.768v22.528c0 17.92-14.336 32.768-32.768 32.768zM132.096 624.128h-3.072c-17.92 0-32.768-14.848-32.768-32.768v-22.528c0-17.92 14.848-32.768 32.768-32.768h3.072c17.92 0 32.768 14.848 32.768 32.768v22.528c0 17.92-14.336 32.768-32.768 32.768zM132.096 839.68h-3.072c-17.92 0-32.768-14.848-32.768-32.768v-22.528c0-17.92 14.848-32.768 32.768-32.768h3.072c17.92 0 32.768 14.848 32.768 32.768v22.528c0 17.92-14.336 32.768-32.768 32.768z"  p-id="9318"></path></svg>