<svg t="1569145848400" class="icon" viewBox="0 0 1024 1024" version="1.1" xmlns="http://www.w3.org/2000/svg" p-id="10758" width="1em" height="1em" fill="currentColor"><path d="M171.008 460.8h153.6v153.6h-153.6zM171.008 665.6h153.6v153.6h-153.6zM375.808 460.8h153.6v153.6h-153.6zM375.808 665.6h153.6v153.6h-153.6z" p-id="10759"></path><path d="M130.048 853.504V389.12h696.32v16.384a175.104 175.104 0 0 1 61.44 29.696V221.696A68.096 68.096 0 0 0 819.2 153.6h-156.672V85.504a30.72 30.72 0 0 0-61.44 0V153.6h-245.76V85.504a30.72 30.72 0 0 0-61.44 0V153.6H136.704a68.096 68.096 0 0 0-68.096 68.096v631.808A68.096 68.096 0 0 0 136.704 921.6H512a404.48 404.48 0 0 1 5.632-61.44H136.704a6.656 6.656 0 0 1-6.656-6.656zM136.704 215.04h157.184V256a30.72 30.72 0 0 0 61.44 0v-40.96h245.76V256a30.72 30.72 0 0 0 61.44 0v-40.96H819.2a6.656 6.656 0 0 1 6.656 6.656V327.68H130.048V221.696a6.656 6.656 0 0 1 6.656-6.656z" p-id="10760"></path><path d="M580.608 460.8v153.6h30.208a172.544 172.544 0 0 1-4.608-38.4A175.104 175.104 0 0 1 649.728 460.8zM856.576 668.16a125.44 125.44 0 1 0-167.936 0 290.304 290.304 0 0 0-134.144 258.56v27.136h435.712v-27.136a290.304 290.304 0 0 0-133.632-258.56z m-83.968-162.816a70.656 70.656 0 1 1-70.656 70.656 70.656 70.656 0 0 1 70.656-70.656z m-162.304 394.752c9.728-112.128 79.872-198.656 162.304-198.656s153.6 86.528 162.304 198.656z" p-id="10761" ></path></svg>