<svg t="1576152334501" class="icon" viewBox="0 0 1024 1024" version="1.1" xmlns="http://www.w3.org/2000/svg" p-id="4544" width="1em" height="1em" fill="currentColor"><path d="M791.5 109.6h-43.4c-0.7-0.1-1.3-0.1-1.9-0.1-0.7 0-1.3 0-1.9 0.1H277.4c-0.6-0.1-1.3-0.1-1.9-0.1-0.7 0-1.3 0-1.9 0.1h-42.2c-66.2 0-120.4 54.7-120.4 121.6v557.9c0 66.9 54.1 121.6 120.4 121.6h560.1c66.2 0 120.4-54.7 120.4-121.6V231.2c-0.1-66.8-54.2-121.6-120.4-121.6z m-474.5 84h387.8v243.2H317V193.6z m511.3 595.5c0 42.5 5.2 37.6-36.8 37.6H231.4s-36.8 4.9-36.8-37.6V231.2c0-42.5-5.3-37.6 36.8-37.6h22v285.5c-0.1 12.2 9.8 22.2 22 22.3h470.7c5.9 0 11.5-2.4 15.6-6.6 4.2-4.2 6.4-9.8 6.4-15.7V193.6h23.3c42 0 36.8-4.9 36.8 37.6v557.9z m0 0" p-id="4545"></path><path d="M609.3 415.1c-12.9 0-33-7.1-33-22.1V236.3c-0.2-8 1.5-12.9 7.4-18.2 10-9 34-12.3 46.4-1.1 5.9 5.3 10 11.3 9.8 19.3V393c-0.1 12.3-18.5 22.1-30.6 22.1z m0 0" p-id="4546"></path></svg>