<svg t="1569147566868" class="icon" viewBox="0 0 1024 1024" version="1.1" xmlns="http://www.w3.org/2000/svg" p-id="27677" width="1em" height="1em" fill="currentColor"><path d="M511.961 1024A512 512 0 1 1 512.04 0a512 512 0 0 1 0 1024z m-0.787-932.234a419.604 419.604 0 1 0 0.393 839.208 419.604 419.604 0 0 0-0.393-839.208z m202.515 365.096c34.422 0 62.307 27.963 62.307 62.385v1.26a62.385 62.385 0 1 1-124.77 0v-1.26c0-34.422 27.962-62.385 62.384-62.385z m-123.904 62.385v1.26a62.385 62.385 0 1 1-124.77 0v-1.26a62.385 62.385 0 1 1 124.77 0z m-248.674-62.385c34.5 0 62.385 27.963 62.385 62.385v1.26a62.385 62.385 0 0 1-124.77 0v-1.26c0-34.422 27.963-62.385 62.385-62.385z" p-id="27678"></path></svg>