<svg t="1573262094770" class="icon" viewBox="0 0 1024 1024" version="1.1" xmlns="http://www.w3.org/2000/svg" p-id="50356" width="1em" height="1em" fill="currentColor"><path d="M640 576H576V448h64v128z m0 224v128a32 32 0 0 1-32 32h-192a32 32 0 0 1-32-32v-128h64V896h128v-96h64zM384 576V448h64v128H384z m256-352H576V128H448v96H384v-128a32 32 0 0 1 32-32h192a32 32 0 0 1 32 32v128z" p-id="50357"></path><path d="M220.8 256L149.568 336 220.736 416H768V256H220.8z m-14.4-64H800a32 32 0 0 1 32 32V448a32 32 0 0 1-32 32H206.4a32 32 0 0 1-23.936-10.752l-99.584-112a32 32 0 0 1 0-42.496l99.584-112A32 32 0 0 1 206.4 192zM885.184 688L814.08 768H266.816V608h547.2l71.168 80z m-56.768-144H234.88a32 32 0 0 0-32 32v224a32 32 0 0 0 32 32h593.6a32 32 0 0 0 23.936-10.752l99.584-112a32 32 0 0 0 0-42.496l-99.584-112a32 32 0 0 0-23.936-10.752z" p-id="50358"></path></svg>