<?xml version="1.0" standalone="no"?><!DOCTYPE svg PUBLIC "-//W3C//DTD SVG 1.1//EN" "http://www.w3.org/Graphics/SVG/1.1/DTD/svg11.dtd"><svg t="1570948011708" class="icon" viewBox="0 0 1024 1024" version="1.1" xmlns="http://www.w3.org/2000/svg" p-id="18243" xmlns:xlink="http://www.w3.org/1999/xlink" width="1em" height="1em" fill="currentColor"><defs><style type="text/css"></style></defs><path d="M870.4 109.381818c-6.981818-37.236364-27.927273-81.454545-74.472727-86.109091H791.272727c-30.254545 0-62.836364 16.290909-79.127272 39.563637-27.927273 34.909091-65.163636 62.836364-104.727273 79.127272l-2.327273 2.327273c-88.436364 51.2-167.563636 83.781818-169.890909 83.781818-100.072727 44.218182-181.527273 118.690909-242.036364 209.454546l-2.327272 2.327272C118.690909 565.527273 134.981818 737.745455 155.927273 791.272727c9.309091 25.6 4.654545 93.090909 4.654545 123.345455-2.327273 25.6-2.327273 32.581818 0 41.890909 2.327273 4.654545 4.654545 9.309091 6.981818 11.636364 0 0 0 2.327273 2.327273 2.327272 0 2.327273 2.327273 2.327273 4.654546 4.654546 11.636364 13.963636 25.6 23.272727 44.218181 23.272727h4.654546c25.6 0 48.872727-13.963636 60.509091-34.909091l2.327272-9.309091c16.290909-58.181818 46.545455-128 72.145455-137.309091 58.181818-32.581818 121.018182-65.163636 181.527273-90.763636 125.672727-41.890909 230.4-128 293.236363-246.690909 48.872727-114.036364 62.836364-246.690909 37.236364-370.036364z m-116.363636 330.472727c-53.527273 97.745455-141.963636 172.218182-249.018182 207.127273l-2.327273 2.327273c-67.490909 27.927273-130.327273 60.509091-190.836364 95.418182-9.309091 4.654545-20.945455 13.963636-27.927272 23.272727 46.545455-128 139.636364-286.254545 330.472727-377.018182 20.945455-9.309091 27.927273-32.581818 20.945455-53.527273s-32.581818-27.927273-53.527273-20.945454c-197.818182 93.090909-302.545455 251.345455-358.4 386.327273-4.654545-62.836364 0-153.6 39.563636-225.745455 51.2-76.8 123.345455-139.636364 207.127273-179.2 2.327273-2.327273 79.127273-34.909091 174.545454-86.109091 51.2-25.6 97.745455-60.509091 132.654546-104.727273 2.327273-4.654545 6.981818-6.981818 11.636364-6.981818 2.327273 4.654545 4.654545 13.963636 6.981818 18.618182v2.327273c18.618182 109.381818 4.654545 223.418182-41.890909 318.836363z" p-id="18244"></path></svg>