<svg t="1577675630063" class="icon" viewBox="0 0 1024 1024" version="1.1" xmlns="http://www.w3.org/2000/svg" p-id="8406" width="1em" height="1em" fill="currentColor"><path d="M352.256 841.728c10.24-12.288 20.48-23.552 28.672-36.352 9.216-14.336 17.408-14.848 33.28-8.192 121.344 51.712 236.544 38.4 342.528-39.424 114.688-84.48 160.256-240.64 113.152-375.296-49.152-139.776-180.736-231.424-325.12-226.816-177.152 5.632-316.416 139.264-328.192 315.904-1.024 17.92-7.68 19.968-23.04 19.968-51.2 0-52.224-0.512-43.008-52.224C182.272 261.12 284.672 145.92 459.264 99.84c232.448-61.44 472.064 115.2 494.592 354.816C972.288 652.8 832.512 863.744 596.992 892.928c-85.504 10.24-167.936-5.12-244.736-51.2z" p-id="8407"></path><path d="M387.584 413.696c-32.256 70.656-65.024 141.312-97.792 213.504 50.688 10.24 98.304 20.48 145.408 30.208C333.312 757.76 232.96 857.6 133.12 956.928c29.696-55.296 60.416-111.616 91.136-167.936 20.48-37.376 20.48-37.376-23.04-42.496-44.544-5.632-89.088-11.776-139.776-18.432 110.08-108.032 217.088-212.48 323.584-316.928 0.512 1.024 1.536 2.048 2.56 2.56z m97.792-26.112V262.656c0-25.6 11.776-39.424 33.28-38.912 20.992 0 33.28 13.824 33.792 39.424 0.512 68.096 1.024 136.192-0.512 204.288-0.512 21.504 7.168 24.576 26.112 24.064a2974.08 2974.08 0 0 1 135.168 0c25.6 0.512 39.936 12.8 39.936 33.28 0 23.552-14.848 34.304-35.84 34.304a6291.84 6291.84 0 0 1-196.608 0c-23.04-0.512-35.328-14.336-35.328-38.4 0.512-44.544 0-88.576 0-133.12z" p-id="8408"></path></svg>