<svg t="1574516766963" class="icon" viewBox="0 0 1024 1024" version="1.1" xmlns="http://www.w3.org/2000/svg" p-id="6867" width="1em" height="1em" fill="currentColor"><path d="M306.623 619.695c125.358-17.375 221.908-124.92 221.908-255.05 0-142.289-115.312-257.6-257.607-257.6-142.238-0.001-257.6 115.311-257.6 257.6 0 130.13 96.544 237.675 221.961 255.05V743.72H68.45v71.228h166.835v166.886h71.286V815.002h166.828v-71.23H306.623V619.695zM84.72 364.645c0-102.93 83.334-186.262 186.204-186.262 102.93 0 186.262 83.389 186.262 186.262 0 102.875-83.333 186.262-186.262 186.262-102.87 0-186.204-83.387-186.204-186.262z m0 0M504.103 757.32c0.05 142.295 115.42 257.605 257.768 257.548 142.29-0.058 257.543-115.422 257.49-257.71-0.057-130.138-96.66-237.617-222.018-254.993l-0.11-261.378 68.123 68.175 50.411-50.411-118.644-118.532-35.698-35.642-154.064 154.226 50.41 50.359 68.176-68.235 0.116 261.38c-125.475 17.486-222.019 125.078-221.96 255.212z m443.862-0.162c0.11 102.929-83.275 186.313-186.211 186.371-102.928 0.052-186.262-83.332-186.314-186.21 0-102.87 83.276-186.26 186.204-186.313 102.878-0.11 186.263 83.277 186.32 186.152z m0 0" p-id="6868"></path></svg>