<svg t="1574516704050" class="icon" viewBox="0 0 1024 1024" version="1.1" xmlns="http://www.w3.org/2000/svg" p-id="6060" width="1em" height="1em" fill="currentColor"><path d="M512 0C229.3 0 0 229.3 0 512s229.3 512 512 512 512-229.3 512-512S794.7 0 512 0z m0 955.4c-244.5 0-443.4-199-443.4-443.4S267.5 68.6 512 68.6s443.4 199 443.4 443.4S756.5 955.4 512 955.4z" p-id="6061"></path><path d="M512 266.3c-135.7 0-245.7 110.1-245.7 245.7s110 245.7 245.7 245.7 245.7-110 245.7-245.7-110-245.7-245.7-245.7z m0 422.8c-97.7 0-177.1-79.4-177.1-177.1S414.3 334.9 512 334.9 689.1 414.3 689.1 512 609.7 689.1 512 689.1z" p-id="6062"></path><path d="M571.3 553.9m-57.1 0a57.1 57.1 0 1 0 114.2 0 57.1 57.1 0 1 0-114.2 0Z" p-id="6063"></path></svg>