<svg t="1574516876433" class="icon" viewBox="0 0 1024 1024" version="1.1" xmlns="http://www.w3.org/2000/svg" p-id="8479" width="1em" height="1em" fill="currentColor"><path d="M307.2 480c-76.8-38.4-128-134.4-128-217.6 0-140.8 115.2-256 256-256s256 115.2 256 256-108.8 256-249.6 256c-211.2 0-384 166.4-384 377.6 0 12.8-12.8 25.6-25.6 25.6S0 908.8 0 896c0-198.4 128-364.8 307.2-416z m128-25.6c108.8 0 198.4-89.6 198.4-198.4 0-76.8-44.8-147.2-108.8-179.2C499.2 64 467.2 57.6 435.2 57.6 326.4 57.6 236.8 147.2 236.8 256c0 108.8 89.6 198.4 198.4 198.4z m582.4 160l6.4 12.8-51.2 64c-6.4 12.8-6.4 25.6 0 38.4l51.2 57.6-6.4 12.8c-12.8 32-25.6 57.6-44.8 83.2l-6.4 6.4-76.8-12.8c-12.8 0-25.6 6.4-32 19.2l-25.6 76.8h-12.8c-38.4 6.4-83.2 6.4-121.6 0h-12.8l-32-76.8c-6.4-12.8-19.2-19.2-32-19.2l-83.2 12.8-6.4-6.4c-12.8-12.8-19.2-25.6-25.6-38.4-6.4-12.8-19.2-32-19.2-51.2l-6.4-12.8 51.2-57.6c6.4-12.8 6.4-25.6 0-38.4l-51.2-64 6.4-12.8c12.8-32 25.6-57.6 51.2-83.2l6.4-6.4 76.8 12.8c12.8 0 25.6-6.4 32-19.2l25.6-76.8h12.8c38.4-6.4 76.8-6.4 121.6 0h12.8l25.6 70.4c6.4 12.8 19.2 25.6 32 19.2L960 512l6.4 6.4c12.8 12.8 19.2 25.6 25.6 38.4 12.8 25.6 19.2 44.8 25.6 57.6z m-76.8-12.8c-6.4-6.4-6.4-12.8-12.8-19.2l-51.2 6.4c-32 6.4-64-12.8-70.4-44.8l-12.8-44.8c-25.6-6.4-44.8-6.4-70.4 0l-19.2 44.8c-12.8 32-44.8 51.2-70.4 44.8L582.4 576c-12.8 12.8-19.2 32-25.6 44.8l32 38.4c19.2 25.6 19.2 57.6 0 83.2l-32 38.4c6.4 12.8 6.4 19.2 12.8 25.6 6.4 6.4 6.4 12.8 12.8 19.2l51.2-6.4c32-6.4 64 12.8 70.4 44.8l12.8 44.8c25.6 6.4 51.2 6.4 70.4 0l19.2-51.2c12.8-32 44.8-51.2 70.4-44.8l51.2 6.4c12.8-12.8 19.2-32 25.6-44.8l-32-38.4c-19.2-25.6-19.2-57.6 0-83.2l32-38.4c-6.4 0-6.4-6.4-12.8-12.8z m-185.6 198.4c-51.2 0-96-44.8-96-96s44.8-96 96-96 96 44.8 96 96-44.8 96-96 96z m0-38.4c32 0 51.2-25.6 51.2-51.2 0-32-25.6-51.2-51.2-51.2-32 0-51.2 25.6-51.2 51.2-6.4 25.6 19.2 51.2 51.2 51.2z" p-id="8480"></path></svg>