<svg t="1569146080322" class="icon" viewBox="0 0 1024 1024" version="1.1" xmlns="http://www.w3.org/2000/svg" p-id="17172" width="1em" height="1em" fill="currentColor"><path d="M876.088889 1012.622222H147.911111c-56.888889 0-102.4-45.511111-102.4-102.4V238.933333c0-56.888889 45.511111-102.4 102.4-102.4h728.177778c56.888889 0 102.4 45.511111 102.4 102.4v221.866667c0 22.755556-17.066667 45.511111-45.511111 45.511111s-45.511111-17.066667-45.511111-45.511111V238.933333c0-11.377778-5.688889-17.066667-17.066667-17.066666H147.911111c-11.377778 0-17.066667 5.688889-17.066667 17.066666v665.6c0 11.377778 5.688889 17.066667 17.066667 17.066667h728.177778c11.377778 0 17.066667-5.688889 17.066667-17.066667v-113.777777c0-22.755556 17.066667-45.511111 45.511111-45.511112s45.511111 17.066667 45.511111 45.511112v113.777777c-5.688889 56.888889-51.2 108.088889-108.088889 108.088889z" p-id="17173"></path><path d="M358.4 341.333333c-22.755556 0-39.822222-17.066667-39.822222-39.822222V56.888889c0-22.755556 17.066667-45.511111 45.511111-45.511111s39.822222 22.755556 39.822222 45.511111v244.622222c0 22.755556-22.755556 39.822222-45.511111 39.822222zM665.6 341.333333c-22.755556 0-45.511111-17.066667-45.511111-45.511111V56.888889c0-22.755556 17.066667-45.511111 45.511111-45.511111s45.511111 17.066667 45.511111 45.511111v244.622222c-5.688889 22.755556-22.755556 39.822222-45.511111 39.822222zM512 642.844444H267.377778c-22.755556 0-39.822222-17.066667-39.822222-39.822222s17.066667-45.511111 45.511111-45.511111H512c22.755556 0 45.511111 17.066667 45.511111 45.511111s-22.755556 39.822222-45.511111 39.822222zM756.622222 824.888889H267.377778c-22.755556 0-45.511111-17.066667-45.511111-45.511111s22.755556-39.822222 45.511111-39.822222h483.555555c22.755556 0 45.511111 17.066667 45.511111 45.511111s-17.066667 39.822222-39.822222 39.822222z" p-id="17174"></path></svg>