<?xml version="1.0" standalone="no"?><!DOCTYPE svg PUBLIC "-//W3C//DTD SVG 1.1//EN" "http://www.w3.org/Graphics/SVG/1.1/DTD/svg11.dtd"><svg t="1570945709338" class="icon" viewBox="0 0 1024 1024" version="1.1" xmlns="http://www.w3.org/2000/svg" p-id="11894" xmlns:xlink="http://www.w3.org/1999/xlink" width="1em" height="1em" fill="currentColor"><defs><style type="text/css"></style></defs><path d="M601.770667 746.894222A142.250667 142.250667 0 0 1 727.210667 597.333333a32.881778 32.881778 0 0 1 37.575111 45.937778 32.853333 32.853333 0 0 1-29.639111 18.716445v0.483555a76.600889 76.600889 0 0 0 3.271111 152.519111 76.600889 76.600889 0 0 0 81.066666-63.800889 32.853333 32.853333 0 0 1 65.507556-2.759111h0.967111a142.336 142.336 0 0 1-142.108444 132.380445 142.307556 142.307556 0 0 1-142.08-133.916445zM506.368 181.560889H133.489778a35.015111 35.015111 0 1 1 0-70.030222h372.963555a35.015111 35.015111 0 1 1-0.085333 70.030222zM191.715556 461.397333a35.015111 35.015111 0 1 1 0-70.030222h314.652444a35.015111 35.015111 0 1 1 0 70.030222H191.715556z m-156.700445-141.937777a35.015111 35.015111 0 1 1 0-70.030223l471.324445 1.991111a35.015111 35.015111 0 1 1 0 70.030223l-471.324445-1.991111zM739.555556 1024c-157.127111 0-284.444444-123.676444-284.444445-276.309333 0-108.856889 65.792-207.644444 168.078222-252.16V113.038222C623.189333 50.659556 675.328 0 739.555556 0s116.366222 50.631111 116.366222 113.038222v382.492445C958.208 540.046222 1024 638.833778 1024 747.690667 1024 900.323556 896.682667 1024 739.555556 1024z m38.826666-910.961778c0-20.821333-17.379556-37.717333-38.826666-37.717333s-38.826667 16.896-38.826667 37.717333v437.304889c-104.874667 19.399111-177.208889 113.152-167.168 216.32 10.040889 103.168 99.214222 182.016 205.994667 182.016s195.953778-78.848 205.994666-182.016c10.040889-103.168-62.407111-196.920889-167.168-216.32V113.038222zM728.177778 142.222222a11.377778 11.377778 0 1 1 22.755555 0v384.369778a11.377778 11.377778 0 1 1-22.755555 0V142.222222z" p-id="11895"></path></svg>