<?xml version="1.0" standalone="no"?><!DOCTYPE svg PUBLIC "-//W3C//DTD SVG 1.1//EN" "http://www.w3.org/Graphics/SVG/1.1/DTD/svg11.dtd"><svg t="1619599030312" class="icon" viewBox="0 0 1170 1024" version="1.1" xmlns="http://www.w3.org/2000/svg" p-id="6648" xmlns:xlink="http://www.w3.org/1999/xlink" width="1em" height="1em" fill="currentColor"><defs><style type="text/css"></style></defs><path d="M1167.048119 268.9024l-48.917943 266.737371c-5.061486 13.809371-16.1792 24.576-30.164114 29.198629a34.816 34.816 0 0 1-3.510857 1.2288 47.981714 47.981714 0 0 1-13.341258 1.316571 43.154286 43.154286 0 0 1-5.617371-0.292571 49.034971 49.034971 0 0 1-9.742629-2.399086c-0.731429-0.292571-1.404343-0.731429-2.135771-1.053257-1.462857-0.585143-2.984229-0.585143-4.417829-1.287314l-115.653485-29.930057 43.095771 419.137828a48.508343 48.508343 0 0 1-29.637486 48.654629 39.936 39.936 0 0 1-6.231771 2.282057c-4.651886 1.521371-9.479314 2.340571-14.365257 2.428343l-510.537143-0.468114a48.683886 48.683886 0 1 1 0-97.309258l458.400914 0.4096-42.276571-424.638171a48.917943 48.917943 0 0 1 30.954057-59.830857l0.643657-0.292572a46.2848 46.2848 0 0 1 39.409372 3.540115l131.335314 35.108571 36.864-194.998857a779.4688 779.4688 0 0 0-254.332343-157.4912 242.688 242.688 0 0 1-230.780343 165.829486 242.688 242.688 0 0 1-230.048914-166.853486 782.101943 782.101943 0 0 0-256.936229 158.5152l36.951772 195.3792 132.827428-35.459657a46.2848 46.2848 0 0 1 39.380115-3.540114l0.6144 0.263314c2.399086 0.8192 4.7104 1.8432 6.9632 3.013486a48.186514 48.186514 0 0 1 24.107885 56.554057l-46.021485 477.066971a48.683886 48.683886 0 0 1-97.0752-8.162743l41.7792-419.2256-115.858286 30.017829c-7.021714 3.393829-14.716343 5.12-22.528 4.973714-21.182171 1.111771-40.667429-11.702857-48.010972-31.597714L3.25749 268.960914a47.396571 47.396571 0 0 1 22.235429-59.274971A973.560686 973.560686 0 0 1 342.903662 13.897143l28.496457-9.742629-0.234057 0.526629c1.696914-0.760686 3.423086-1.462857 5.207771-2.048l4.476343-0.760686c24.224914-6.729143 49.590857 6.144 58.426514 29.666743h1.960229v0.6144c0 4.096 0.877714 7.899429 1.199543 11.936914 0 0.6144 0.146286 1.258057 0.175543 1.901715A144.9984 144.9984 0 0 0 593.959205 177.210514a144.969143 144.969143 0 0 0 138.093714-145.144685v-0.643658h3.598628c5.558857-14.043429 17.349486-24.751543 31.890286-28.8768l4.476343-0.760685a48.362057 48.362057 0 0 1 39.3216 6.026971l17.320229 6.056229v0.292571A973.882514 973.882514 0 0 1 1144.871205 209.685943a47.396571 47.396571 0 0 1 22.176914 59.245714z" p-id="6649"></path></svg>