<?xml version="1.0" standalone="no"?><!DOCTYPE svg PUBLIC "-//W3C//DTD SVG 1.1//EN" "http://www.w3.org/Graphics/SVG/1.1/DTD/svg11.dtd"><svg t="1570945545463" class="icon" viewBox="0 0 1024 1024" version="1.1" xmlns="http://www.w3.org/2000/svg" p-id="5366" fill="currentColor" width="1em" height="1em" xmlns:xlink="http://www.w3.org/1999/xlink"><defs><style type="text/css"></style></defs><path d="M955.733333 343.586133C955.733333 371.268267 953.514667 375.466667 921.6 375.466667L819.2 385.706667 819.2 126.293333 921.6 136.533333C953.514667 136.533333 955.733333 140.731733 955.733333 168.413867L955.733333 343.586133 955.733333 343.586133ZM750.933333 392.533333 546.133333 413.013333 546.133333 98.986667 750.933333 119.466667 750.933333 392.533333 750.933333 392.533333ZM477.866667 419.84 238.933333 443.733333C207.018667 443.733333 204.8 437.282133 204.8 409.6L204.8 102.4C204.8 74.752 207.018667 68.266667 238.933333 68.266667L477.866667 92.16 477.866667 419.84 477.866667 419.84ZM955.733333 68.266667 204.8 0C167.1168 0 136.533333 30.583467 136.533333 68.266667L136.533333 443.733333C136.533333 481.416533 167.1168 512 204.8 512L955.733333 443.733333C993.416533 443.733333 1024 413.149867 1024 375.466667L1024 136.533333C1024 98.850133 993.416533 68.266667 955.733333 68.266667L955.733333 68.266667ZM34.133333 0C15.2576 0 0 15.291733 0 34.133333L0 989.866667C0 1008.7424 15.2576 1024 34.133333 1024 53.009067 1024 68.266667 1008.7424 68.266667 989.866667L68.266667 34.133333C68.266667 15.291733 53.009067 0 34.133333 0L34.133333 0Z" p-id="5367"></path></svg>