<svg t="1569145596202" class="icon" viewBox="0 0 1024 1024" version="1.1" xmlns="http://www.w3.org/2000/svg" p-id="5875" fill="currentColor" width="1em" height="1em"><path d="M589.605 501.662c4.778 4.438 11.117 7.193 18.139 7.193 14.824 0 26.843-12.02 26.843-26.868 0-9.387-4.851-17.603-12.141-22.382l0.317-0.414c-6.876-4.486-14.068-8.485-21.48-12.117 30.452-25.6 49.835-63.927 49.835-106.838 0-77.044-62.44-139.508-139.508-139.508-77.068 0-139.532 62.464-139.532 139.508 0 42.862 19.358 82.652 49.737 108.227-62.927 30.988-107.545 88.113-113.298 168.448h0.024s-0.024-1.17-0.024-1c0 14.8 11.995 26.064 26.843 26.064 14.8 0 26.819-10.898 26.819-25.722 0-0.17-0.049 0.61-0.049 0.61h0.122c8.046-80.311 71.826-135.632 149.358-135.632 28.599 0 55.223 7.363 77.946 21.236l0.049-0.805zM425.74 340.285c0-47.421 38.449-85.845 85.846-85.845s85.845 38.424 85.845 85.845c0 47.397-38.425 85.845-85.845 85.845s-85.846-38.448-85.846-85.845z m236.105 273.676c0-7.022 2.877-13.995 7.827-18.968 4.973-4.974 11.946-7.85 18.968-7.85s13.995 2.876 18.968 7.85 7.827 11.946 7.827 18.968h-53.59z m0 0M776.094 398.75c6.559 6.193 6.486 6.096 11.947 11.289 5.51 5.193 10.874 19.139 0 30.013-10.85 10.874-142.19 142.19-142.19 142.19s-60.245 25.039-63.439 26.404c-3.145 1.365-5.9-1.707-4.51-4.95s26.404-60.732 26.404-60.732S737.987 408.6 746.74 399.896c8.728-8.728 22.796-7.29 29.354-1.146z m0 0" p-id="5876"></path><path d="M916.48 78.604H107.52c-45.934 0-83.139 37.864-83.139 84.553v507.904c0 46.763 37.205 84.7 83.139 84.7h562.371v-73.167l-565.736-0.171V151.869h814.787l0.244 530.603-290.962 0.122v73.167H916.48c45.91 0 83.139-37.937 83.139-84.7V163.157c0-46.69-37.205-84.553-83.139-84.553z m0 0" p-id="5877"></path><path d="M478.013 754.98h79.774v117.785h-79.774V754.981z m0 0" p-id="5878"></path><path d="M274.822 872.131H763.27v73.29H274.822v-73.29z m0 0" p-id="5879"></path></svg>