<?xml version="1.0" encoding="utf-8"?>
<!-- Generator: Adobe Illustrator 24.2.0, SVG Export Plug-In . SVG Version: 6.00 Build 0)  -->
<svg version="1.1" id="图层_1" xmlns="http://www.w3.org/2000/svg" xmlns:xlink="http://www.w3.org/1999/xlink" x="0px" y="0px"
	 viewBox="0 0 277.8 277.8" style="enable-background:new 0 0 277.8 277.8;" xml:space="preserve">
<style type="text/css">
	.st0{fill:#B0D8FF;}
	.st1{fill:#FFFFFF;}
	.st2{fill:url(#SVGID_1_);}
	.st3{fill:#D5E1F7;}
	.st4{fill:#EBF5FF;}
	.st5{fill:#00D967;}
	.st6{fill:#DAEBFF;}
	.st7{fill:#E2EEFA;}
	.st8{fill:#D3E2F9;}
	.st9{fill:#D1E3FF;}
	.st10{fill:#E3EEFF;}
	.st11{fill:#F5FCFF;}
	.st12{fill:#D1E3FF;stroke:#B6D4FF;stroke-width:0.085;stroke-miterlimit:10;}
	.st13{fill:none;stroke:#B6D4FF;stroke-width:0.1976;stroke-miterlimit:10;}
	.st14{opacity:0.45;fill:url(#SVGID_2_);}
	.st15{fill:url(#SVGID_3_);}
	.st16{fill:#006DFE;}
	.st17{opacity:0.34;clip-path:url(#SVGID_5_);}
	.st18{fill:#191E56;}
	.st19{fill:#0542BF;}
	.st20{clip-path:url(#SVGID_7_);fill:#004EFC;}
	.st21{clip-path:url(#SVGID_9_);fill:#FE8E00;}
	.st22{fill:#FFAB00;}
	.st23{clip-path:url(#SVGID_11_);fill:#1A1A7C;}
	.st24{clip-path:url(#SVGID_13_);fill:#1A1A7C;}
	.st25{fill:#DE4D30;}
	.st26{fill:#9BB4C9;}
	.st27{fill:#4143C5;}
	.st28{fill:#859AD0;}
	.st29{clip-path:url(#SVGID_15_);fill:#EA756C;}
	.st30{clip-path:url(#SVGID_17_);fill:#172272;}
	.st31{clip-path:url(#SVGID_19_);fill:#EA756C;}
	.st32{fill:#FFACA6;}
	.st33{fill:#78C2FF;}
</style>
<g>
	<g>
		<g>
			<g>
				<rect x="218.41" y="77.11" class="st0" width="13.97" height="17.89"/>
				<g>
					<rect x="219.25" y="77.93" class="st1" width="12.28" height="16.24"/>
				</g>
			</g>
		</g>
		<g>
			<g>
				<rect x="233.32" y="61.62" class="st0" width="23.5" height="29.1"/>
				<g>
					<rect x="234.68" y="62.93" class="st1" width="20.78" height="26.48"/>
				</g>
			</g>
		</g>
	</g>
	<g>
		<path class="st0" d="M96.6,145.6H13.91c-2.72,0-4.93-2.21-4.93-4.93V54.35c0-2.72,2.21-4.93,4.93-4.93H96.6
			c2.72,0,4.93,2.21,4.93,4.93v86.33C101.52,143.4,99.32,145.6,96.6,145.6z"/>
		<linearGradient id="SVGID_1_" gradientUnits="userSpaceOnUse" x1="53.8095" y1="33.3327" x2="54.9778" y2="154.2428">
			<stop  offset="0" style="stop-color:#B0D8FF"/>
			<stop  offset="0.0154" style="stop-color:#B3D9FF"/>
			<stop  offset="0.145" style="stop-color:#C4E1FF"/>
			<stop  offset="0.3014" style="stop-color:#D1E7FF"/>
			<stop  offset="0.5117" style="stop-color:#D8EAFF"/>
			<stop  offset="1" style="stop-color:#DAEBFF"/>
		</linearGradient>
		<path class="st2" d="M95.26,145.6H13.61c-2.56,0-4.63-2.07-4.63-4.63V55.69c0-2.56,2.07-4.63,4.63-4.63h81.65
			c2.56,0,4.63,2.07,4.63,4.63v85.29C99.89,143.53,97.82,145.6,95.26,145.6z"/>
		<path class="st3" d="M94.95,72.8H14.52c-0.88,0-1.6-0.71-1.6-1.6V56.69c0-0.88,0.71-1.6,1.6-1.6h80.43c0.88,0,1.6,0.71,1.6,1.6
			v14.52C96.54,72.09,95.83,72.8,94.95,72.8z"/>
		<path class="st1" d="M94.48,72.34H14.06c-0.88,0-1.6-0.71-1.6-1.6V56.23c0-0.88,0.71-1.6,1.6-1.6h80.43c0.88,0,1.6,0.71,1.6,1.6
			v14.52C96.08,71.63,95.37,72.34,94.48,72.34z"/>
		<path class="st3" d="M94.99,142.61H14.56c-0.88,0-1.6-0.71-1.6-1.6V126.5c0-0.88,0.71-1.6,1.6-1.6h80.43c0.88,0,1.6,0.71,1.6,1.6
			v14.52C96.58,141.9,95.87,142.61,94.99,142.61z"/>
		<path class="st1" d="M94.48,141.97H14.06c-0.88,0-1.6-0.71-1.6-1.6v-14.52c0-0.88,0.71-1.6,1.6-1.6h80.43c0.88,0,1.6,0.71,1.6,1.6
			v14.52C96.08,141.26,95.37,141.97,94.48,141.97z"/>
		<g>
			<path class="st3" d="M40.43,129.19H16.58c-0.68,0-1.23-0.55-1.23-1.23l0,0c0-0.68,0.55-1.23,1.23-1.23h23.85
				c0.68,0,1.23,0.55,1.23,1.23l0,0C41.65,128.64,41.1,129.19,40.43,129.19z"/>
			<path class="st3" d="M92.97,134.99H16.58c-0.68,0-1.23-0.55-1.23-1.23l0,0c0-0.68,0.55-1.23,1.23-1.23h76.39
				c0.68,0,1.23,0.55,1.23,1.23l0,0C94.2,134.44,93.65,134.99,92.97,134.99z"/>
			<path class="st4" d="M92.97,139.51H16.58c-0.68,0-1.23-0.55-1.23-1.23v0c0-0.68,0.55-1.23,1.23-1.23h76.39
				c0.68,0,1.23,0.55,1.23,1.23v0C94.2,138.96,93.65,139.51,92.97,139.51z"/>
		</g>
		<path class="st3" d="M12.92,120.94V76.95c0-0.66,0.53-1.19,1.19-1.19h15.33c0.66,0,1.19,0.53,1.19,1.19v43.99
			c0,0.66-0.53,1.19-1.19,1.19H14.11C13.46,122.13,12.92,121.6,12.92,120.94z"/>
		<path class="st1" d="M12.57,120.33V76.34c0-0.66,0.53-1.19,1.19-1.19h15.33c0.66,0,1.19,0.53,1.19,1.19v43.99
			c0,0.66-0.53,1.19-1.19,1.19H13.75C13.1,121.52,12.57,120.98,12.57,120.33z"/>
		<path class="st3" d="M34.5,119.9V77.99c0-1.23,1-2.23,2.23-2.23h57.81c1.23,0,2.23,1,2.23,2.23v41.91c0,1.23-1,2.23-2.23,2.23
			H36.73C35.5,122.13,34.5,121.13,34.5,119.9z"/>
		<path class="st1" d="M33.81,119.29V77.38c0-1.23,1-2.23,2.23-2.23h57.81c1.23,0,2.23,1,2.23,2.23v41.91c0,1.23-1,2.23-2.23,2.23
			H36.04C34.81,121.52,33.81,120.52,33.81,119.29z"/>
		<g>
			<path class="st5" d="M54.1,79.54H37.38c-0.64,0-1.15-0.52-1.15-1.15v-0.15c0-0.64,0.52-1.15,1.15-1.15H54.1
				c0.64,0,1.15,0.52,1.15,1.15v0.15C55.25,79.02,54.73,79.54,54.1,79.54z"/>
			<path class="st3" d="M92.06,85.34H37.41c-0.66,0-1.19-0.53-1.19-1.19v-0.08c0-0.66,0.53-1.19,1.19-1.19h54.64
				c0.66,0,1.19,0.53,1.19,1.19v0.08C93.24,84.8,92.71,85.34,92.06,85.34z"/>
			<path class="st4" d="M92.06,89.86H37.41c-0.66,0-1.19-0.53-1.19-1.19v-0.08c0-0.66,0.53-1.19,1.19-1.19h54.64
				c0.66,0,1.19,0.53,1.19,1.19v0.08C93.24,89.32,92.71,89.86,92.06,89.86z"/>
		</g>
		<g>
			<path class="st5" d="M54.1,94.37H37.38c-0.64,0-1.15-0.52-1.15-1.15v-0.15c0-0.64,0.52-1.15,1.15-1.15H54.1
				c0.64,0,1.15,0.52,1.15,1.15v0.15C55.25,93.86,54.73,94.37,54.1,94.37z"/>
			<path class="st3" d="M92.06,100.17H37.41c-0.66,0-1.19-0.53-1.19-1.19V98.9c0-0.66,0.53-1.19,1.19-1.19h54.64
				c0.66,0,1.19,0.53,1.19,1.19v0.08C93.24,99.64,92.71,100.17,92.06,100.17z"/>
			<path class="st4" d="M92.06,104.69H37.41c-0.66,0-1.19-0.53-1.19-1.19v-0.08c0-0.66,0.53-1.19,1.19-1.19h54.64
				c0.66,0,1.19,0.53,1.19,1.19v0.08C93.24,104.16,92.71,104.69,92.06,104.69z"/>
		</g>
		<g>
			<path class="st5" d="M54.1,109.21H37.38c-0.64,0-1.15-0.52-1.15-1.15v-0.15c0-0.64,0.52-1.15,1.15-1.15H54.1
				c0.64,0,1.15,0.52,1.15,1.15v0.15C55.25,108.7,54.73,109.21,54.1,109.21z"/>
			<path class="st3" d="M92.06,115.01H37.41c-0.66,0-1.19-0.53-1.19-1.19v-0.08c0-0.66,0.53-1.19,1.19-1.19h54.64
				c0.66,0,1.19,0.53,1.19,1.19v0.08C93.24,114.48,92.71,115.01,92.06,115.01z"/>
			<path class="st4" d="M92.06,119.53H37.41c-0.66,0-1.19-0.53-1.19-1.19v-0.08c0-0.66,0.53-1.19,1.19-1.19h54.64
				c0.66,0,1.19,0.53,1.19,1.19v0.08C93.24,119,92.71,119.53,92.06,119.53z"/>
		</g>
		<g>
			<path class="st6" d="M27.28,91.21H15.41c-0.93,0-1.69-0.76-1.69-1.69V78.77c0-0.93,0.76-1.69,1.69-1.69h11.87
				c0.93,0,1.69,0.76,1.69,1.69v10.74C28.97,90.45,28.21,91.21,27.28,91.21z"/>
			<path class="st6" d="M27.28,107.92H15.41c-0.93,0-1.69-0.76-1.69-1.69V95.49c0-0.93,0.76-1.69,1.69-1.69h11.87
				c0.93,0,1.69,0.76,1.69,1.69v10.74C28.97,107.17,28.21,107.92,27.28,107.92z"/>
			<path class="st6" d="M51.34,70.62H36.37c-0.93,0-1.68-0.75-1.68-1.68v-1.86c0-0.93,0.75-1.68,1.68-1.68h14.97
				c0.93,0,1.68,0.75,1.68,1.68v1.86C53.02,69.87,52.27,70.62,51.34,70.62z"/>
			<path class="st6" d="M30.93,70.62H15.97c-0.93,0-1.68-0.75-1.68-1.68v-1.86c0-0.93,0.75-1.68,1.68-1.68h14.97
				c0.93,0,1.68,0.75,1.68,1.68v1.86C32.61,69.87,31.86,70.62,30.93,70.62z"/>
			<path class="st6" d="M71.93,70.62H56.96c-0.93,0-1.68-0.75-1.68-1.68v-1.86c0-0.93,0.75-1.68,1.68-1.68h14.97
				c0.93,0,1.68,0.75,1.68,1.68v1.86C73.61,69.87,72.86,70.62,71.93,70.62z"/>
			<path class="st6" d="M92.52,70.62H77.55c-0.93,0-1.68-0.75-1.68-1.68v-1.86c0-0.93,0.75-1.68,1.68-1.68h14.97
				c0.93,0,1.68,0.75,1.68,1.68v1.86C94.2,69.87,93.45,70.62,92.52,70.62z"/>
		</g>
		<path class="st6" d="M92.34,63.63H15.62c-1.02,0-1.86-0.83-1.86-1.86v-3.55c0-1.02,0.83-1.86,1.86-1.86h76.72
			c1.02,0,1.86,0.83,1.86,1.86v3.55C94.2,62.8,93.37,63.63,92.34,63.63z"/>
	</g>
	<ellipse class="st7" cx="103.02" cy="221.74" rx="24.65" ry="6.63"/>
	<ellipse class="st7" cx="42.2" cy="211.41" rx="11.82" ry="3.7"/>
	<ellipse class="st7" cx="125.69" cy="213.91" rx="20.28" ry="4.99"/>
	<ellipse class="st7" cx="240.17" cy="205.56" rx="31.96" ry="3.48"/>
	<ellipse class="st7" cx="177.42" cy="223.12" rx="9.23" ry="2.87"/>
	<rect x="5.67" y="194.7" class="st8" width="252.25" height="1.68"/>
	<g>
		<path class="st9" d="M268.49,205.67h-55.74c-1.75,0-3.17-1.42-3.17-3.17v-95.91c0-1.75,1.42-3.17,3.17-3.17h55.74
			c1.75,0,3.17,1.42,3.17,3.17v95.91C271.65,204.25,270.23,205.67,268.49,205.67z"/>
		<g>
			<rect x="215.25" y="178.41" class="st10" width="25.37" height="21.39"/>
			<rect x="240.61" y="178.41" class="st10" width="25.17" height="21.39"/>
		</g>
		<rect x="215.25" y="108.89" class="st11" width="50.53" height="18.49"/>
		<rect x="215.25" y="132.06" class="st11" width="50.53" height="18.49"/>
		<rect x="215.25" y="155.24" class="st11" width="50.53" height="18.49"/>
		<ellipse class="st9" cx="235.11" cy="184.78" rx="1.79" ry="1.7"/>
		<ellipse class="st9" cx="246.44" cy="184.78" rx="1.79" ry="1.7"/>
		<rect x="216.54" y="113.01" class="st12" width="4.23" height="14.1"/>
		<rect x="220.77" y="113.01" class="st12" width="4.23" height="14.1"/>
		<rect x="225" y="113.01" class="st12" width="4.23" height="14.1"/>
		<rect x="229.22" y="113.01" class="st12" width="4.23" height="14.1"/>
		<rect x="233.45" y="113.01" class="st12" width="4.23" height="14.1"/>
		<rect x="241.52" y="136.37" class="st12" width="4.23" height="14.1"/>
		<rect x="245.75" y="136.37" class="st12" width="4.23" height="14.1"/>
		
			<rect x="225.77" y="137.03" transform="matrix(-1.836970e-16 1 -1 -1.836970e-16 372.2252 -83.34)" class="st12" width="4.02" height="14.82"/>
		
			<rect x="227.21" y="133.01" transform="matrix(-1.836970e-16 1 -1 -1.836970e-16 369.6443 -88.8056)" class="st12" width="4.02" height="14.82"/>
		
			<rect x="227.44" y="141.05" transform="matrix(-1.836970e-16 1 -1 -1.836970e-16 377.9146 -80.9829)" class="st12" width="4.02" height="14.82"/>
		<rect x="249.98" y="136.37" class="st12" width="4.23" height="14.1"/>
		<rect x="254.2" y="136.37" class="st12" width="4.23" height="14.1"/>
		<rect x="258.43" y="136.37" class="st12" width="4.23" height="14.1"/>
		<rect x="219.55" y="159.62" class="st12" width="4.23" height="14.1"/>
		<rect x="223.78" y="159.62" class="st12" width="4.23" height="14.1"/>
		<rect x="228.01" y="159.62" class="st12" width="4.23" height="14.1"/>
		<rect x="232.23" y="159.62" class="st12" width="4.23" height="14.1"/>
		<rect x="236.46" y="159.62" class="st12" width="4.23" height="14.1"/>
		<polygon class="st12" points="246.88,125.98 242.92,127.38 237.78,114.15 241.74,112.75 		"/>
		<polygon class="st12" points="251.43,125.98 247.47,127.38 242.33,114.15 246.3,112.75 		"/>
		<polygon class="st12" points="259.8,124.69 256.43,127.12 247.5,115.86 250.87,113.44 		"/>
		<ellipse class="st12" cx="253.71" cy="163.71" rx="6.34" ry="6.03"/>
		<path class="st13" d="M253.71,170.97c-4.21,0-7.63-3.25-7.63-7.26c0-4.01,3.41-7.26,7.63-7.26"/>
		<rect x="248.89" y="172.52" class="st12" width="9.17" height="1.21"/>
		<rect x="253.11" y="169.33" class="st12" width="0.6" height="3.45"/>
	</g>
	<g>
		<g>
			<path class="st5" d="M48.71,196.15c0,0,9.16-0.5,9.17-2.36c0.01-1.45-5.59-0.22-5.59-0.22s6.13-1.78,8.96-3.23
				c0.62-0.32,1.26-0.66,1.69-1.21c0.44-0.55,0.62-1.35,0.27-1.95c-0.48-0.82-1.62-0.88-2.56-0.77c-3.77,0.46-6.42,2.47-9.82,4.18
				c2.49-1.25,4.7-2.85,6.77-4.7c1.9-1.7,4.12-3.3,5.39-5.57c0.8-1.43,1.11-3.53-0.3-4.7c-1.37-1.14-3.32-0.61-4.82-0.08
				c-4.03,1.42-7.56,4.22-9.88,7.81c0.6-1.67,1.06-3.39,1.39-5.14c0.13-0.7,0.18-1.57-0.4-1.99c-0.75-0.54-1.76,0.18-2.35,0.9
				c-1.42,1.74-2.51,3.76-3.18,5.91c0.46-4.81,0.92-9.71-0.13-14.43c-0.24-1.08-0.57-2.16-1.24-3.04c-0.67-0.87-1.75-1.51-2.85-1.39
				c-1.04,0.11-1.9,0.85-2.59,1.63c-2.25,2.51-3.56,5.84-3.64,9.21c-0.08,3.37,1.07,6.76,3.19,9.37c-1.12-1.17-2.38-2.2-3.75-3.07
				c-0.31-0.19-0.76-0.36-0.99-0.08c-0.12,0.14-0.12,0.35-0.1,0.54c0.21,2.29,1.74,4.2,3.21,5.97c-2.98-3.47-7.66-5.41-12.22-5.05
				c-0.55,0.04-1.18,0.17-1.46,0.64c-0.16,0.28-0.17,0.62-0.14,0.93c0.24,2.29,2.27,3.96,4.26,5.12c1.67,0.98,3.44,1.8,5.19,2.62
				c-1.01-0.14-2.03-0.18-3.04-0.11c-0.23,0.02-0.49,0.05-0.63,0.24c-0.27,0.35,0.11,0.82,0.46,1.08c2.54,1.84,5.74,2.74,8.87,2.49"
				/>
			
				<linearGradient id="SVGID_2_" gradientUnits="userSpaceOnUse" x1="44.7684" y1="160.3154" x2="44.7684" y2="185.8647" gradientTransform="matrix(0.9992 -0.0396 0.0396 0.9992 -7.2835 13.2828)">
				<stop  offset="0.3656" style="stop-color:#86CF94"/>
				<stop  offset="0.9892" style="stop-color:#008166"/>
			</linearGradient>
			<path class="st14" d="M59.11,179.05c0.11-0.08,0.22,0.1,0.11,0.18c-2.91,2.2-5.61,4.68-7.99,7.44c-2.41,2.79-4.32,5.83-6.2,8.99
				c-0.07,0.11-0.24,0.02-0.18-0.1C47.97,189.02,53.28,183.27,59.11,179.05L59.11,179.05z M45.93,181.41
				c-1.67,4.29-2.68,9.69-2.34,14.3c0.01,0.12,0.18,0.11,0.18-0.01c0.08-4.64,0.77-9.84,2.4-14.2
				C46.22,181.36,45.98,181.27,45.93,181.41L45.93,181.41z M40.13,171.94c-0.79,7.87-0.15,16.26,1.96,23.89
				c0.04,0.13,0.22,0.06,0.19-0.06c-0.8-4-1.52-8-1.86-12.07c-0.32-3.92-0.29-7.82-0.15-11.75
				C40.27,171.87,40.13,171.86,40.13,171.94L40.13,171.94z M33.01,183.7c2.36,3.36,4.98,9.57,8.09,12.28
				c0.13,0.11,0.29-0.07,0.17-0.19c-2.81-3.09-5.56-8.87-8.07-12.21C33.12,183.46,32.93,183.58,33.01,183.7L33.01,183.7z
				 M58.49,188.9c-4.69,2.11-9.52,4.6-13.5,7.91c-0.12,0.1,0,0.31,0.14,0.22c4.37-2.9,8.61-5.76,13.42-7.93
				C58.67,189.04,58.61,188.85,58.49,188.9L58.49,188.9z M29.33,188.32c3.41,2.04,7.07,6.39,10.79,7.82
				c0.12,0.04,0.21-0.12,0.09-0.18c-3.61-1.76-7.29-5.83-10.78-7.82C29.31,188.07,29.22,188.25,29.33,188.32L29.33,188.32z"/>
		</g>
		<g>
			<rect x="33.64" y="195.6" class="st0" width="19.98" height="16.71"/>
			<rect x="49.7" y="195.6" class="st6" width="3.93" height="16.71"/>
		</g>
	</g>
	<g>
		<path class="st0" d="M198.5,135.09h-85.61c-2.42,0-4.38-1.96-4.38-4.38v-65.7c0-2.42,1.96-4.38,4.38-4.38h85.61
			c2.42,0,4.38,1.96,4.38,4.38v65.7C202.87,133.13,200.92,135.09,198.5,135.09z"/>
		<linearGradient id="SVGID_3_" gradientUnits="userSpaceOnUse" x1="154.8464" y1="47.9028" x2="154.8464" y2="144.496">
			<stop  offset="0" style="stop-color:#B0D8FF"/>
			<stop  offset="0.0154" style="stop-color:#B3D9FF"/>
			<stop  offset="0.145" style="stop-color:#C4E1FF"/>
			<stop  offset="0.3014" style="stop-color:#D1E7FF"/>
			<stop  offset="0.5117" style="stop-color:#D8EAFF"/>
			<stop  offset="1" style="stop-color:#DAEBFF"/>
		</linearGradient>
		<path class="st15" d="M196.9,135.09h-84.11c-2.37,0-4.28-1.92-4.28-4.28V66.72c0-2.37,1.92-4.28,4.28-4.28h84.11
			c2.37,0,4.28,1.92,4.28,4.28v64.08C201.18,133.17,199.27,135.09,196.9,135.09z"/>
		<g>
			<g>
				<path class="st5" d="M135.08,69.94h-10.41c-0.36,0-0.65-0.34-0.65-0.76l0,0c0-0.42,0.29-0.76,0.65-0.76h10.41
					c0.36,0,0.65,0.34,0.65,0.76l0,0C135.73,69.6,135.44,69.94,135.08,69.94z"/>
			</g>
			<g>
				<path class="st16" d="M145.22,76.79h-17.65c-0.36,0-0.65-0.34-0.65-0.76l0,0c0-0.42,0.29-0.76,0.65-0.76h17.65
					c0.36,0,0.65,0.34,0.65,0.76l0,0C145.87,76.45,145.58,76.79,145.22,76.79z"/>
			</g>
			<g>
				<path class="st5" d="M152.34,76.79h26.93c0.36,0,0.65-0.34,0.65-0.76l0,0c0-0.42-0.29-0.76-0.65-0.76h-26.93
					c-0.36,0-0.65,0.34-0.65,0.76l0,0C151.69,76.45,151.98,76.79,152.34,76.79z"/>
			</g>
			<g>
				<path class="st16" d="M145.22,83.64h-17.65c-0.36,0-0.65-0.34-0.65-0.76v0c0-0.42,0.29-0.76,0.65-0.76h17.65
					c0.36,0,0.65,0.34,0.65,0.76v0C145.87,83.3,145.58,83.64,145.22,83.64z"/>
			</g>
			<g>
				<g>
					<path class="st5" d="M142.31,90.49h-17.65c-0.36,0-0.65-0.34-0.65-0.76l0,0c0-0.42,0.29-0.76,0.65-0.76h17.65
						c0.36,0,0.65,0.34,0.65,0.76l0,0C142.96,90.15,142.67,90.49,142.31,90.49z"/>
				</g>
			</g>
			<g>
				<path class="st16" d="M179.74,90.49h-30.31c-0.36,0-0.65-0.34-0.65-0.76l0,0c0-0.42,0.29-0.76,0.65-0.76h30.31
					c0.36,0,0.65,0.34,0.65,0.76l0,0C180.39,90.15,180.1,90.49,179.74,90.49z"/>
			</g>
			<g>
				<path class="st16" d="M160.48,83.64h-8.92c-0.36,0-0.65-0.34-0.65-0.76v0c0-0.42,0.29-0.76,0.65-0.76h8.92
					c0.36,0,0.65,0.34,0.65,0.76v0C161.13,83.3,160.84,83.64,160.48,83.64z"/>
			</g>
			<g>
				<path class="st16" d="M176.14,83.64h-8.92c-0.36,0-0.65-0.34-0.65-0.76v0c0-0.42,0.29-0.76,0.65-0.76h8.92
					c0.36,0,0.65,0.34,0.65,0.76v0C176.79,83.3,176.5,83.64,176.14,83.64z"/>
			</g>
			<g>
				<path class="st16" d="M136.47,97.34h-11.59c-0.36,0-0.65-0.34-0.65-0.76l0,0c0-0.42,0.29-0.76,0.65-0.76h11.59
					c0.36,0,0.65,0.34,0.65,0.76l0,0C137.12,97,136.83,97.34,136.47,97.34z"/>
			</g>
			<g>
				<g>
					<path class="st5" d="M160.52,97.34h-17.65c-0.36,0-0.65-0.34-0.65-0.76l0,0c0-0.42,0.29-0.76,0.65-0.76h17.65
						c0.36,0,0.65,0.34,0.65,0.76l0,0C161.17,97,160.88,97.34,160.52,97.34z"/>
				</g>
			</g>
			<g>
				<path class="st16" d="M173.39,97.34h-6.59c-0.36,0-0.65-0.34-0.65-0.76l0,0c0-0.42,0.29-0.76,0.65-0.76h6.59
					c0.36,0,0.65,0.34,0.65,0.76l0,0C174.04,97,173.74,97.34,173.39,97.34z"/>
			</g>
			<g>
				<path class="st16" d="M147.39,104.19h-10.34c-0.36,0-0.65-0.34-0.65-0.76l0,0c0-0.42,0.29-0.76,0.65-0.76h10.34
					c0.36,0,0.65,0.34,0.65,0.76l0,0C148.04,103.85,147.75,104.19,147.39,104.19z"/>
			</g>
			<g>
				<path class="st16" d="M172.12,104.19h-17.65c-0.36,0-0.65-0.34-0.65-0.76l0,0c0-0.42,0.29-0.76,0.65-0.76h17.65
					c0.36,0,0.65,0.34,0.65,0.76l0,0C172.77,103.85,172.48,104.19,172.12,104.19z"/>
			</g>
			<g>
				<path class="st16" d="M166.46,111.04H133.4c-0.36,0-0.65-0.34-0.65-0.76l0,0c0-0.42,0.29-0.76,0.65-0.76h33.07
					c0.36,0,0.65,0.34,0.65,0.76l0,0C167.11,110.7,166.82,111.04,166.46,111.04z"/>
			</g>
			<g>
				<path class="st16" d="M191.2,111.04h-19.98c-0.36,0-0.65-0.34-0.65-0.76l0,0c0-0.42,0.29-0.76,0.65-0.76h19.98
					c0.36,0,0.65,0.34,0.65,0.76l0,0C191.85,110.7,191.56,111.04,191.2,111.04z"/>
			</g>
			<g>
				<path class="st16" d="M142.31,117.89h-17.65c-0.36,0-0.65-0.34-0.65-0.76v0c0-0.42,0.29-0.76,0.65-0.76h17.65
					c0.36,0,0.65,0.34,0.65,0.76v0C142.96,117.55,142.67,117.89,142.31,117.89z"/>
			</g>
			<g>
				<g>
					<path class="st5" d="M163.67,117.89h-17.65c-0.36,0-0.65-0.34-0.65-0.76v0c0-0.42,0.29-0.76,0.65-0.76h17.65
						c0.36,0,0.65,0.34,0.65,0.76v0C164.32,117.55,164.03,117.89,163.67,117.89z"/>
				</g>
			</g>
			<g>
				<path class="st16" d="M165.37,124.74h-26.8c-0.36,0-0.65-0.34-0.65-0.76l0,0c0-0.42,0.29-0.76,0.65-0.76h26.8
					c0.36,0,0.65,0.34,0.65,0.76l0,0C166.02,124.4,165.73,124.74,165.37,124.74z"/>
			</g>
			<g>
				<g>
					<rect x="115.39" y="68.41" class="st16" width="1.3" height="1.53"/>
				</g>
				<g>
					<rect x="115.39" y="75.26" class="st16" width="1.3" height="1.53"/>
				</g>
				<g>
					<rect x="115.39" y="82.11" class="st16" width="1.3" height="1.53"/>
				</g>
				<g>
					<rect x="115.39" y="88.96" class="st16" width="1.3" height="1.53"/>
				</g>
				<g>
					<rect x="115.39" y="95.81" class="st16" width="1.3" height="1.53"/>
				</g>
				<g>
					<rect x="115.39" y="102.66" class="st16" width="1.3" height="1.53"/>
				</g>
				<g>
					<rect x="115.39" y="106.09" class="st16" width="1.3" height="1.53"/>
				</g>
				<g>
					<rect x="115.39" y="109.51" class="st16" width="1.3" height="1.53"/>
				</g>
				<g>
					<rect x="115.39" y="112.94" class="st16" width="1.3" height="1.53"/>
				</g>
				<g>
					<rect x="115.39" y="116.36" class="st16" width="1.3" height="1.53"/>
				</g>
				<g>
					<rect x="115.39" y="119.79" class="st16" width="1.3" height="1.53"/>
				</g>
				<g>
					<rect x="115.39" y="123.21" class="st16" width="1.3" height="1.53"/>
				</g>
				<g>
					<rect x="115.39" y="126.64" class="st16" width="1.3" height="1.53"/>
				</g>
			</g>
			<g>
				<g>
					<path class="st16" d="M184.37,127.86l-4.73-2.37c-0.15-0.07-0.24-0.24-0.24-0.43v-0.51c0-0.19,0.1-0.36,0.24-0.43l4.73-2.37
						c0.26-0.13,0.55,0.1,0.55,0.43v0.18c0,0.19-0.1,0.36-0.25,0.43l-3.25,1.57c-0.33,0.16-0.33,0.71,0,0.86l3.25,1.58
						c0.15,0.07,0.25,0.24,0.25,0.43v0.18C184.93,127.76,184.64,127.99,184.37,127.86z"/>
				</g>
				<g>
					<path class="st16" d="M188.67,120.42l-2.19,8.9c-0.05,0.2-0.2,0.34-0.38,0.34h0c-0.26,0-0.45-0.3-0.38-0.6l2.19-8.9
						c0.05-0.2,0.2-0.34,0.38-0.34l0,0C188.55,119.82,188.74,120.12,188.67,120.42z"/>
				</g>
				<g>
					<path class="st16" d="M194.74,125.49l-4.73,2.37c-0.26,0.13-0.55-0.1-0.55-0.43v-0.18c0-0.19,0.1-0.36,0.25-0.43l3.25-1.58
						c0.33-0.16,0.33-0.71,0-0.86l-3.25-1.57c-0.15-0.07-0.25-0.24-0.25-0.43v-0.18c0-0.33,0.29-0.56,0.55-0.43l4.73,2.37
						c0.15,0.07,0.24,0.24,0.24,0.43v0.51C194.98,125.25,194.89,125.42,194.74,125.49z"/>
				</g>
			</g>
		</g>
	</g>
	<g>
		<g>
			<defs>
				<path id="SVGID_4_" d="M124.03,183.02v11.36h3.74v-10.22C126.46,183.16,125.08,182.96,124.03,183.02z"/>
			</defs>
			<use xlink:href="#SVGID_4_"  style="overflow:visible;fill:#B0D8FF;"/>
			<clipPath id="SVGID_5_">
				<use xlink:href="#SVGID_4_"  style="overflow:visible;"/>
			</clipPath>
			<path class="st17" d="M123.16,185.16c0,0,3.23,0.57,5.08,4c1.85,3.44,3.38-0.4,3.02-1.97c-0.36-1.57-0.17-3.18-1.12-4.39
				c-0.95-1.21-2.77-2.93-5.25-2.27c-2.48,0.66-2.8,0.29-2.67,1.77c0.14,1.48,0.37,3.07,0.37,3.07"/>
		</g>
		<ellipse class="st18" cx="112.26" cy="212.24" rx="2.9" ry="3.2"/>
		<path class="st18" d="M128.97,215.11c0,1.77-1.3,3.2-2.9,3.2c-1.6,0-2.9-1.43-2.9-3.2c0-1.77,1.3-3.2,2.9-3.2
			C127.68,211.91,128.97,213.34,128.97,215.11z"/>
		<path class="st18" d="M142.64,212.24c0,1.77-1.3,3.2-2.9,3.2c-1.6,0-2.9-1.43-2.9-3.2c0-1.77,1.3-3.2,2.9-3.2
			C141.35,209.04,142.64,210.47,142.64,212.24z"/>
		<path class="st19" d="M123.34,194.32c0,0,2.53-1.03,5.21,0l0.07,3.62l13.15,10.84v2.58h-3.88l-0.05-1.98l-10.07-7.87l0.06,9.85
			l-0.5,2.31h-2.62l-0.48-2.29l-0.11-9.6l-10.01,7.51l-0.04,1.92l-3.6,0.02v-2.73l12.89-10.53v-2.17L123.34,194.32z"/>
	</g>
	<g>
		<defs>
			<path id="SVGID_6_" d="M132.72,127.19c0,0,4.28-1.52,10.64,0c6.36,1.52,10.16,7.85,10.38,12.97c0.21,5.12-2.09,36.6-10.51,44.56
				c-8.42,7.96-29.67,4.04-34.02,2.38c-4.34-1.66-7.55-8.2-7.55-8.2l21.77-15.48l1.16-33.22L132.72,127.19z"/>
		</defs>
		<use xlink:href="#SVGID_6_"  style="overflow:visible;fill:#006DFE;"/>
		<clipPath id="SVGID_7_">
			<use xlink:href="#SVGID_6_"  style="overflow:visible;"/>
		</clipPath>
		<path class="st20" d="M133.53,125.65c0,0,4.04,0.69,6.18,5.69s1.68,12.45,1.12,22.11c-0.56,9.66,2.21,9.9,2.52,16.63
			c0.32,6.73-1.27,13.07-10.14,16.08c-8.87,3.01-16.32,4.36-27.72,2.54l-8.47-9.67l4.12-18.85c0,0,7.67-7.7,8.63-13.47
			c0.96-5.77,8.4-20.17,11.41-22.28C124.19,122.33,133.53,125.65,133.53,125.65z"/>
	</g>
	<g>
		<defs>
			<path id="SVGID_8_" d="M118.53,125.57l-0.51-0.04c0,0-5.31,0.16-6.97,2.22c-1.66,2.06-2.81,11.72-2.81,11.72l3.29,24.75
				c0,0,1.98,3.48,12.04,3.48s14.02-4.12,14.02-4.12l-0.93-11.59c0,0,1.68-2.63,1.96-5.44c0.28-2.81-2.49-17.82-5.5-20
				c-3.01-2.18-9.66-1.23-9.66-1.23L118.53,125.57z"/>
		</defs>
		<use xlink:href="#SVGID_8_"  style="overflow:visible;fill:#FFAB00;"/>
		<clipPath id="SVGID_9_">
			<use xlink:href="#SVGID_8_"  style="overflow:visible;"/>
		</clipPath>
		<path class="st21" d="M130.13,130.24c0,0-1.39,1.62-0.87,4.59c0.51,2.97,2.69,7.13,1.86,8.71c-0.83,1.58-2.43,4.22-2.09,4.84
			c0.34,0.62,1.04,0.96,1.04,0.96l4.54,2.88c0,0,1.2,0.33,2.03-0.24c0.83-0.57,0,0,0,0l0.56,0.16l-13.34,7.19l-1.53-2.22
			c0,0,4.85-5.25,5.29-7.03c0.44-1.78,0.12-1.91,1.11-3.69c0.99-1.78,1.98-2.92,1.35-4.88c-0.63-1.96-1.8-5.15-1.56-7.03
			C128.74,132.61,128.88,131.45,130.13,130.24z"/>
		<path class="st21" d="M112.55,130.47c0,0-0.83,3.5,0.05,7.77c0.88,4.27,3.16,15.3,3.16,15.3l0.54-0.28
			C116.29,153.26,112.55,134.44,112.55,130.47z"/>
	</g>
	<path class="st22" d="M100.5,211.11c0,0-0.32,2.55-0.31,4.6c0.01,2.05,1.4,3.68,0.69,5.6c-0.71,1.92-6.56,1.98-10.73,2.48
		c-4.17,0.49-7.86-0.4-7.32-3.53c0.53-3.13,7.3-1.9,9.96-5.79c2.65-3.89,1.86-4.53,1.86-4.53L100.5,211.11z"/>
	<path class="st22" d="M122.83,213.08c0,0-0.32,2.55-0.31,4.6c0.01,2.05,1.4,3.68,0.69,5.6c-0.71,1.92-6.56,1.98-10.73,2.48
		c-4.17,0.49-7.86-0.4-7.32-3.53s7.3-1.9,9.96-5.79c2.65-3.89,1.86-4.53,1.86-4.53L122.83,213.08z"/>
	<g>
		<defs>
			<path id="SVGID_10_" d="M112.12,163.77l-0.61,0.45c0,0-18.08,5.83-19.77,11.33c-1.69,5.49,1,36.99,1,36.99s4.91,3.88,9.27-0.4
				l0.36-29.42l18.28-6.77l5.28,0.16c0,0,6.34-4.51,6.73-4.83c0.4-0.32,5.39-3.88,5.39-3.88l-3.09-5.07L112.12,163.77z"/>
		</defs>
		<use xlink:href="#SVGID_10_"  style="overflow:visible;fill:#1E2889;"/>
		<clipPath id="SVGID_11_">
			<use xlink:href="#SVGID_10_"  style="overflow:visible;"/>
		</clipPath>
		<path class="st23" d="M91.19,172.27c0,0,7.34,1.66,8.69,10.74c1.35,9.09,2.93,15.79,2.93,15.79l3.74-13.36l13.05-7l8.1-6.38
			l4.09-9.41l-6.5-3.42l-19.72,1.66l-10.38,5.39L91.19,172.27z"/>
	</g>
	<g>
		<defs>
			<path id="SVGID_12_" d="M124.98,166.67c0,0-9.56,8.16-10.36,14.18c-0.8,6.02,0,32.55,0,32.55s6.17,4.12,10.36,0
				c0,0-1.74-24.24,1.98-28.35c3.72-4.12,10.3-7.84,11.09-13.94c0.79-6.1-0.48-7.52-0.48-7.52l-6.35-1.03L124.98,166.67z"/>
		</defs>
		<use xlink:href="#SVGID_12_"  style="overflow:visible;fill:#1E2889;"/>
		<clipPath id="SVGID_13_">
			<use xlink:href="#SVGID_12_"  style="overflow:visible;"/>
		</clipPath>
		<path class="st24" d="M112.94,193.04c0.24-0.71,3.56-14.24,17.34-11.1s0,0,0,0l4.33-2.07c0,0,5.67-4.7,6.08-5.28
			c0.41-0.58,0.06-5.39,0.13-6.02c0.07-0.63,0-7.66,0-7.66l-27.28-0.63l0.37,9.77l-0.98,14.89V193.04z"/>
	</g>
	<path class="st18" d="M49.98,227.2v-63.33c0-0.25,0.2-0.45,0.45-0.45h1.24c0.25,0,0.45,0.2,0.45,0.45v63.33
		c0,0.25-0.2,0.45-0.45,0.45h-1.24C50.18,227.65,49.98,227.45,49.98,227.2z"/>
	<path class="st18" d="M155.16,227.2v-63.33c0-0.25,0.2-0.45,0.45-0.45h1.24c0.25,0,0.45,0.2,0.45,0.45v63.33
		c0,0.25-0.2,0.45-0.45,0.45h-1.24C155.36,227.65,155.16,227.45,155.16,227.2z"/>
	<path class="st18" d="M76.27,219.41l-3.9-56.39c-0.02-0.24,0.16-0.44,0.4-0.46l1.28-0.09c0.24-0.02,0.44,0.16,0.46,0.4l3.9,56.39
		c0.02,0.24-0.16,0.44-0.4,0.46l-1.28,0.09C76.49,219.83,76.28,219.65,76.27,219.41z"/>
	<path class="st18" d="M178.05,219.41l-3.9-56.39c-0.02-0.24,0.16-0.44,0.4-0.46l1.28-0.09c0.24-0.02,0.44,0.16,0.46,0.4l3.9,56.39
		c0.02,0.24-0.16,0.44-0.4,0.46l-1.28,0.09C178.27,219.83,178.06,219.65,178.05,219.41z"/>
	<path class="st19" d="M179.26,165.56H46.63c-0.51,0-0.92-0.41-0.92-0.92v-2.43c0-0.51,0.41-0.92,0.92-0.92h132.63
		c0.51,0,0.92,0.41,0.92,0.92v2.43C180.18,165.15,179.77,165.56,179.26,165.56z"/>
	<rect x="142.62" y="151.19" class="st22" width="27.76" height="3.37"/>
	<rect x="143.35" y="154.55" class="st5" width="27.76" height="3.37"/>
	<rect x="142.01" y="157.92" class="st25" width="27.76" height="3.37"/>
	<g>
		<g>
			<path class="st26" d="M76.53,119.66l1.51,2.06c0.69-1.47,2.14-2.13,3.05-2.41l-2.09-1.59c0,0-0.36-0.02-0.81,0.13
				c-0.56,0.18-1.27,0.62-1.62,1.66C76.56,119.57,76.54,119.61,76.53,119.66z"/>
			<path class="st27" d="M55.85,137.15c0,0.97,0.68,1.78,1.58,1.99c0.15,0.03,0.3,0.05,0.46,0.05c0.14,0,0.27-0.01,0.4-0.04
				c0.94-0.18,1.64-1.01,1.64-2c0-0.37-0.1-0.71-0.27-1.01c-0.14-0.25-0.33-0.46-0.56-0.63c-0.34-0.25-0.76-0.4-1.21-0.4
				C56.76,135.12,55.85,136.03,55.85,137.15z"/>
			<path class="st27" d="M74.15,117.52c0,0.4,0.12,0.77,0.32,1.09c0.15,0.24,0.35,0.44,0.58,0.6c0.33,0.22,0.72,0.35,1.14,0.35
				c0.13,0,0.26-0.01,0.39-0.04c0.35-1.04,1.06-1.47,1.62-1.66c0.02-0.11,0.03-0.23,0.03-0.34c0-1.13-0.91-2.04-2.04-2.04
				C75.06,115.48,74.15,116.39,74.15,117.52z"/>
			<path class="st26" d="M59.09,135.51c0.23,0.17,0.42,0.38,0.56,0.63l8.75-9.63l1.83-2.01l2.7-2.97l2.11-2.33
				c-0.23-0.16-0.43-0.36-0.58-0.6l-2.53,2.78l-1.78,1.96l-1.87,2.06L59.09,135.51z"/>
			<path class="st27" d="M54.78,159.59v-0.04c6.77-2.5,12.49-0.21,12.95-0.01C66.36,159.9,61.31,161.01,54.78,159.59z"/>
			<path class="st26" d="M57.43,139.14l3.04,17.44l0.41,2.32l0.04,0.24l0.82-0.15l-0.02-0.09l-0.42-2.38l-3.03-17.37
				c-0.13,0.03-0.26,0.04-0.4,0.04C57.73,139.19,57.57,139.17,57.43,139.14z"/>
			<g>
				<path class="st27" d="M77.74,122.76l2.06,4.63l0.36,0.8l3.12-2.65l2.82-2.61l1.69-1.56l-0.57-0.5l0,0l-0.02-0.01l-0.02-0.01
					l-5.2-2.21c0,0-0.33,0.04-0.81,0.19c-0.91,0.28-2.36,0.94-3.05,2.41c-0.08,0.16-0.14,0.34-0.2,0.52
					C77.83,122.07,77.77,122.4,77.74,122.76z"/>
				<path class="st28" d="M85.61,126.51c2.06-1.94,2.97-4.33,2.02-5.33c-0.95-1.01-3.38-0.25-5.45,1.69
					c-2.06,1.94-2.97,4.33-2.02,5.33C81.11,129.2,83.55,128.45,85.61,126.51z"/>
			</g>
		</g>
		<rect x="54.78" y="159.59" class="st28" width="12.95" height="1.69"/>
	</g>
	<g>
		<path class="st18" d="M187.4,202.18c0,0.15-0.03,0.29-0.09,0.44c-0.65,1.66-4.95,2.94-10.15,2.94c-5.26,0-9.6-1.31-10.17-3
			l-0.06-0.38c0-1.87,4.58-3.38,10.23-3.38C182.82,198.8,187.4,200.31,187.4,202.18z"/>
		<path class="st19" d="M187.31,202.62l-3.53,20.78c-6.43,3.66-13.24,0-13.24,0l-3.55-20.84c0.57,1.69,4.91,3,10.17,3
			C182.36,205.56,186.66,204.28,187.31,202.62L187.31,202.62z"/>
	</g>
	<g>
		<defs>
			<path id="SVGID_14_" d="M117.86,120.22c0,0,0.86,1.82,0.15,5.31c0,0,0.55,1.7,2.49,1.66c1.94-0.04,2.93-1.87,2.93-1.87
				s-0.92-1.49-0.54-4.64l0.03-1.17l-2.46-1.66L117.86,120.22z"/>
		</defs>
		<use xlink:href="#SVGID_14_"  style="overflow:visible;fill:#FFACA6;"/>
		<clipPath id="SVGID_15_">
			<use xlink:href="#SVGID_14_"  style="overflow:visible;"/>
		</clipPath>
		<path class="st29" d="M117.75,122.52c0,0,3.41-0.67,6.36,1.65c0,0,0.2-5.02,0.33-5.19c0.13-0.17-5.48-2.68-5.48-2.68
			s-1.98,1.18-2.03,2.12C116.88,119.36,117.75,122.52,117.75,122.52z"/>
	</g>
	<g>
		<defs>
			<path id="SVGID_16_" d="M112.28,110.65c0,0-5.04-0.18-2.22-10.34c0,0,2.58,1.95,7.18,2.21c4.59,0.26,9.72,0.16,10.35,8.34
				c0.26,5.28-4.7,9.82-4.7,9.82l-4.49-2.85L112.28,110.65z"/>
		</defs>
		<use xlink:href="#SVGID_16_"  style="overflow:visible;fill:#1E2889;"/>
		<clipPath id="SVGID_17_">
			<use xlink:href="#SVGID_16_"  style="overflow:visible;"/>
		</clipPath>
		<path class="st30" d="M108.63,107.15c0,0,0.08,0.59,2.3,0c2.22-0.59,5.03-1.52,8.71,0.87c3.68,2.38,5.05,7.33,7.97,6.74
			l-2.19,4.67l-4.77,3.09c0,0-7.6-2.2-7.89-3.03c-0.29-0.83-2.47-5.94-2.78-6.72c-0.32-0.79-0.77-2.73-0.77-2.73L108.63,107.15z"/>
	</g>
	<g>
		<defs>
			<path id="SVGID_18_" d="M112.07,109.36c0,0-1.37,11.51,2.85,12.17c4.22,0.66,7.02-4.17,7.02-4.17s2.11-0.26,1.9-2.51
				s-1.87-1.4-1.87-1.4s-1.87-0.82-1.85-2.8c0,0-2.27,0.53-3.3-1.56c0,0-1.72,1.19-3.46-0.63
				C113.36,108.46,112.92,109.54,112.07,109.36z"/>
		</defs>
		<use xlink:href="#SVGID_18_"  style="overflow:visible;fill:#FFACA6;"/>
		<clipPath id="SVGID_19_">
			<use xlink:href="#SVGID_18_"  style="overflow:visible;"/>
		</clipPath>
		<path class="st31" d="M111.28,110.85c0,0,2.65,0.22,5.21,0.77c2.55,0.55,3.9,4.28,6.61,3.82c2.71-0.46,1.54-1.93,1.54-1.93
			l-2.53-3.44l-5.92-1.92l-3.58-0.59l-1.47,1.19L111.28,110.85z"/>
	</g>
	<path class="st32" d="M130.08,149.35c0,0-4.34,4.57-7.63,5.73c-3.3,1.16-4.88-0.01-6.2,2.66l-0.26,0.56c0,0,4.75,1.53,8.18-0.16
		l10.45-5.91L130.08,149.35z"/>
	<g>
		<rect x="91.19" y="158.43" class="st33" width="39.1" height="2.85"/>
		<polygon class="st0" points="119.9,161.28 85.84,161.28 80.92,137.42 114.97,137.42 		"/>
		<polygon class="st33" points="117.35,161.28 83.29,161.28 78.37,137.42 112.42,137.42 		"/>
	</g>
	<rect x="179.77" y="148.73" class="st6" width="16.97" height="7.5"/>
	<rect x="186.63" y="156.24" class="st4" width="16.97" height="7.5"/>
	
		<ellipse transform="matrix(0.9901 -0.1403 0.1403 0.9901 -19.7265 15.0021)" class="st1" cx="96.5" cy="147.36" rx="3.21" ry="3.53"/>
</g>
</svg>
