<svg xmlns="http://www.w3.org/2000/svg" width="926" height="212">
 <defs>
  <linearGradient x1="50%" y1="-35.249%" x2="50%" y2="59.598%" id="a">
   <stop stop-color="#33FFAB" offset="0%"/>
   <stop stop-color="#33FFB8" stop-opacity="0" offset="100%"/>
  </linearGradient>
  <linearGradient x1="50%" y1="-6.556%" x2="50%" y2="81.493%" id="b">
   <stop stop-color="#33FFAB" offset="0%"/>
   <stop stop-color="#33FFB8" stop-opacity="0" offset="100%"/>
  </linearGradient>
  <linearGradient x1="50%" y1="-15.543%" x2="50%" y2="71.695%" id="c">
   <stop stop-color="#33FFAB" offset="0%"/>
   <stop stop-color="#33FFB8" stop-opacity="0" offset="100%"/>
  </linearGradient>
 </defs>
 <g>
  <title>background</title>
  <rect x="-1" y="-1" width="928" height="214" id="canvas_background" fill="none"/>
 </g>
 <g>
  <title>Layer 1</title>
  <g fill="none" fill-rule="evenodd" id="svg_1">
   <path d="m69.163,210.374c12.863,-15.788 22.797,-43.727 58.652,-43.647c35.856,0.08 29.788,32.501 66.304,32.501c36.515,0 57.264,-61.3 86.202,-61.3c28.937,0 27.882,51.186 56.311,51.186c28.43,0 35.945,-77.196 62.842,-77.196s54.05,75.034 87.462,75.034c33.412,0 49.085,-40.615 73.01,-40.615c25.842,0 27.22,23.744 44.63,20.39c17.408,-3.355 12.058,-93.863 44.178,-93.863c32.119,0 28.324,98.958 58.948,98.958c30.623,0 35.8,-28.934 67.44,-28.934s66.31,46.947 107.537,46.947c41.226,0 44.875,-14.187 71.41,-14.187c26.536,0 61.6,20.5 61.6,33.84l0,32.988l-949.59,0c-6.533,-10.876 -5.511,-21.576 3.064,-32.102z" fill="url(#a)" id="svg_2"/>
   <path d="m-8.837,223.374c15.198,-29.152 34.749,-43.7 58.652,-43.647c35.856,0.08 28.789,24.501 67.304,24.501c38.515,0 52.69,-82.562 107.07,-82.562c54.38,0 51.075,58.06 79.504,58.06c28.43,0 19.822,-54.865 53.53,-54.865c33.707,0 30.013,26.067 48.824,26.067c18.811,0 23.95,-57.241 48.68,-57.241c37.07,0 29.324,92.055 72.628,92.055c43.303,0 49.175,-123.589 85.635,-123.589c36.459,0 31.828,133.621 53.682,133.621c21.853,0 36.94,-78.856 63.779,-78.856c26.838,0 33.001,85.917 74.228,85.917c41.226,0 52.875,-39.187 79.41,-39.187c26.536,0 53.6,45.5 53.6,58.84l0,32.988l-949.59,0l3.064,-32.102z" fill="url(#b)" id="svg_3"/>
   <path d="m-60.837,208.374c15.198,-29.152 52.749,39.3 77.652,-19.647c35.856,0.08 -2.212,17.501 34.304,17.501c36.515,0 67.132,-73.216 121.07,-66.216c53.938,7 47.47,37.947 75.9,37.947c28.429,0 34.739,-113.284 61.636,-113.284c26.897,0 30.567,100.74 47.695,100.74c17.127,0 18.306,-21.962 38.831,-22.592c39.89,-1.225 35.218,44.29 78.522,44.29s55.727,-80.447 82.818,-80.447c27.09,0 35.227,74.108 57.08,74.108c21.854,0 41.369,-44.846 63.78,-44.846c22.41,0 33.001,51.907 74.228,51.907c41.226,0 44.875,-14.187 71.41,-14.187c26.536,0 61.6,20.5 61.6,33.84l0,32.988l-949.59,0l3.064,-32.102z" fill="url(#c)" id="svg_4"/>
  </g>
 </g>
</svg>