<svg t="1569404301188" class="icon" viewBox="0 0 1425 1024" version="1.1" xmlns="http://www.w3.org/2000/svg" p-id="70939" width="512" height="512"><path d="M1147.857825 981.08435c85.8313-97.239257 137.981963-225.171353 137.981963-365.054642 0-305.027056-247.172414-552.199469-552.19947-552.199469s-552.199469 247.172414-552.199469 552.199469c0 139.883289 52.150663 267.815385 137.981963 365.054642h828.435013z" fill="#EEF4FF" p-id="70940"></path><path d="M1070.98992 981.08435c69.805836-79.312467 112.449867-183.342175 112.449868-297.150132 0-248.258886-201.268966-449.527851-449.527852-449.527852s-449.527851 201.268966-449.527851 449.527852c0 114.079576 42.372414 218.109284 112.449867 297.150132h674.155968z" fill="#DCE7F9" p-id="70941"></path><path d="M797.81008 615.114355l40.998026 47.49513-23.030493 19.879725-40.995311-47.497847z" fill="#789EC4" p-id="70942"></path><path d="M800.719109 612.696955l40.99531 47.497846-23.027777 19.877008-40.998027-47.497846z" fill="#7DB1DB" p-id="70943"></path><path d="M842.015915 349.844032c66.818037 93.708223 44.816976 223.813263-48.891247 290.359682s-223.813263 44.816976-290.359681-48.891247c110.276923-78.497613 287.643501-204.8 339.250928-241.468435z" fill="#89B9E8" p-id="70944"></path><path d="M832.509284 368.585676c63.830239 89.90557 35.581963 222.72679-35.581963 267.272149-81.485411 51.064191-183.885411 24.174005-247.71565-65.731565 92.078515-65.731565 240.110345-170.847745 283.297613-201.540584z" fill="#95C3E8" p-id="70945"></path><path d="M551.656233 500.320424c23.630769-23.630769 54.595225-49.162865 89.633953-73.608488 93.979841-64.645093 184.428647-96.424403 202.083819-70.892307s-44.27374 98.868966-138.253581 163.514058-184.428647 96.424403-202.083819 70.892308c-10.321485-14.938992 6.247215-45.903448 40.471087-81.757029" fill="#B0D3F4" p-id="70946"></path><path d="M691.811141 526.124138l-89.905571-133.364456 3.259417-4.889125 118.153846 118.153846z" fill="#76AEDD" p-id="70947"></path><path d="M695.070557 523.407958l-91.26366-131.46313 1.35809-1.901327 114.894429 117.882228z" fill="#81C0EA" p-id="70948"></path><path d="M525.85252 602.448806c-12.222812 0-21.186207-3.259416-25.803714-9.778249-11.679576-16.840318 6.247215-51.064191 49.162865-93.708223 1.086472-1.086472 2.71618-1.086472 3.802653 0 1.086472 1.086472 1.086472 2.71618 0 3.802653-39.656233 39.384615-58.12626 72.793634-48.348011 86.917772 14.667374 21.186207 98.054111-2.444562 198.824403-71.97878 45.360212-31.236074 84.744828-65.459947 110.820159-96.152785 24.988859-29.606366 34.767109-52.693899 27.161804-63.830239-16.025464-23.359151-105.11618 8.148541-194.478515 68.990981-1.35809 0.814854-2.987798 0.543236-3.802652-0.814854-0.814854-1.35809-0.543236-2.987798 0.814854-3.802652 45.088594-30.692838 90.448806-54.595225 128.203714-67.632892 27.433422-9.506631 62.200531-17.111936 74.151724 0 9.235013 13.580902-0.543236 38.569761-27.433422 70.62069-26.34695 31.236074-66.003183 65.731565-111.906631 97.239257-73.608488 49.977719-143.414324 80.127321-181.169231 80.127321z" fill="#70A8D6" p-id="70949"></path><path d="M602.448806 387.598939m-20.914588 0a20.914589 20.914589 0 1 0 41.829177 0 20.914589 20.914589 0 1 0-41.829177 0Z" fill="#89B9E8" p-id="70950"></path><path d="M602.720424 384.611141m-17.655172 0a17.655172 17.655172 0 1 0 35.310345 0 17.655172 17.655172 0 1 0-35.310345 0Z" fill="#95C3E8" p-id="70951"></path><path d="M601.633952 379.722016m-12.766047 0a12.766048 12.766048 0 1 0 25.532095 0 12.766048 12.766048 0 1 0-25.532095 0Z" fill="#A0CCEA" p-id="70952"></path><path d="M569.039788 282.211141h0.814854c4.074271-0.814854 7.876923-1.086472 11.951194-1.358091 2.172944 0 4.074271-1.901326 4.07427-4.07427s-1.901326-4.074271-4.07427-4.074271c-4.345889 0-8.691777 0.543236-13.309284 1.35809-2.172944 0.543236-3.802653 2.444562-3.259417 4.889125 0.271618 1.901326 1.901326 3.259416 3.802653 3.259417zM554.644032 286.285411c0.543236 0 1.086472 0 1.35809-0.271618 1.35809-0.543236 2.71618-1.086472 4.074271-1.35809 2.172944-0.814854 3.259416-2.987798 2.71618-5.160743s-2.987798-3.259416-5.160743-2.71618c-1.35809 0.543236-2.987798 1.086472-4.345888 1.629708-2.172944 0.814854-3.259416 3.259416-2.444563 5.160743 0.814854 1.629708 2.172944 2.71618 3.802653 2.71618zM547.853581 289.544828c1.901326-1.086472 2.71618-3.531034 1.901326-5.432361-1.086472-1.901326-3.531034-2.71618-5.432361-1.901326-6.247215 3.259416-12.49443 7.062069-17.92679 11.679575-7.333687 5.975597-13.580902 12.766048-18.741645 20.099735-1.086472 1.35809-1.901326 2.987798-2.987798 4.345889-4.889125 8.148541-8.420159 16.5687-10.593103 25.260477-0.543236 2.172944 0.814854 4.345889 2.987798 4.889125h0.814854c1.901326 0 3.531034-1.35809 4.074271-3.259417 1.901326-7.876923 5.160743-15.753846 9.506631-23.087533 0.814854-1.35809 1.629708-2.71618 2.71618-4.074271 4.889125-6.790451 10.593103-13.037666 17.383555-18.470026 4.889125-3.531034 10.321485-7.062069 16.297082-10.049867zM582.349072 311.002653c2.172944-0.271618 3.802653-2.444562 3.259416-4.617507-0.271618-2.172944-2.444562-3.802653-4.617507-3.259417-13.037666 2.172944-24.717241 7.333687-34.767108 15.482229-10.049867 8.148541-17.655172 18.470027-22.544297 30.964456-0.814854 2.172944 0.271618 4.345889 2.172944 5.160742 0.543236 0.271618 1.086472 0.271618 1.35809 0.271619 1.629708 0 3.259416-1.086472 3.802653-2.716181 4.345889-10.864721 11.13634-20.099735 20.099734-27.433422 9.235013-7.062069 19.556499-11.679576 31.236075-13.852519zM591.584085 333.818568c-0.543236-2.172944-2.71618-3.531034-4.889125-2.987799-8.148541 2.172944-15.21061 5.703979-21.457825 10.864722-6.247215 5.160743-11.407958 11.679576-15.21061 19.28488-1.086472 1.901326-0.271618 4.345889 1.901326 5.432361 0.543236 0.271618 1.086472 0.543236 1.901327 0.543236 1.629708 0 2.987798-0.814854 3.531034-2.172944 3.259416-6.518833 7.605305-12.222812 13.037666-16.5687 5.432361-4.345889 11.407958-7.333687 18.470027-9.235014 1.901326-0.814854 3.259416-2.987798 2.71618-5.160742z" fill="#70A8D6" p-id="70953"></path><path d="M1244.553846 950.66313c-6.790451 19.828117-21.457825 31.77931-47.533156 32.865782-253.691247 9.506631-222.183554 2.71618-196.108223-67.904509 5.160743-13.85252 95.609549-27.433422 108.647215-32.050928 8.963395-2.987798 96.967639 4.617507 106.47427 7.876923 23.359151 8.148541 36.396817 35.853581 28.519894 59.212732z" fill="#73D89C" p-id="70954"></path><path d="M1191.588329 986.516711c-2.172944 0-4.074271 0-6.247215-0.271618-1.629708 0-2.71618-1.35809-2.444562-2.987799 0-1.629708 1.35809-2.71618 2.987798-2.444562 27.433422 1.901326 49.434483-10.049867 56.224934-30.964456 7.333687-22.544297-5.160743-48.619629-26.890186-55.681698-6.247215-1.901326-12.49443-2.71618-19.013262-1.901326-1.629708 0.271618-2.987798-0.814854-2.987799-2.444562s0.814854-2.987798 2.444562-2.987799c7.333687-1.086472 14.395756-0.271618 21.186207 1.901327 24.445623 8.148541 38.841379 37.211671 30.421221 62.472148-7.333687 22.001061-28.791512 35.310345-55.681698 35.310345z" fill="#71BC8F" p-id="70955"></path><path d="M1154.228151 911.499057a45.63183 45.63183 0 1 0 32.235567-85.381051 45.63183 45.63183 0 1 0-32.235567 85.381051Z" fill="#73D89C" p-id="70956"></path><path d="M1215.490716 876.239788c0 2.71618-0.271618 5.703979-1.086472 8.420159-0.814854 2.71618-1.901326 5.432361-3.259416 7.876923-1.35809 2.444562-2.987798 4.889125-5.160743 6.790451-1.901326 2.172944-4.345889 3.802653-6.790451 5.160743 1.629708-2.172944 3.531034-4.345889 5.160743-6.518833 1.629708-2.172944 2.987798-4.345889 4.345888-6.790451 2.71618-4.889125 4.889125-9.778249 6.790451-14.938992z" fill="#58BC81" p-id="70957"></path><path d="M1211.144828 892.265252c-0.543236 0-0.814854 0-1.358091-0.271618-1.35809-0.814854-1.901326-2.444562-1.086472-3.531035 0.814854-1.35809 1.35809-2.987798 1.901327-4.345888 5.160743-13.85252 2.987798-29.06313-5.703979-41.014324-0.814854-1.086472-0.543236-2.987798 0.543236-3.802652 1.086472-0.814854 2.987798-0.543236 3.802652 0.543236 10.049867 13.309284 12.49443 30.692838 6.518833 46.175066-0.543236 1.629708-1.35809 3.259416-2.172944 4.889125-0.543236 0.814854-1.35809 1.35809-2.444562 1.35809zM1127.75809 855.325199c-0.271618 0-0.543236 0-1.086472-0.271618-1.35809-0.543236-2.172944-2.172944-1.629708-3.531035 4.617507-12.222812 13.580902-21.729443 25.260477-27.161803 11.679576-5.432361 24.988859-5.703979 37.211671-1.086472 5.975597 2.172944 11.13634 5.432361 15.753847 9.778249 1.086472 1.086472 1.086472 2.71618 0.271618 3.802652-1.086472 1.086472-2.71618 1.086472-3.802653 0.271618-4.074271-3.802653-8.691777-6.790451-14.124138-8.691777-10.864721-4.074271-22.544297-3.802653-32.865782 1.086472-10.593103 4.617507-18.470027 13.309284-22.544297 23.902388-0.543236 1.086472-1.35809 1.901326-2.444563 1.901326z" fill="#71BC8F" p-id="70958"></path><path d="M979.142968 904.503244a79.040849 79.040849 0 1 0 144.708435-63.634049 79.040849 79.040849 0 1 0-144.708435 63.634049Z" fill="#73D89C" p-id="70959"></path><path d="M1103.312467 812.137931c7.605305 5.703979 13.85252 13.309284 18.470026 21.457825 4.617507 8.420159 7.876923 17.655172 9.235014 27.433422 1.086472 9.506631 1.086472 19.556499-1.629709 28.791512-0.814854 4.617507-2.987798 9.235013-4.617506 13.580902l-0.814854 1.629708-0.814854 1.629708c-0.543236 1.086472-1.086472 2.172944-1.901327 2.987798-1.086472 2.172944-2.444562 4.074271-3.802652 5.975597 0.543236-2.444562 1.086472-4.617507 1.629708-6.790451 0.543236-2.172944 1.35809-4.345889 1.629708-6.790451l1.35809-6.790451c0.543236-2.172944 0.814854-4.345889 0.814855-6.790451 1.086472-8.963395 0.814854-17.92679-0.271619-26.618567-0.271618-2.172944-0.543236-4.345889-1.086472-6.518833l-1.35809-6.518833-1.901326-6.518833-2.172944-6.247215c-3.531034-7.876923-7.876923-16.025464-12.766048-23.902387z" fill="#62BF88" p-id="70960"></path><path d="M1031.605305 952.836074h-0.543236c-8.420159-2.172944-16.297082-5.432361-23.359151-9.778249-2.987798-1.901326-5.703979-3.802653-8.420159-5.975597-1.086472-0.814854-1.35809-2.71618-0.271618-3.802652 0.814854-1.086472 2.71618-1.35809 3.802652-0.271618 2.444562 2.172944 5.160743 4.074271 7.876923 5.703978 6.790451 4.074271 14.124138 7.333687 22.001061 9.235014 1.35809 0.271618 2.444562 1.901326 1.901326 3.259416-0.543236 0.814854-1.629708 1.629708-2.987798 1.629708zM990.319363 927.032361c-0.814854 0-1.629708-0.271618-2.172944-1.086472-16.840318-20.099735-23.359151-46.98992-17.111936-72.522016 6.518833-26.890186 26.34695-48.619629 52.422281-57.583024 1.35809-0.543236 2.987798 0.271618 3.531034 1.629708 0.543236 1.35809-0.271618 2.987798-1.629708 3.531035-24.445623 8.420159-42.91565 28.791512-49.162865 53.780371-5.975597 23.630769 0 49.162865 16.025465 67.632891 1.086472 1.086472 0.814854 2.987798-0.271618 3.802653-0.271618 0.814854-1.086472 0.814854-1.629709 0.814854zM1035.407958 798.285411c-1.35809 0-2.444562-0.814854-2.716181-2.172944-0.271618-1.35809 0.543236-2.987798 2.172944-3.259417 6.247215-1.35809 12.49443-1.629708 19.013263-1.35809 1.629708 0 2.71618 1.35809 2.71618 2.716181s-1.35809 2.71618-2.71618 2.71618c-5.975597-0.271618-11.951194 0.271618-17.655172 1.35809h-0.814854zM1127.214854 856.140053c-1.086472 0-2.444562-0.814854-2.71618-1.901326-7.062069-27.161804-28.519894-48.348011-55.681698-55.138462-1.35809-0.271618-2.444562-1.901326-1.901326-3.259416s1.901326-2.444562 3.259416-1.901326c29.334748 7.333687 52.150663 29.877984 59.755968 58.941114 0.271618 1.35809-0.543236 2.987798-1.901326 3.259416h-0.814854z" fill="#71BC8F" p-id="70961"></path><path d="M944.173341 956.640834a50.792573 50.792573 0 1 0 89.608481-47.852503 50.792573 50.792573 0 1 0-89.608481 47.852503Z" fill="#73D89C" p-id="70962"></path><path d="M829.793103 663.562865L685.563926 812.137931h293.890716z" fill="#8FADD1" p-id="70963"></path><path d="M832.780902 670.353316l-143.95756 148.575066h293.619098z" fill="#89B9E8" p-id="70964"></path><path d="M829.521485 670.624934m-27.161803 0a27.161804 27.161804 0 1 0 54.323607 0 27.161804 27.161804 0 1 0-54.323607 0Z" fill="#89B9E8" p-id="70965"></path><path d="M561.434483 830.064721h483.480106v151.291247h-483.480106z" fill="#A0BAE0" p-id="70966"></path><path d="M1044.914589 978.639788h-483.480106v-7.876923l483.480106-13.580902z" fill="#6E96B7" p-id="70967"></path><path d="M627.166048 925.674271m-55.681698 0a55.681698 55.681698 0 1 0 111.363395 0 55.681698 55.681698 0 1 0-111.363395 0Z" fill="#84A8C1" p-id="70968"></path><path d="M602.177188 874.881698m-44.816976 0a44.816976 44.816976 0 1 0 89.633952 0 44.816976 44.816976 0 1 0-89.633952 0Z" fill="#84A8C1" p-id="70969"></path><path d="M897.425995 943.601061H812.137931c-4.889125 0-8.963395-4.074271-8.963395-8.963395 0-4.889125 4.074271-8.963395 8.963395-8.963395h85.288064c4.889125 0 8.963395 4.074271 8.963395 8.963395 0 5.160743-4.074271 8.963395-8.963395 8.963395zM739.615915 860.75756h-65.731565c-2.444562 0-4.345889-1.901326-4.345888-4.345889 0-2.444562 1.901326-4.345889 4.345888-4.345889h65.731565c2.444562 0 4.345889 1.901326 4.345889 4.345889 0 2.444562-1.901326 4.345889-4.345889 4.345889zM1009.332626 875.153316H915.352785c-4.889125 0-8.963395-4.074271-8.963395-8.963396 0-4.889125 4.074271-8.963395 8.963395-8.963395h93.979841c4.889125 0 8.963395 4.074271 8.963395 8.963395 0 4.889125-4.074271 8.963395-8.963395 8.963396z" fill="#8FADD1" p-id="70970"></path><path d="M988.146419 931.106631h-44.545358c-3.259416 0-5.703979-2.71618-5.703979-5.703978 0-3.259416 2.71618-5.703979 5.703979-5.703979h44.545358c3.259416 0 5.703979 2.71618 5.703979 5.703979 0.271618 2.987798-2.444562 5.703979-5.703979 5.703978zM834.138992 899.598939h-80.398939c-3.259416 0-6.247215-2.71618-6.247215-6.247215 0-3.259416 2.71618-6.247215 6.247215-6.247215h80.398939c3.259416 0 6.247215 2.71618 6.247215 6.247215 0 3.259416-2.71618 6.247215-6.247215 6.247215z" fill="#AEC7E5" p-id="70971"></path><path d="M735.813263 951.477984h-20.371353c-2.172944 0-3.802653-1.629708-3.802653-3.802652 0-2.172944 1.629708-3.802653 3.802653-3.802653h20.371353c2.172944 0 3.802653 1.629708 3.802652 3.802653 0 2.172944-1.629708 3.802653-3.802652 3.802652zM1001.998939 830.064721H650.253581c-10.593103 0-19.013263-8.420159-19.013263-19.013262v-2.71618c0-10.593103 8.420159-19.013263 19.013263-19.013263h351.745358c10.593103 0 19.013263 8.420159 19.013263 19.013263v2.71618c0 10.321485-8.420159 19.013263-19.013263 19.013262z" fill="#8FADD1" p-id="70972"></path><path d="M1005.529973 822.187798H646.450928c-8.420159 0-15.482228-6.790451-15.482228-15.482228v-2.172944c0-8.420159 6.790451-15.482228 15.482228-15.482228h359.079045c8.420159 0 15.482228 6.790451 15.482229 15.482228v2.172944c0 8.420159-6.790451 15.482228-15.482229 15.482228z" fill="#9CBDE5" p-id="70973"></path><path d="M651.068435 935.724138c-9.235013 27.433422-29.877984 44.002122-65.731565 45.360212-350.11565 13.309284-306.656764 3.531034-270.531565-93.708223 7.062069-19.013263 131.734748-38.026525 149.661539-44.002122 12.222812-4.074271 133.636074 6.518833 146.945358 10.864722 32.865782 10.864721 50.792573 49.162865 39.656233 81.485411z" fill="#9CE2BA" p-id="70974"></path><path d="M578.003183 984.072149c-2.71618 0-5.703979 0-8.420159-0.271618-1.629708 0-2.71618-1.35809-2.444562-2.987799 0-1.629708 1.35809-2.71618 2.987798-2.444562 38.026525 2.71618 68.990981-14.124138 78.769231-43.458886 4.889125-14.938992 3.802653-32.050928-3.259417-46.989921-7.333687-15.21061-19.556499-26.34695-34.49549-31.236074-8.691777-2.71618-17.655172-3.802653-26.618568-2.444562-1.35809 0.271618-2.987798-0.814854-2.987798-2.444563-0.271618-1.35809 0.814854-2.987798 2.444562-2.987798 9.778249-1.35809 19.556499-0.271618 29.06313 2.71618 33.409019 10.864721 52.693899 50.792573 41.285941 85.016446-10.321485 29.606366-39.384615 47.533156-76.324668 47.533157z" fill="#71BC8F" p-id="70975"></path><path d="M526.782394 881.682924a63.015385 63.015385 0 1 0 44.515782-117.907166 63.015385 63.015385 0 1 0-44.515782 117.907166Z" fill="#9CE2BA" p-id="70976"></path><path d="M611.140584 832.780902c0 3.802653-0.814854 7.605305-1.901327 11.407957-1.086472 3.802653-2.71618 7.333687-4.617506 10.593104-0.814854 1.629708-2.172944 3.259416-3.259417 4.889125-1.35809 1.629708-2.444562 2.987798-3.802652 4.345888-2.71618 2.987798-5.703979 5.160743-8.963396 7.333687 2.71618-2.987798 5.160743-5.703979 7.333687-8.691777 2.172944-2.987798 4.345889-5.975597 6.247215-9.506631 1.901326-3.259416 3.531034-6.518833 5.160743-10.049868 1.35809-2.987798 2.71618-6.518833 3.802653-10.321485z" fill="#85D3A5" p-id="70977"></path><path d="M605.164987 853.967109c-0.543236 0-0.814854 0-1.35809-0.271618-1.35809-0.814854-1.901326-2.444562-1.086473-3.531035 1.086472-1.901326 1.901326-4.074271 2.716181-6.247215 7.333687-19.556499 4.345889-41.014324-8.148541-57.583023-0.814854-1.086472-0.543236-2.987798 0.543236-3.802653 1.086472-0.814854 2.987798-0.543236 3.802652 0.543236 13.580902 18.198408 16.840318 41.55756 8.963395 62.743767-0.814854 2.172944-1.901326 4.617507-2.987798 6.790451-0.543236 0.814854-1.35809 1.35809-2.444562 1.35809zM489.998939 803.174536c-0.271618 0-0.543236 0-1.086472-0.271618-1.35809-0.543236-2.172944-2.172944-1.629708-3.531035 12.766048-33.952255 50.792573-51.064191 84.744827-38.298143 7.876923 2.987798 15.21061 7.333687 21.457825 13.309284 1.086472 1.086472 1.086472 2.71618 0.271618 3.802652-1.086472 1.086472-2.71618 1.086472-3.802652 0.271618-5.703979-5.160743-12.222812-9.235013-19.556499-12.222811-31.236074-11.679576-66.003183 4.074271-77.954377 35.310345-0.271618 0.814854-1.35809 1.629708-2.444562 1.629708z" fill="#71BC8F" p-id="70978"></path><path d="M284.642855 871.898586a109.190451 109.190451 0 1 0 199.906497-87.906831 109.190451 109.190451 0 1 0-199.906497 87.906831Z" fill="#9CE2BA" p-id="70979"></path><path d="M456.046684 744.776658c5.160743 4.074271 9.506631 8.691777 13.580902 13.85252 4.074271 5.160743 7.605305 10.593103 10.593104 16.297082 3.259416 5.703979 5.703979 11.951194 7.876923 18.198408 1.901326 6.247215 3.531034 12.766048 4.345888 19.284881 1.901326 13.037666 1.086472 26.618568-1.901326 39.384615-2.987798 12.766048-8.148541 24.988859-15.21061 35.853581 4.074271-12.222812 7.062069-24.445623 8.963395-36.940053 0.814854-6.247215 1.35809-12.49443 1.35809-18.470026 0-6.247215-0.271618-12.49443-1.086472-18.470027-1.629708-12.222812-5.160743-24.174005-9.778249-35.853581-4.889125-11.679576-11.13634-22.815915-18.741645-33.1374z" fill="#85D3A5" p-id="70980"></path><path d="M357.449337 937.353846h-0.543236c-11.407958-2.71618-22.272679-7.333687-32.050929-13.309284-4.074271-2.444562-7.876923-5.160743-11.679575-8.148541-1.086472-0.814854-1.35809-2.71618-0.271618-3.802652s2.71618-1.35809 3.802652-0.271618c3.531034 2.71618 7.333687 5.432361 11.13634 7.876923 9.506631 5.703979 19.556499 10.049867 30.42122 12.766047 1.35809 0.271618 2.444562 1.901326 1.901326 3.259417-0.271618 0.814854-1.35809 1.629708-2.71618 1.629708zM300.409549 902.315119c-0.814854 0-1.629708-0.271618-2.172944-1.086472-23.087533-27.433422-32.050928-64.373475-23.359151-99.140583 8.963395-36.940053 35.853581-66.274801 71.707161-78.769231 1.35809-0.543236 2.987798 0.271618 3.531035 1.629708 0.543236 1.35809-0.271618 2.987798-1.629708 3.531035-34.223873 11.951194-59.755968 39.927851-68.447746 74.966578-8.148541 33.137401 0.271618 68.447745 22.272679 94.251459 1.086472 1.086472 0.814854 2.987798-0.271618 3.802652-0.271618 0.543236-0.814854 0.814854-1.629708 0.814854zM362.61008 724.405305c-1.35809 0-2.444562-0.814854-2.716181-2.172944-0.271618-1.35809 0.543236-2.987798 2.172945-3.259417 8.420159-1.629708 17.383554-2.444562 25.803713-1.901326 1.629708 0 2.71618 1.35809 2.71618 2.71618s-1.35809 2.71618-2.71618 2.716181c-8.148541-0.271618-16.5687 0.271618-24.717241 1.901326h-0.543236zM489.455703 804.261008c-1.086472 0-2.444562-0.814854-2.71618-1.901326-9.778249-38.026525-39.656233-67.361273-77.682759-76.596287-1.35809-0.271618-2.444562-1.901326-1.901326-3.259416 0.271618-1.35809 1.901326-2.444562 3.259416-1.901326 39.927851 9.778249 71.163926 40.742706 81.485411 80.670557 0.271618 1.35809-0.543236 2.987798-1.901326 3.259416-0.271618-0.271618-0.543236-0.271618-0.543236-0.271618z" fill="#71BC8F" p-id="70981"></path><path d="M236.489609 944.106358a70.349072 70.349072 0 1 0 124.110142-66.276996 70.349072 70.349072 0 1 0-124.110142 66.276996Z" fill="#9CE2BA" p-id="70982"></path><path d="M355.548011 870.264191c6.790451 10.049867 11.407958 21.729443 13.309283 33.952255 1.901326 12.222812 0.543236 25.260477-4.617506 36.668435-2.71618 5.703979-6.247215 10.864721-10.321486 15.753846-4.074271 4.617507-8.963395 8.691777-14.124138 12.222811-10.321485 6.790451-33.409019 14.667374-33.409018 14.667374v-0.271618l-13.309284-3.802652s31.77931-13.85252 54.323607-36.125199c29.334748-29.06313 13.309284-62.200531 8.148542-73.065252z" fill="#85D3A5" p-id="70983"></path><path d="M360.437135 880.585676c-1.086472 0-1.901326-0.543236-2.444562-1.35809-3.259416-6.247215-7.605305-11.951194-12.766048-16.840318l-6.518833-5.703979c-1.086472-0.814854-1.35809-2.71618-0.543236-3.802652 0.814854-1.086472 2.71618-1.35809 3.802653-0.543236 2.444562 1.901326 4.889125 3.802653 7.062069 5.975596 5.432361 5.160743 10.049867 11.407958 13.580902 18.198409 0.814854 1.35809 0.271618 2.987798-1.086473 3.802652-0.271618 0-0.814854 0.271618-1.086472 0.271618zM231.14695 933.551194c-1.086472 0-2.172944-0.814854-2.716181-1.901327-9.778249-33.137401 5.160743-68.719363 35.581963-85.016445 20.642971-10.864721 45.360212-11.407958 66.546419-1.086472 1.35809 0.543236 1.901326 2.172944 1.35809 3.531034-0.543236 1.35809-2.172944 1.901326-3.531034 1.35809-19.556499-9.506631-42.372414-8.963395-61.385676 1.086472-28.248276 14.938992-42.100796 48.076393-32.865783 78.769231 0.543236 1.35809-0.271618 2.987798-1.901326 3.259417h-1.086472zM298.236605 983.800531c-26.890186 0-51.335809-14.938992-64.101857-38.569762-0.814854-1.35809-0.271618-2.987798 1.086472-3.802652 1.35809-0.814854 2.987798-0.271618 3.802653 1.086472 11.679576 22.001061 34.495491 35.581963 59.212732 35.581963 1.629708 0 2.71618 1.35809 2.71618 2.71618 0 1.901326-1.35809 2.987798-2.71618 2.987799z" fill="#71BC8F" p-id="70984"></path><path d="M1236.405305 215.664721h-7.062069c-0.814854 0-1.35809-0.543236-1.35809-1.35809s0.543236-1.35809 1.35809-1.35809h7.062069c0.814854 0 1.35809 0.543236 1.35809 1.35809s-0.543236 1.35809-1.35809 1.35809zM1232.874271 223.813263c-0.271618 0-0.814854-0.271618-1.086473-0.543236l-5.160742-5.160743c-0.543236-0.543236-0.543236-1.629708 0-2.172944 0.543236-0.543236 1.629708-0.543236 2.172944 0l5.160743 5.160742c0.543236 0.543236 0.543236 1.629708 0 2.172945-0.271618 0.271618-0.814854 0.543236-1.086472 0.543236zM1224.725729 227.072679c-0.814854 0-1.35809-0.543236-1.35809-1.35809v-7.062069c0-0.814854 0.543236-1.35809 1.35809-1.35809s1.35809 0.543236 1.358091 1.35809v7.062069c0 0.814854-0.543236 1.35809-1.358091 1.35809zM1216.30557 223.541645c-0.271618 0-0.814854-0.271618-1.086472-0.543237-0.543236-0.543236-0.543236-1.629708 0-2.172944l5.160743-5.160743c0.543236-0.543236 1.629708-0.543236 2.172944 0 0.543236 0.543236 0.543236 1.629708 0 2.172945l-5.160743 5.160742c-0.271618 0.543236-0.543236 0.543236-1.086472 0.543237z" fill="#E2CF9A" p-id="70985"></path><path d="M1220.379841 215.393103h-7.062069c-0.814854 0-1.35809-0.543236-1.35809-1.35809s0.543236-1.35809 1.35809-1.35809h7.062069c0.814854 0 1.35809 0.543236 1.35809 1.35809s-0.543236 1.35809-1.35809 1.35809zM1221.737931 212.405305c-0.271618 0-0.814854-0.271618-1.086472-0.543236l-4.889125-5.160743c-0.543236-0.543236-0.543236-1.629708 0-2.172944 0.543236-0.543236 1.629708-0.543236 2.172945 0l4.889124 5.160743c0.543236 0.543236 0.543236 1.629708 0 2.172944-0.543236 0.271618-0.814854 0.543236-1.086472 0.543236zM1224.725729 211.047215c-0.814854 0-1.35809-0.814854-1.35809-1.629708v-7.062069c0-0.814854 0.543236-1.35809 1.35809-1.358091s1.35809 0.814854 1.358091 1.629709v7.062069c0.271618 0.814854-0.543236 1.35809-1.358091 1.35809zM1227.985146 212.405305c-0.271618 0-0.814854-0.271618-1.086472-0.543236-0.543236-0.543236-0.543236-1.629708 0-2.172944l5.160742-4.889125c0.543236-0.543236 1.629708-0.543236 2.172945 0 0.543236 0.543236 0.543236 1.629708 0 2.172944l-5.160743 4.889125c-0.271618 0.543236-0.814854 0.543236-1.086472 0.543236zM1231.787798 223.270027l-5.160742-5.160743c-0.543236-0.543236-0.543236-1.629708 0-2.172944 0.543236-0.543236 1.629708-0.543236 2.172944 0l5.160743 5.160742c0.543236 0.543236 0.543236 1.629708 0 2.172945s-1.629708 0.543236-2.172945 0zM1223.639257 226.801061c-0.271618-0.271618-0.543236-0.543236-0.543236-1.086472v-7.062069c0-0.814854 0.543236-1.35809 1.35809-1.35809s1.35809 0.543236 1.358091 1.35809v7.062069c0 0.814854-0.543236 1.35809-1.358091 1.35809-0.271618 0-0.543236 0-0.814854-0.271618zM1215.490716 223.270027c-0.543236-0.543236-0.543236-1.629708 0-2.172945l5.160743-5.160742c0.543236-0.543236 1.629708-0.543236 2.172944 0 0.543236 0.543236 0.543236 1.629708 0 2.172944l-5.160743 5.160743c-0.814854 0.543236-1.629708 0.543236-2.172944 0z" fill="#E2CF9A" p-id="70986"></path><path d="M1211.959682 214.849867c-0.271618-0.271618-0.543236-0.543236-0.543236-1.086472 0-0.814854 0.543236-1.35809 1.35809-1.35809h7.062069c0.814854 0 1.35809 0.543236 1.35809 1.35809s-0.543236 1.35809-1.35809 1.35809h-7.062069c0 0.271618-0.543236 0-0.814854-0.271618zM1220.651459 211.862069l-4.889125-5.160743c-0.543236-0.543236-0.543236-1.629708 0-2.172944 0.543236-0.543236 1.629708-0.543236 2.172945 0l4.889124 5.160743c0.543236 0.543236 0.543236 1.629708 0 2.172944-0.814854 0.543236-1.629708 0.543236-2.172944 0zM1223.910875 210.775597c-0.271618-0.271618-0.543236-0.543236-0.543236-1.086472v-7.062069c0-0.814854 0.814854-1.35809 1.629708-1.35809s1.35809 0.543236 1.358091 1.629708v7.062069c0 0.814854-0.814854 1.35809-1.629709 1.35809-0.271618-0.271618-0.543236-0.543236-0.814854-0.543236zM1226.898674 212.133687c-0.543236-0.543236-0.543236-1.629708 0-2.172944l5.160742-4.889125c0.543236-0.543236 1.629708-0.543236 2.172945 0 0.543236 0.543236 0.543236 1.629708 0 2.172944l-5.160743 4.889125c-0.543236 0.543236-1.629708 0.543236-2.172944 0zM1227.985146 215.121485c-0.271618-0.271618-0.543236-0.543236-0.543236-1.086472 0-0.814854 0.814854-1.35809 1.629708-1.35809h7.062069c0.814854 0 1.35809 0.814854 1.35809 1.629708s-0.814854 1.35809-1.629708 1.35809h-7.062069s-0.543236-0.271618-0.814854-0.543236z" fill="#E2CF9A" p-id="70987"></path><path d="M987.603183 225.171353h-13.037666c-1.629708 0-2.71618-1.086472-2.71618-2.716181s1.086472-2.71618 2.71618-2.71618h13.037666c1.629708 0 2.71618 1.086472 2.71618 2.71618s-1.35809 2.71618-2.71618 2.716181zM981.08435 240.381963c-0.814854 0-1.35809-0.271618-1.901326-0.814854l-9.235013-9.235014c-1.086472-1.086472-1.086472-2.71618 0-3.802652 1.086472-1.086472 2.71618-1.086472 3.802652 0l9.235013 9.235013c1.086472 1.086472 1.086472 2.71618 0 3.802653-0.271618 0.543236-1.086472 0.814854-1.901326 0.814854zM966.145358 246.35756c-1.629708 0-2.71618-1.35809-2.71618-2.716181v-13.037665c0-1.629708 1.086472-2.71618 2.71618-2.716181s2.71618 1.35809 2.71618 2.716181v13.037665c0 1.629708-1.35809 2.71618-2.71618 2.716181zM950.934748 240.110345c-0.814854 0-1.35809-0.271618-1.901326-0.814854-1.086472-1.086472-1.086472-2.71618 0-3.802653l9.235013-9.235013c1.086472-1.086472 2.71618-1.086472 3.802653 0 1.086472 1.086472 1.086472 2.71618 0 3.802652l-9.235014 9.235014c-0.271618 0.543236-1.086472 0.814854-1.901326 0.814854zM958.268435 224.899735s-0.271618 0 0 0H945.230769c-1.629708 0-2.71618-1.35809-2.71618-2.716181s1.35809-2.71618 2.71618-2.71618h13.037666c1.629708 0 2.71618 1.35809 2.71618 2.71618-0.271618 1.629708-1.35809 2.71618-2.71618 2.716181zM960.712997 219.195756c-0.814854 0-1.35809-0.271618-1.901326-0.814854l-9.235013-9.506631c-1.086472-1.086472-1.086472-2.71618 0-3.802653 1.086472-1.086472 2.71618-1.086472 3.802652 0l9.235014 9.506631c1.086472 1.086472 1.086472 2.71618 0 3.802653-0.543236 0.543236-1.35809 0.814854-1.901327 0.814854zM966.416976 217.022812c-1.629708 0-2.71618-1.35809-2.71618-2.716181l0.271618-13.037665c0-1.35809 1.35809-2.71618 2.71618-2.716181 1.629708 0 2.71618 1.35809 2.716181 2.716181l-0.271619 13.037665c0 1.629708-1.086472 2.71618-2.71618 2.716181zM972.120955 219.467374c-0.814854 0-1.35809-0.271618-1.901326-0.814854-1.086472-1.086472-1.086472-2.71618 0-3.802653l9.506631-9.235013c1.086472-1.086472 2.71618-1.086472 3.802652 0 1.086472 1.086472 1.086472 2.71618 0 3.802653l-9.506631 9.235013c-0.543236 0.543236-1.086472 0.814854-1.901326 0.814854z" fill="#DCE7F9" p-id="70988"></path><path d="M979.183024 239.567109l-9.235013-9.235014c-1.086472-1.086472-1.086472-2.71618 0-3.802652 1.086472-1.086472 2.71618-1.086472 3.802652 0l9.235013 9.235013c1.086472 1.086472 1.086472 2.71618 0 3.802653-0.814854 1.086472-2.71618 1.086472-3.802652 0zM964.244032 245.542706c-0.543236-0.543236-0.814854-1.086472-0.814854-1.901327v-13.037665c0-1.629708 1.35809-2.71618 2.71618-2.716181 1.629708 0 2.71618 1.35809 2.71618 2.716181v13.037665c0 1.629708-1.35809 2.71618-2.71618 2.716181-0.814854 0-1.629708-0.271618-1.901326-0.814854zM949.033422 239.295491c-1.086472-1.086472-1.086472-2.71618 0-3.802653l9.235013-9.235013c1.086472-1.086472 2.71618-1.086472 3.802653 0 1.086472 1.086472 1.086472 2.71618 0 3.802652l-9.235014 9.235014c-0.814854 1.086472-2.71618 1.086472-3.802652 0zM943.057825 224.084881c-0.543236-0.543236-0.814854-1.086472-0.814854-1.901327 0-1.629708 1.35809-2.71618 2.71618-2.71618h13.037666c1.629708 0 2.71618 1.35809 2.71618 2.71618 0 1.629708-1.35809 2.71618-2.71618 2.716181h-13.037666c-0.814854 0-1.35809-0.271618-1.901326-0.814854zM958.811671 218.380902l-9.235013-9.506631c-1.086472-1.086472-1.086472-2.71618 0-3.802653 1.086472-1.086472 2.71618-1.086472 3.802652 0l9.235014 9.235013c1.086472 1.086472 1.086472 2.71618 0 3.802653-1.086472 1.35809-2.71618 1.35809-3.802653 0.271618zM964.51565 216.207958c-0.543236-0.543236-0.814854-1.086472-0.814854-1.901327l0.271618-13.037665c0-1.629708 1.35809-2.71618 2.71618-2.716181 1.629708 0 2.71618 1.35809 2.716181 2.716181l-0.271619 13.037665c0 1.629708-1.35809 2.71618-2.71618 2.716181-0.543236 0-1.35809-0.271618-1.901326-0.814854zM970.219629 218.65252c-1.086472-1.086472-1.086472-2.71618 0-3.802653l9.506631-9.235013c1.086472-1.086472 2.71618-1.086472 3.802652 0 1.086472 1.086472 1.086472 2.71618 0 3.802653l-9.506631 9.235013c-1.086472 1.086472-2.71618 1.086472-3.802652 0zM972.392573 224.628117c-0.543236-0.543236-0.814854-1.086472-0.814854-1.901327 0-1.629708 1.35809-2.71618 2.71618-2.71618l13.037666 0.271618c1.629708 0 2.71618 1.35809 2.71618 2.71618 0 1.629708-1.35809 2.71618-2.71618 2.716181l-13.037666-0.271618c-0.543236 0-1.35809-0.271618-1.901326-0.814854z" fill="#DCE7F9" p-id="70989"></path><path d="M268.630239 459.849337h-13.037666c-1.629708 0-2.71618-1.086472-2.71618-2.716181s1.086472-2.71618 2.71618-2.71618h13.037666c1.629708 0 2.71618 1.086472 2.71618 2.71618s-1.086472 2.71618-2.71618 2.716181zM262.383024 475.059947c-0.814854 0-1.35809-0.271618-1.901326-0.814854l-9.235014-9.235013c-1.086472-1.086472-1.086472-2.71618 0-3.802653 1.086472-1.086472 2.71618-1.086472 3.802653 0l9.235013 9.235013c1.086472 1.086472 1.086472 2.71618 0 3.802653-0.543236 0.543236-1.086472 0.814854-1.901326 0.814854zM247.172414 481.035544c-1.629708 0-2.71618-1.35809-2.716181-2.716181v-13.037665c0-1.629708 1.086472-2.71618 2.716181-2.716181s2.71618 1.35809 2.71618 2.716181v13.037665c0 1.629708-1.086472 2.71618-2.71618 2.716181zM232.233422 474.516711c-0.814854 0-1.35809-0.271618-1.901327-0.814854-1.086472-1.086472-1.086472-2.71618 0-3.802653l9.235014-9.235013c1.086472-1.086472 2.71618-1.086472 3.802652 0 1.086472 1.086472 1.086472 2.71618 0 3.802653l-9.235013 9.235013c-0.543236 0.543236-1.086472 0.814854-1.901326 0.814854zM239.295491 459.577719h-13.037666c-1.629708 0-2.71618-1.35809-2.71618-2.716181s1.35809-2.71618 2.71618-2.71618h13.037666c1.629708 0 2.71618 1.35809 2.71618 2.71618 0 1.629708-1.086472 2.71618-2.71618 2.716181zM241.740053 453.87374c-0.814854 0-1.35809-0.271618-1.901326-0.814854l-9.235013-9.506631c-1.086472-1.086472-1.086472-2.71618 0-3.802653 1.086472-1.086472 2.71618-1.086472 3.802652 0l9.235013 9.506631c1.086472 1.086472 1.086472 2.71618 0 3.802653-0.271618 0.543236-1.086472 0.814854-1.901326 0.814854zM247.71565 451.700796c-1.629708 0-2.71618-1.35809-2.716181-2.716181l0.271619-13.037665c0-1.35809 1.35809-2.71618 2.71618-2.716181 1.629708 0 2.71618 1.35809 2.71618 2.716181l-0.271618 13.037665c0 1.35809-1.35809 2.71618-2.71618 2.716181zM253.419629 454.145358c-0.814854 0-1.35809-0.271618-1.901327-0.814854-1.086472-1.086472-1.086472-2.71618 0-3.802653l9.506632-9.235013c1.086472-1.086472 2.71618-1.086472 3.802652 0 1.086472 1.086472 1.086472 2.71618 0 3.802653l-9.506631 9.235013c-0.543236 0.543236-1.35809 0.814854-1.901326 0.814854z" fill="#E2CF9A" p-id="70990"></path><path d="M260.481698 474.245093l-9.235014-9.235013c-1.086472-1.086472-1.086472-2.71618 0-3.802653 1.086472-1.086472 2.71618-1.086472 3.802653 0l9.235013 9.235013c1.086472 1.086472 1.086472 2.71618 0 3.802653-1.086472 1.086472-2.71618 1.086472-3.802652 0zM245.271088 480.22069c-0.543236-0.543236-0.814854-1.086472-0.814855-1.901327v-13.037665c0-1.629708 1.35809-2.71618 2.716181-2.716181 1.629708 0 2.71618 1.35809 2.71618 2.716181v13.037665c0 1.629708-1.35809 2.71618-2.71618 2.716181-0.814854 0-1.35809-0.271618-1.901326-0.814854zM230.332095 473.701857c-1.086472-1.086472-1.086472-2.71618 0-3.802653l9.235014-9.235013c1.086472-1.086472 2.71618-1.086472 3.802652 0 1.086472 1.086472 1.086472 2.71618 0 3.802653l-9.235013 9.235013c-1.086472 1.086472-2.71618 1.086472-3.802653 0zM224.356499 458.762865c-0.543236-0.543236-0.814854-1.086472-0.814854-1.901327 0-1.629708 1.35809-2.71618 2.71618-2.71618h13.037666c1.629708 0 2.71618 1.35809 2.71618 2.71618 0 1.629708-1.35809 2.71618-2.71618 2.716181h-13.037666c-0.814854 0-1.629708-0.543236-1.901326-0.814854zM239.838727 453.058886l-9.235013-9.506631c-1.086472-1.086472-1.086472-2.71618 0-3.802653 1.086472-1.086472 2.71618-1.086472 3.802652 0l9.235013 9.235013c1.086472 1.086472 1.086472 2.71618 0 3.802653-0.814854 1.35809-2.71618 1.35809-3.802652 0.271618zM245.814324 450.885942c-0.543236-0.543236-0.814854-1.086472-0.814855-1.901327l0.271619-13.037665c0-1.629708 1.35809-2.71618 2.71618-2.716181 1.629708 0 2.71618 1.35809 2.71618 2.716181l-0.271618 13.037665c0 1.629708-1.35809 2.71618-2.71618 2.716181-0.814854 0-1.35809-0.271618-1.901326-0.814854zM251.518302 453.330504c-1.086472-1.086472-1.086472-2.71618 0-3.802653l9.506632-9.235013c1.086472-1.086472 2.71618-1.086472 3.802652 0 1.086472 1.086472 1.086472 2.71618 0 3.802653l-9.506631 9.235013c-1.086472 1.086472-2.71618 1.086472-3.802653 0zM253.691247 459.306101c-0.543236-0.543236-0.814854-1.086472-0.814854-1.901326 0-1.629708 1.35809-2.71618 2.71618-2.716181l13.037666 0.271618c1.629708 0 2.71618 1.35809 2.71618 2.716181 0 1.629708-1.35809 2.71618-2.71618 2.71618l-13.037666-0.271618c-0.814854 0-1.35809-0.271618-1.901326-0.814854z" fill="#E2CF9A" p-id="70991"></path><path d="M1354.830769 427.52679h-10.864721v-10.864721c0-2.987798-2.444562-5.432361-5.432361-5.432361s-5.432361 2.444562-5.432361 5.432361v10.864721h-10.864721c-2.987798 0-5.432361 2.444562-5.432361 5.432361s2.444562 5.432361 5.432361 5.432361h10.864721v10.864721c0 2.987798 2.444562 5.432361 5.432361 5.432361s5.432361-2.444562 5.432361-5.432361v-10.864721h10.864721c2.987798 0 5.432361-2.444562 5.432361-5.432361s-2.444562-5.432361-5.432361-5.432361z" fill="#EEF4FF" p-id="70992"></path><path d="M314.533687 113.264721h-10.864721v-10.864721c0-2.987798-2.444562-5.432361-5.432361-5.432361s-5.432361 2.444562-5.432361 5.432361v10.864721h-10.864721c-2.987798 0-5.432361 2.444562-5.432361 5.432361s2.444562 5.432361 5.432361 5.432361h10.864721v10.864721c0 2.987798 2.444562 5.432361 5.432361 5.432361s5.432361-2.444562 5.432361-5.432361v-10.864721h10.864721c2.987798 0 5.432361-2.444562 5.432361-5.432361s-2.444562-5.432361-5.432361-5.432361zM678.773475 193.120424h-10.864722v-10.864721c0-2.987798-2.444562-5.432361-5.43236-5.432361s-5.432361 2.444562-5.432361 5.432361v10.864721h-10.864722c-2.987798 0-5.432361 2.444562-5.43236 5.432361s2.444562 5.432361 5.43236 5.432361h10.864722v10.864721c0 2.987798 2.444562 5.432361 5.432361 5.432361s5.432361-2.444562 5.43236-5.432361v-10.864721h10.864722c2.987798 0 5.432361-2.444562 5.432361-5.432361s-2.444562-5.432361-5.432361-5.432361z" fill="#EFE1BF" p-id="70993"></path><path d="M384.611141 258.851989c-6.247215 0-11.407958-5.160743-11.407958-11.407957s5.160743-11.407958 11.407958-11.407958 11.407958 5.160743 11.407957 11.407958-5.160743 11.407958-11.407957 11.407957z m0-20.099734c-4.889125 0-8.691777 3.802653-8.691778 8.691777s3.802653 8.691777 8.691778 8.691777 8.691777-3.802653 8.691777-8.691777-3.802653-8.691777-8.691777-8.691777z" fill="#A0D7EA" p-id="70994"></path><path d="M943.872679 65.188329c-6.247215 0-11.407958-5.160743-11.407958-11.407958s5.160743-11.407958 11.407958-11.407957c6.247215 0 11.407958 5.160743 11.407958 11.407957s-5.160743 11.407958-11.407958 11.407958z m0-20.099735c-4.889125 0-8.691777 3.802653-8.691777 8.691777s3.802653 8.691777 8.691777 8.691778 8.691777-3.802653 8.691777-8.691778-3.802653-8.691777-8.691777-8.691777z" fill="#E2CF9A" p-id="70995"></path><path d="M1185.612732 350.387268c-6.247215 0-11.407958-5.160743-11.407957-11.407958s5.160743-11.407958 11.407957-11.407957c6.247215 0 11.407958 5.160743 11.407958 11.407957s-5.160743 11.407958-11.407958 11.407958z m0-20.099735c-4.889125 0-8.691777 3.802653-8.691777 8.691777s3.802653 8.691777 8.691777 8.691778 8.691777-3.802653 8.691777-8.691778-4.074271-8.691777-8.691777-8.691777z" fill="#DCE7F9" p-id="70996"></path><path d="M1402.907162 975.651989H1360.806366c-2.987798 0-5.432361 2.444562-5.432361 5.432361s2.444562 5.432361 5.432361 5.432361h42.100796c2.987798 0 5.432361-2.444562 5.432361-5.432361s-2.172944-5.432361-5.432361-5.432361zM1343.151194 975.651989h-13.580902c-2.987798 0-5.432361 2.444562-5.432361 5.432361s2.444562 5.432361 5.432361 5.432361h13.580902c2.987798 0 5.432361-2.444562 5.43236-5.432361s-2.172944-5.432361-5.43236-5.432361zM1309.198939 975.651989H240.653581c-2.987798 0-5.432361 2.444562-5.432361 5.432361s2.444562 5.432361 5.432361 5.432361H1309.198939c2.987798 0 5.432361-2.444562 5.432361-5.432361s-2.172944-5.432361-5.432361-5.432361zM210.775597 975.651989H43.730504c-2.987798 0-5.432361 2.444562-5.432361 5.432361s2.444562 5.432361 5.432361 5.432361h167.045093c2.987798 0 5.432361-2.444562 5.432361-5.432361s-2.444562-5.432361-5.432361-5.432361z" fill="#69A4CC" p-id="70997"></path></svg>