<?xml version="1.0" standalone="no"?><!DOCTYPE svg PUBLIC "-//W3C//DTD SVG 1.1//EN" "http://www.w3.org/Graphics/SVG/1.1/DTD/svg11.dtd"><svg t="1571583331880" class="icon" viewBox="0 0 1024 1024" version="1.1" xmlns="http://www.w3.org/2000/svg" p-id="20352" xmlns:xlink="http://www.w3.org/1999/xlink" width="60" height="60"><defs><style type="text/css"></style></defs><path d="M791.272727 223.418182h176.872728v735.418182c0 37.236364-27.927273 65.163636-65.163637 65.163636H190.836364c-37.236364 0-65.163636-27.927273-65.163637-65.163636V65.163636C121.018182 27.927273 153.6 0 190.836364 0h558.545454v176.872727h46.545455c-4.654545 0-4.654545 46.545455-4.654546 46.545455z m-69.818182-23.272727V23.272727H190.836364c-23.272727 0-46.545455 18.618182-46.545455 46.545455v889.018182c0 23.272727 18.618182 46.545455 46.545455 46.545454h712.145454c23.272727 0 46.545455-18.618182 46.545455-46.545454V246.690909h-176.872728v-46.545454h-51.2z" fill="#9FA0A6" p-id="20353"></path><path d="M209.454545 889.018182h665.6v46.545454H209.454545v-46.545454z m0-111.709091h665.6v46.545454H209.454545v-46.545454z m0-111.709091h665.6v46.545455H209.454545v-46.545455z" fill="#9FA0A6" p-id="20354"></path><path d="M116.363636 111.709091h465.454546c32.581818 0 60.509091 18.618182 60.509091 46.545454V512c0 23.272727-27.927273 46.545455-60.509091 46.545455h-465.454546c-32.581818 0-60.509091-18.618182-60.509091-46.545455V153.6c0-23.272727 27.927273-41.890909 60.509091-41.890909z" fill="#03bb51" p-id="20355" data-spm-anchor-id="a313x.7781069.0.i14" class=""></path><path d="M69.818182 246.690909h32.581818v162.909091h93.090909v27.927273H69.818182V246.690909zM311.854545 242.036364c55.854545 4.654545 88.436364 37.236364 93.09091 97.745454 0 65.163636-32.581818 97.745455-93.09091 97.745455-60.509091-4.654545-88.436364-37.236364-93.090909-97.745455 0-65.163636 32.581818-97.745455 93.090909-97.745454z m-4.654545 167.563636c41.890909 0 65.163636-23.272727 65.163636-69.818182-4.654545-46.545455-23.272727-69.818182-60.509091-69.818182s-60.509091 23.272727-60.50909 69.818182c0 41.890909 18.618182 65.163636 55.854545 69.818182zM521.309091 330.472727h88.436364v69.818182c-18.618182 23.272727-46.545455 32.581818-83.781819 32.581818-60.509091 0-93.090909-32.581818-97.745454-93.090909 4.654545-65.163636 32.581818-97.745455 93.090909-97.745454 41.890909 0 69.818182 18.618182 83.781818 55.854545l-32.581818 9.309091c-9.309091-23.272727-27.927273-37.236364-55.854546-37.236364-32.581818 0-51.2 23.272727-55.854545 69.818182 4.654545 41.890909 27.927273 65.163636 65.163636 69.818182 23.272727 0 41.890909-4.654545 55.854546-18.618182v-32.581818h-60.509091v-27.927273z" fill="#FFFFFF" p-id="20356"></path></svg>