<svg t="1578041464143" class="icon" viewBox="0 0 1024 1024" version="1.1" xmlns="http://www.w3.org/2000/svg" p-id="45589" width="512" height="512"><path d="M703.767273 955.399161h117.530853c4.110322 0 7.583329-3.480168 7.583329-7.604811 0-4.117483-3.473007-7.604811-7.583329-7.604812H142.672559c-4.103161 0-7.576168 3.487329-7.576167 7.604812 0 4.124643 3.473007 7.611972 7.576167 7.611972H703.767273zM881.327441 939.874462h-35.703944c-4.110322 0-7.583329 3.487329-7.583329 7.604811 0 4.124643 3.473007 7.611972 7.583329 7.611972h35.703944c4.103161 0 7.576168-3.487329 7.576167-7.611972 0-4.117483-3.473007-7.604811-7.576167-7.604811M400.792168 971.253259H255.778014c-4.110322 0-7.583329 3.487329-7.583329 7.611972 0 4.117483 3.473007 7.604811 7.583329 7.604811H400.792168c4.103161 0 7.583329-3.487329 7.583329-7.604811 0-4.124643-3.15793-7.611972-7.59049-7.611972M430.803245 971.253259h-6.946014c-4.110322 0-7.59049 3.487329-7.59049 7.611972 0 4.117483 3.480168 7.604811 7.59049 7.604811h6.946014c4.110322 0 7.59049-3.487329 7.590489-7.604811 0-4.124643-3.165091-7.611972-7.590489-7.611972M622.577678 978.865231c0-4.124643-3.473007-7.611972-7.583328-7.611972H468.719888c-4.110322 0-7.59049 3.487329-7.590489 7.611972 0 4.117483 3.480168 7.604811 7.590489 7.604811h146.274462c4.110322 0.322238 7.583329-3.172252 7.583328-7.604811M586.873734 1006.441622H566.350769c-4.110322 0-7.59049 3.487329-7.590489 7.604812 0 4.124643 3.480168 7.611972 7.590489 7.611972h20.530126c4.110322 0 7.583329-3.487329 7.583329-7.611972 0-4.117483-3.473007-7.604811-7.583329-7.604812M850.048895 1006.441622h-60.029315c-3.473007-14.586629-16.742042-25.678769-32.538853-25.678769a33.254937 33.254937 0 0 0-32.538853 25.678769H611.822098c-4.103161 0-7.576168 3.487329-7.576168 7.604812 0 4.124643 3.473007 7.611972 7.583329 7.611972h119.414154c4.110322 0 7.275413-3.172252 7.590489-7.296896v-0.315076c0-2.850014 0.630154-5.700028 1.897622-7.927049 2.842853-6.015105 9.158713-10.139748 16.426966-10.139749 7.261091 0 13.269035 4.117483 16.426965 10.139749 1.260308 2.542098 1.897622 5.077035 1.897622 7.927049v0.315076c0.315077 4.124643 3.473007 7.296895 7.583329 7.296896h66.975328c4.103161 0 7.583329-3.487329 7.583329-7.611972 0-4.117483-3.480168-7.604811-7.59049-7.604812" fill="#55A6F1" p-id="45590"></path><path d="M512 222.523077a24.726378 24.726378 0 1 1 0 49.452755 24.726378 24.726378 0 0 1 0-49.452755M219.422434 379.116308a12.359608 12.359608 0 1 1 0 24.726377 12.359608 12.359608 0 0 1 0-24.726377M886.998825 560.435916a12.366769 12.366769 0 1 1 0 24.726378 12.366769 12.366769 0 0 1 0-24.726378M791.201119 103.431161h9.924923v11.543273c0 4.683189 3.422881 8.650294 7.461594 8.650293 4.031552 0 7.447273-3.967105 7.447273-8.650293v-11.543273h9.939245c4.038713 0 7.447273-3.967105 7.447273-8.650294 0-4.69035-3.408559-8.657455-7.447273-8.657454h-9.624168v-11.536112c0-4.69035-3.41572-8.650294-7.461594-8.650294-4.031552 0-7.447273 3.959944-7.447273 8.650294v11.536112h-9.939245c-4.031552 0-7.447273 3.967105-7.447273 8.657454-0.622993 4.683189 2.792727 8.650294 7.139357 8.650294M435.79435 35.174042H443.972028v8.113231c0 3.566098 2.943105 6.158322 6.215608 6.158321s6.215608-2.914462 6.215609-6.158321V35.174042h8.177678a6.186965 6.186965 0 0 0 6.208448-6.165483c0-3.24386-2.935944-6.165483-6.208448-6.165482h-8.177678V14.407608a6.186965 6.186965 0 0 0-6.215609-6.165482c-3.272503 0-6.215608 2.921622-6.215608 6.158322v8.120391h-8.177678a6.186965 6.186965 0 0 0-6.208448 6.158322c0 3.251021 2.935944 6.494881 6.208448 6.494881" fill="#9DDAFF" p-id="45591"></path><path d="M652.108979 49.280895a16.684755 16.684755 0 0 1-16.656112-16.656112 16.684755 16.684755 0 0 1 16.656112-16.648951 16.684755 16.684755 0 0 1 16.656112 16.648951 16.46993 16.46993 0 0 1-16.656112 16.656112m0-49.280895a32.997147 32.997147 0 0 0-32.968503 32.968503c0 18.00951 14.958993 32.968503 32.968503 32.968504 18.016671 0 32.968503-14.958993 32.968504-32.968504C685.077483 14.951832 670.12565 0 652.108979 0M92.646937 138.683972c12.88951 12.88951 34.164364 12.88951 47.046713 0 12.88951-12.88951 12.88951-34.157203 0-47.046713l-7.783832-7.798154c-12.88951-12.88951-34.171524-12.88951-47.053874 0-12.88951 12.88951-12.88951 34.164364 0 47.053874l7.790993 7.790993z" fill="#FFCA2E" p-id="45592"></path><path d="M530.546573 634.615049c0.408168 0 0.408168 0 0 0h-2.062321 2.062321z" fill="#D0D0D0" p-id="45593"></path><path d="M890.572084 600.823049c-13.927832 0-25.327888-11.385734-25.327888-24.962685 0-13.91351 11.400056-24.969846 25.327888-24.969847 13.927832 0 25.320727 11.378573 25.320727 24.969847 0 13.584112-11.392895 24.962685-25.320727 24.962685m-106.982937-288.503049H775.662098v7.905566a5.671385 5.671385 0 0 1-5.700028 5.685707 5.664224 5.664224 0 0 1-5.692867-5.685707v-7.905566h-7.912727a5.671385 5.671385 0 0 1-5.700028-5.685706c0-3.165091 2.534937-5.685706 5.700028-5.685707h7.912727v-7.898405c0-3.165091 2.527776-5.692867 5.692867-5.692867 3.165091 0 5.700028 2.527776 5.700028 5.692867v7.898405h7.912727c3.165091 0 5.700028 2.520615 5.700028 5.685707a5.671385 5.671385 0 0 1-5.700028 5.685706M512 288.617622c-20.258014 0-37.03586-16.426965-37.03586-36.649174 0-20.22221 16.462769-36.656336 37.03586-36.656336 20.265175 0 37.03586 16.434126 37.03586 36.663496 0 20.215049-16.777846 36.649175-37.03586 36.649175M217.625063 415.965986c-13.927832 0-25.320727-11.378573-25.320727-24.962685 0-13.90635 11.392895-24.962685 25.320727-24.962686s25.327888 11.378573 25.327888 24.962686c-0.322238 13.584112-11.400056 24.962685-25.327888 24.962685m-34.500923 149.776112H173.005874v10.118266c0 4.103161-3.487329 7.583329-7.59765 7.583328s-7.59765-3.480168-7.597651-7.590489v-10.111105h-10.132587c-4.110322 0-7.59049-3.473007-7.590489-7.583329s3.480168-7.583329 7.590489-7.583328h9.81035v-10.111105c0-4.103161 3.487329-7.583329 7.604811-7.583329 4.117483 0 7.59049 3.480168 7.590489 7.583329v10.111105h10.132588c4.117483 0 7.59049 3.473007 7.590489 7.590489 0 4.103161-3.15793 7.576168-7.275412 7.576168M512 140.108979c-241.198545 0-436.811189 194.961007-436.811189 435.429147 0 152.311049 78.189203 285.975273 196.887273 364.021259h479.847832C870.636308 861.828476 948.811189 727.842014 948.811189 575.538126c0-240.460979-195.612643-435.429147-436.811189-435.429147" fill="#E1F5FF" p-id="45594" data-spm-anchor-id="a313x.7781069.0.i59" class=""></path><path d="M709.80386 412.084811c-13.462378 0-24.726378 11.221035-24.726377 25.320727V527.467413h49.445594V437.405538c0-14.106853-10.956084-25.320727-24.719217-25.320727" fill="#F4F4F4" p-id="45595"></path><path d="M322.438266 429.779245v323.261762h294.883356c4.196252 0 7.748028 3.480168 7.748028 7.59049v54.723132a25.356531 25.356531 0 0 0 25.485427 25.299245c14.192783 0 25.492587-11.385734 25.492587-25.299245V429.149091c0-9.488112 3.222378-18.34607 9.022658-25.306406H347.938014c-14.199944 0.952392-25.492587 12.023049-25.492587 25.93656" fill="#FFFFFF" p-id="45596"></path><path d="M602.391273 774.724028H289.476923v48.242573c0 14.106853 11.027692 25.929399 24.891077 25.929399h296.53035c-5.356308-7.225287-8.822154-16.083245-8.822154-25.929399v-48.242573h0.315077z" fill="#FFFFFF" p-id="45597"></path><path d="M746.83972 427.451972v88.715636h-53.469986V427.451972c0-13.56979 14.321678-24.941203 28.32828-24.941203h-3.179413c13.999441 0.322238 28.321119 11.371413 28.321119 24.941203z m-65.557482 0V808.487385c0 13.576951-14.321678 28.099133-28.32828 28.099132-13.999441 0-28.321119-14.207105-28.321119-28.099132v-53.033175h3.179413v-0.945231c0-4.103161-3.50165-1.267469-7.640616-1.267469H587.403636l-261.29186-3.150769V427.444811c0-13.56979 14.321678-28.091972 28.32828-28.091972h335.757427c-5.728671 6.946014-8.908084 18.94042-8.908084 28.091972z m-326.849343 409.449622h-35.961734c-13.691524 0-25.148867-14.207105-25.148867-28.099132v-46.402238h319.530965v46.402238c0 9.47379 3.186573 21.153119 8.915244 28.099132H354.432895zM718.518601 387.358434H354.432895c-22.277371 0-40.422937 17.995189-40.422937 40.100699v319.473678h-25.134545c-4.146126 0-7.640615 3.473007-7.640616 7.576168v54.293483c0 22.09835 18.138406 40.100699 40.415776 40.100699H652.953958c12.731972 0 24.504392-6.000783 31.822769-15.159497 5.413594-6.946014 8.915245-15.467413 8.915245-24.941202V531.62786h57.924028c4.131804 0 7.633455-3.473007 7.633455-7.569007V427.767049c0-22.413427-18.138406-40.408615-40.730854-40.408615z" fill="#3cd77e" p-id="45598" data-spm-anchor-id="a313x.7781069.0.i60" class=""></path><path d="M444.165371 494.50607h-29.166098c-5.384951 0-10.139748 4.43972-10.139749 10.139748v29.158937c0 5.392112 4.43972 10.146909 10.139749 10.146909h29.166098c5.384951 0 10.139748-4.43972 10.139748-10.146909v-29.158937c-0.315077-5.707189-4.754797-10.139748-10.139748-10.139748z m-24.089063 34.228811h18.696951v-18.696951h-18.696951v18.696951zM444.165371 593.40442h-29.166098c-5.384951 0-10.139748 4.43972-10.139749 10.139748v29.166098c0 5.392112 4.43972 10.146909 10.139749 10.146909h29.166098c5.384951 0 10.139748-4.43972 10.139748-10.146909v-29.166098c-0.315077-5.700028-4.754797-10.139748-10.139748-10.139748z m-24.089063 34.228811h18.696951v-18.68979h-18.696951v18.68979zM529.372196 527.467413h-59.463609c-3.988587 0-7.361343-3.773762-7.361342-8.234965 0-4.468364 3.372755-8.249287 7.361342-8.249287h59.463609c3.981427 0 7.354182 3.780923 7.354182 8.242126 0 4.468364-3.064839 8.242126-7.354182 8.242126M562.133035 626.372923H470.087608c-4.081678 0-7.540364-3.780923-7.540363-8.234965 0-4.475524 3.458685-8.249287 7.540363-8.249287h92.045427c4.081678 0 7.540364 3.773762 7.540364 8.242126A7.626294 7.626294 0 0 1 562.125874 626.365762" fill="#6be59f" p-id="45599" data-spm-anchor-id="a313x.7781069.0.i62" class=""></path><path d="M697.437091 782.966154a61.18221 61.18221 0 0 1-43.666797-18.145567 61.167888 61.167888 0 0 1-18.145567-43.673958c0-16.605986 6.459077-31.980308 18.145567-43.666797a61.690629 61.690629 0 0 1 43.666797-18.145566 61.153566 61.153566 0 0 1 43.666797 18.145566 61.175049 61.175049 0 0 1 18.145567 43.666797c0 16.613147-6.459077 31.987469-18.145567 43.673958-11.378573 11.679329-27.060811 18.145566-43.666797 18.145567" fill="#FFFFFF" p-id="45600" data-spm-anchor-id="a313x.7781069.0.i64" class="selected"></path><path d="M697.437091 651.099301c-18.023832 0-35.732587 6.953175-49.653259 20.551608-27.196867 27.204028-27.196867 71.479497 0 98.998601a70.176224 70.176224 0 0 0 49.653259 20.551609c18.030993 0 35.739748-6.953175 49.653259-20.551609 27.204028-27.204028 27.204028-71.479497 0-98.998601a70.176224 70.176224 0 0 0-49.653259-20.551608m0 12.646042a57.215105 57.215105 0 0 1 57.250909 57.243748c0 15.180979-6.015105 29.731804-16.763524 40.480224a57.200783 57.200783 0 0 1-40.487385 16.770685c-15.180979 0-29.724643-6.015105-40.480224-16.770685a57.200783 57.200783 0 0 1-16.763524-40.480224 57.215105 57.215105 0 0 1 57.243748-57.243748" fill="#3cd77e" p-id="45601" data-spm-anchor-id="a313x.7781069.0.i61" class=""></path><path d="M793.413818 832.411748a6.967497 6.967497 0 0 1-4.969622-2.055161l-51.830154-51.758545a7.110713 7.110713 0 0 1-0.035804-10.025175 7.024783 7.024783 0 0 1 9.967888-0.035804l51.830154 51.758545a7.117874 7.117874 0 0 1 0.035804 10.025175 7.010462 7.010462 0 0 1-4.998266 2.090965M668.593231 708.787021a8.242126 8.242126 0 1 1 0 16.484252 8.242126 8.242126 0 0 1 0-16.484252M701.561734 708.787021a8.234965 8.234965 0 1 1 0 16.484252 8.234965 8.234965 0 0 1 0-16.484252M726.288112 708.787021a8.234965 8.234965 0 1 1 0 16.484252 8.234965 8.234965 0 0 1 0-16.484252" fill="#6be59f" p-id="45602" data-spm-anchor-id="a313x.7781069.0.i63" class=""></path></svg>