<?xml version="1.0" encoding="UTF-8"?>
<svg width="640px" height="640px" viewBox="0 0 640 640" version="1.1" xmlns="http://www.w3.org/2000/svg" xmlns:xlink="http://www.w3.org/1999/xlink">
    <title>暂无内容</title>
    <defs>
        <linearGradient x1="50%" y1="0%" x2="50%" y2="65.785099%" id="linearGradient-1">
            <stop stop-color="#E6F1FD" offset="0%"></stop>
            <stop stop-color="#E6F1FD" stop-opacity="0" offset="100%"></stop>
        </linearGradient>
        <linearGradient x1="24.7805081%" y1="50.0060613%" x2="122.656965%" y2="54.3171187%" id="linearGradient-2">
            <stop stop-color="#E0E7FF" offset="0%"></stop>
            <stop stop-color="#7DA2E2" offset="100%"></stop>
        </linearGradient>
        <linearGradient x1="0%" y1="50.0060613%" x2="166.185627%" y2="50.0060613%" id="linearGradient-3">
            <stop stop-color="#E0E7FF" offset="0%"></stop>
            <stop stop-color="#7DA2E2" offset="100%"></stop>
        </linearGradient>
        <linearGradient x1="53.7064799%" y1="79.9792893%" x2="61.1646421%" y2="9.62868645%" id="linearGradient-4">
            <stop stop-color="#A0BFF6" offset="0%"></stop>
            <stop stop-color="#CBDFFE" offset="100%"></stop>
        </linearGradient>
        <linearGradient x1="121.886927%" y1="50%" x2="29.1475836%" y2="50%" id="linearGradient-5">
            <stop stop-color="#FFFFFF" offset="0%"></stop>
            <stop stop-color="#AED1FC" offset="100%"></stop>
        </linearGradient>
        <linearGradient x1="50%" y1="14.707682%" x2="50%" y2="100%" id="linearGradient-6">
            <stop stop-color="#A3C0F7" offset="0%"></stop>
            <stop stop-color="#CCE2FF" offset="100%"></stop>
        </linearGradient>
        <linearGradient x1="15.24962%" y1="51.3709492%" x2="93.283446%" y2="50%" id="linearGradient-7">
            <stop stop-color="#B6D0FA" offset="0%"></stop>
            <stop stop-color="#F6FAFF" offset="100%"></stop>
        </linearGradient>
        <linearGradient x1="28.8080689%" y1="14.8680796%" x2="92.2595807%" y2="85.1319204%" id="linearGradient-8">
            <stop stop-color="#B3E3E6" offset="0%"></stop>
            <stop stop-color="#73DAC3" offset="100%"></stop>
        </linearGradient>
        <linearGradient x1="41.9853788%" y1="8.8817842e-14%" x2="65.9822401%" y2="100%" id="linearGradient-9">
            <stop stop-color="#B3E3E6" offset="0%"></stop>
            <stop stop-color="#73DAC3" offset="100%"></stop>
        </linearGradient>
        <linearGradient x1="36.3477882%" y1="8.8817842e-14%" x2="77.2243594%" y2="100%" id="linearGradient-10">
            <stop stop-color="#B3E3E6" offset="0%"></stop>
            <stop stop-color="#73DAC3" offset="100%"></stop>
        </linearGradient>
        <linearGradient x1="50%" y1="32.7176305%" x2="50%" y2="100%" id="linearGradient-11">
            <stop stop-color="#A4E8E1" offset="0%"></stop>
            <stop stop-color="#7CCCB5" offset="100%"></stop>
        </linearGradient>
        <linearGradient x1="44.1558107%" y1="10.696298%" x2="53.3757934%" y2="50%" id="linearGradient-12">
            <stop stop-color="#9FE7EE" offset="0%"></stop>
            <stop stop-color="#83DCC8" offset="100%"></stop>
        </linearGradient>
        <linearGradient x1="46.5069773%" y1="8.8817842e-14%" x2="56.9655604%" y2="100%" id="linearGradient-13">
            <stop stop-color="#B3E3E6" offset="0%"></stop>
            <stop stop-color="#73DAC3" offset="100%"></stop>
        </linearGradient>
        <polygon id="path-14" points="0 0 127 0 127 41 0 41"></polygon>
        <linearGradient x1="50%" y1="32.7176305%" x2="50%" y2="100%" id="linearGradient-16">
            <stop stop-color="#A4E8E1" offset="0%"></stop>
            <stop stop-color="#7CCCB5" offset="100%"></stop>
        </linearGradient>
        <linearGradient x1="50%" y1="32.7176305%" x2="50%" y2="100%" id="linearGradient-17">
            <stop stop-color="#A2EAD9" offset="0%"></stop>
            <stop stop-color="#8CD8DE" offset="100%"></stop>
        </linearGradient>
        <linearGradient x1="50%" y1="32.7176305%" x2="50%" y2="100%" id="linearGradient-18">
            <stop stop-color="#A2EAD9" offset="0%"></stop>
            <stop stop-color="#8CD8DE" offset="100%"></stop>
        </linearGradient>
        <linearGradient x1="58.7300875%" y1="59.1131782%" x2="53.8178856%" y2="42.4873919%" id="linearGradient-19">
            <stop stop-color="#FAC3C9" offset="0%"></stop>
            <stop stop-color="#E6969F" offset="100%"></stop>
            <stop stop-color="#E6969F" offset="100%"></stop>
        </linearGradient>
        <linearGradient x1="62.8482293%" y1="61.7013051%" x2="46.6722435%" y2="32.5470981%" id="linearGradient-20">
            <stop stop-color="#FAC3C9" offset="0%"></stop>
            <stop stop-color="#E6969F" offset="100%"></stop>
        </linearGradient>
        <linearGradient x1="55.6201188%" y1="38.4558138%" x2="50.6790233%" y2="34.5312347%" id="linearGradient-21">
            <stop stop-color="#146CDA" offset="0%"></stop>
            <stop stop-color="#0050B3" offset="100%"></stop>
        </linearGradient>
        <linearGradient x1="45.9978675%" y1="33.2886888%" x2="54.4893443%" y2="37.0140859%" id="linearGradient-22">
            <stop stop-color="#003D87" offset="0%"></stop>
            <stop stop-color="#0050B3" offset="100%"></stop>
        </linearGradient>
        <linearGradient x1="61.7322112%" y1="87.6127175%" x2="61.7322112%" y2="0%" id="linearGradient-23">
            <stop stop-color="#003D87" offset="0%"></stop>
            <stop stop-color="#377FD7" offset="100%"></stop>
        </linearGradient>
        <linearGradient x1="61.7322112%" y1="87.6127175%" x2="61.7322112%" y2="0%" id="linearGradient-24">
            <stop stop-color="#003D87" offset="0%"></stop>
            <stop stop-color="#377FD7" offset="100%"></stop>
        </linearGradient>
        <linearGradient x1="60.9717006%" y1="0%" x2="50%" y2="84.436501%" id="linearGradient-25">
            <stop stop-color="#FCD492" offset="0%"></stop>
            <stop stop-color="#F7A959" offset="100%"></stop>
        </linearGradient>
        <linearGradient x1="64.3056834%" y1="23.7673965%" x2="34.6048221%" y2="39.5481461%" id="linearGradient-26">
            <stop stop-color="#F07C0D" offset="0%"></stop>
            <stop stop-color="#F9BE5D" offset="30.6885571%"></stop>
            <stop stop-color="#F59532" offset="100%"></stop>
            <stop stop-color="#F59532" offset="100%"></stop>
        </linearGradient>
        <linearGradient x1="50%" y1="0%" x2="50%" y2="100%" id="linearGradient-27">
            <stop stop-color="#E3642F" offset="0%"></stop>
            <stop stop-color="#AC3E0B" offset="100%"></stop>
        </linearGradient>
        <linearGradient x1="50%" y1="-20.9102765%" x2="50%" y2="89.2289058%" id="linearGradient-28">
            <stop stop-color="#FCD492" offset="0%"></stop>
            <stop stop-color="#F39A3D" offset="100%"></stop>
            <stop stop-color="#F39A3D" offset="100%"></stop>
        </linearGradient>
        <linearGradient x1="55.2987799%" y1="56.4624709%" x2="53.8178856%" y2="47.5182849%" id="linearGradient-29">
            <stop stop-color="#FAC3C9" offset="0%"></stop>
            <stop stop-color="#E6969F" offset="100%"></stop>
        </linearGradient>
        <linearGradient x1="46.0404176%" y1="33.2886888%" x2="54.4416142%" y2="37.0140859%" id="linearGradient-30">
            <stop stop-color="#003D87" offset="0%"></stop>
            <stop stop-color="#0050B3" offset="100%"></stop>
        </linearGradient>
        <linearGradient x1="58.2137208%" y1="38.4558138%" x2="50.9923825%" y2="34.5312347%" id="linearGradient-31">
            <stop stop-color="#146CDA" offset="0%"></stop>
            <stop stop-color="#0050B3" offset="100%"></stop>
        </linearGradient>
        <linearGradient x1="68.1950057%" y1="34.0060855%" x2="46.3699885%" y2="100%" id="linearGradient-32">
            <stop stop-color="#53A4FC" offset="0%"></stop>
            <stop stop-color="#1D7DE6" offset="100%"></stop>
        </linearGradient>
        <linearGradient x1="55.901224%" y1="46.6884252%" x2="50%" y2="56.9700353%" id="linearGradient-33">
            <stop stop-color="#F2BE69" offset="0%"></stop>
            <stop stop-color="#DF8F3D" offset="100%"></stop>
        </linearGradient>
        <linearGradient x1="55.901224%" y1="46.7504233%" x2="50%" y2="56.8395447%" id="linearGradient-34">
            <stop stop-color="#F2BE69" offset="0%"></stop>
            <stop stop-color="#DF8F3D" offset="100%"></stop>
        </linearGradient>
        <linearGradient x1="66.063583%" y1="7.50410797%" x2="36.5598071%" y2="79.7198639%" id="linearGradient-35">
            <stop stop-color="#156EC2" offset="0%"></stop>
            <stop stop-color="#0A2A55" offset="100%"></stop>
        </linearGradient>
        <linearGradient x1="50%" y1="100%" x2="50%" y2="0%" id="linearGradient-36">
            <stop stop-color="#FAC3C9" offset="0%"></stop>
            <stop stop-color="#E6969F" offset="100%"></stop>
        </linearGradient>
    </defs>
    <g id="组件" stroke="none" stroke-width="1" fill="none" fill-rule="evenodd">
        <g id="插画组件" transform="translate(-105.000000, -8696.000000)">
            <g id="暂无内容" transform="translate(105.000000, 8696.000000)">
                <rect id="矩形" fill-opacity="0" fill="#EFEFEF" x="0" y="0" width="640" height="640"></rect>
                <circle id="椭圆形" fill="url(#linearGradient-1)" cx="320" cy="320" r="280"></circle>
                <g id="编组" transform="translate(353.500000, 385.000000) rotate(-360.000000) translate(-353.500000, -385.000000) translate(143.000000, 246.000000)">
                    <polygon id="路径" fill="url(#linearGradient-2)" fill-rule="nonzero" points="373 245 199 213.586678 199 -4.54747351e-13 373 31.4133219"></polygon>
                    <polygon id="路径" fill="url(#linearGradient-3)" fill-rule="nonzero" points="47 247 199 213.972845 199 -2.27373675e-13 47 33.0570978"></polygon>
                    <polygon id="路径" fill="url(#linearGradient-4)" fill-rule="nonzero" points="221 278 47 246.582845 47 33 221 64.3872621"></polygon>
                    <path d="M59.6780424,174.024923 C58.6587877,173.859924 57.9570578,173.172918 58.1152741,172.495051 C58.2734904,171.817183 59.2331459,171.399125 60.2524007,171.564124 C65.5639922,172.423973 69.7998528,169.180089 74.6960708,165.423896 C81.6562072,160.087397 90.3073861,153.44823 106.118576,156.007773 C116.423242,157.67591 121.749193,161.136745 126.907015,164.485176 C132.28601,167.97933 137.371394,171.281227 148.218813,173.037226 C177.615396,177.795995 183.2571,167.242935 187.786423,158.764964 C190.305267,154.045929 192.686596,149.593169 199.507958,150.697423 C200.527213,150.862422 201.228943,151.549428 201.070727,152.227295 C200.91251,152.905162 199.952855,153.323221 198.9336,153.158222 C195.530563,152.607333 194.071375,154.650097 191.323469,159.801038 C186.863438,168.146415 180.118119,180.754002 147.644661,175.497142 C135.721928,173.567069 129.984771,169.839982 124.43641,166.23872 C119.460976,163.009582 114.766131,159.960516 105.544424,158.467689 C91.8507358,156.250931 84.2772845,162.062471 77.5933149,167.184452 C72.2027464,171.319529 67.1058617,175.227351 59.6780424,174.024923 Z" id="Path" fill-opacity="0.5" fill="#FFFFFF" fill-rule="nonzero" transform="translate(129.593000, 163.633463) rotate(360.000000) translate(-129.593000, -163.633463) "></path>
                    <path d="M64.63861,186.019625 C63.6419644,185.857545 62.9580712,185.172918 63.115564,184.495051 C63.2730568,183.817183 64.2136959,183.396746 65.2103416,183.558826 C70.3044465,184.387257 74.6705722,180.274619 79.7307436,175.506335 C86.8631475,168.791488 95.7347033,160.434063 111.293587,162.964334 C121.567758,164.635176 126.510695,169.364036 131.291938,173.937446 C136.216977,178.64874 140.867323,183.095524 151.274795,184.788044 C166.042591,187.189663 174.985702,178.96387 182.869531,171.702552 C189.024256,166.040563 194.334168,161.148931 201.547391,162.321985 C202.544036,162.484065 203.22793,163.168693 203.070437,163.84656 C202.912944,164.524427 201.972305,164.944864 200.975659,164.782784 C196.014856,163.976031 191.305657,168.307674 185.858697,173.321745 C177.779656,180.761077 167.72432,190.017848 150.702858,187.249725 C138.846513,185.321582 133.284286,180.002871 128.376939,175.310027 C123.836045,170.965313 119.539268,166.860901 110.7202,165.426696 C97.4361594,163.266372 89.6266793,170.619472 82.7376992,177.104605 C77.2190362,182.304868 72.0075586,187.218004 64.63861,186.019625 Z" id="Path" fill="#FFFFFF" fill-rule="nonzero" transform="translate(133.093000, 174.948934) rotate(360.000000) translate(-133.093000, -174.948934) "></path>
                    <polygon id="路径" fill="url(#linearGradient-5)" fill-rule="nonzero" points="174.770336 116 0 84.6663075 47.229664 33 222 64.3038793"></polygon>
                    <polygon id="矩形" fill="url(#linearGradient-6)" points="220.524731 65.0767655 374 30.7340909 374 242.052816 221 278"></polygon>
                    <polygon id="路径" fill="url(#linearGradient-7)" fill-rule="nonzero" points="421 82.952767 373.904872 31 222 64.047233 269.095128 116"></polygon>
                </g>
                <path d="M226,183.518319 C226,183.517805 226,183.516778 226,183.516264 C226,176.553506 220.383135,170.909553 213.454935,170.909553 C213.347616,170.909553 213.248473,170.938312 213.142177,170.94088 C211.701038,163.733157 205.370757,158.302842 197.774114,158.302842 C194.81569,158.302842 192.080081,159.174856 189.719066,160.605616 C187.118883,155.517328 181.90382,152 175.82076,152 C141.937539,152 143.731431,190.179621 167.694468,189.999364 C170.281318,189.99936 171.726931,189.99936 172.031306,189.999364 C183.870177,189.999502 199.768897,189.939588 219.727467,189.81962 C223.190801,189.819106 226,186.998157 226,183.518319 Z" id="Path" fill-opacity="0.5" fill="#FFFFFF" fill-rule="nonzero"></path>
                <path d="M451.845924,151.99924 C456.900281,151.99924 461,147.822223 461,142.669582 C461,142.668821 461,142.6673 461,142.66654 C461,132.356694 452.802799,123.99962 442.691849,123.99962 C442.535229,123.99962 442.390541,124.042204 442.235413,124.046006 C440.132228,113.373437 430.893876,105.3327 419.807405,105.3327 C415.48991,105.3327 411.497587,106.623902 408.051943,108.742447 C404.257261,101.208153 396.647012,96 387.768887,96 C376.681671,96 367.443318,104.040737 365.340879,114.713306 C365.185005,114.710264 365.041063,114.66692 364.884443,114.66692 C352.245196,114.66692 342,125.113643 342,137.99981 C342,138.001331 342,138.002852 342,138.004372 C342.001492,145.735616 348.147714,152 355.731113,152 L451.845924,152 L451.845924,151.99924 Z" id="Path" fill-opacity="0.9" fill="#FFFFFF" fill-rule="nonzero"></path>
                <g id="编组-3" transform="translate(20.000000, 160.000000)">
                    <g id="plant_11_" transform="translate(83.000000, 272.500000) rotate(-1.000000) translate(-83.000000, -272.500000) translate(2.000000, 178.000000)" fill-rule="nonzero">
                        <path d="M25.2968146,49.30055 C25.1596546,49.30055 25.0260115,49.2445104 24.9369161,49.1387752 C19.9311618,43.1076391 19.4212079,38.0936756 19.8737188,34.9491106 C20.3684326,31.5137738 22.0530389,29.5375828 22.1245497,29.4551094 C22.2769497,29.2806463 22.5571313,29.2489257 22.7529067,29.3853241 C22.9475098,29.5217226 22.982679,29.7765444 22.830279,29.9520648 C22.8138667,29.9710972 21.207805,31.8690441 20.7552942,35.1013693 C20.3367803,38.0873315 20.8467342,42.8633907 25.6543684,48.6545079 C25.8020792,48.8332004 25.7622208,49.0859076 25.5641007,49.2201913 C25.4843838,49.2741162 25.3905992,49.30055 25.2968146,49.30055 Z" id="Path" fill="#D0E7FE"></path>
                        <path d="M98.4950606,187.504586 C64.750933,147.462968 30.4681977,154.743856 30.4950606,142.089394 C30.5033468,138.213802 41.3592361,126.835238 57.1608044,131.689526 C72.9634065,136.542725 94.544927,152.40326 98.4950606,187.504586 Z" id="Path" fill="url(#linearGradient-8)"></path>
                        <path d="M5.69382317,21.2221943 C37.3957532,-32.5982097 160.896253,19.8470826 98.7489073,187.928043 C98.7489073,187.928043 92.8566501,120.20757 57.9612545,94.4280034 C23.0658588,68.6484368 -11.9203314,51.1260166 5.69382317,21.2221943 Z" id="Path" fill="url(#linearGradient-9)"></path>
                        <path d="M100.277218,188.10652 C129.978823,170.826233 159.967591,166.98833 161.181792,141.681273 C162.006865,124.487378 157.53711,112.10652 145.60944,112.10652 C138.950587,112.10652 111.459929,131.56493 100.277218,188.10652 Z" id="Path" fill="url(#linearGradient-10)"></path>
                        <path d="M94.2582839,120.162676 C94.0855752,120.162676 93.9288396,120.036818 93.8879086,119.851734 C93.8679423,119.763951 91.8443552,111.050183 86.0171833,110.970861 C85.8065385,110.967688 85.6378231,110.784719 85.6407788,110.56156 C85.643813,110.339459 85.7975537,110.15649 86.0271664,110.162836 C92.4503332,110.250619 94.5438024,119.281674 94.6306559,119.665592 C94.6785751,119.882405 94.5517889,120.100276 94.3471341,120.151042 C94.3181829,120.158445 94.2882334,120.162676 94.2582839,120.162676 Z" id="Path" fill="#FFFFFF"></path>
                        <path d="M98.5601937,141.006961 C98.5368271,141.006961 98.5134606,141.004767 98.4890319,141.00038 C98.2681116,140.959797 98.1215395,140.742622 98.1597757,140.515577 C98.207571,140.236979 99.3780234,133.670198 103.605247,132.033713 C103.817671,131.952547 104.049212,132.062231 104.127809,132.279405 C104.206405,132.49658 104.100194,132.737885 103.889895,132.819051 C100.098138,134.287719 98.9701707,140.598936 98.9584874,140.662553 C98.9244997,140.863275 98.7534989,141.006961 98.5601937,141.006961 Z" id="Path" fill="#FFFFFF"></path>
                        <path d="M83.1976193,79.7526094 C83.0336092,79.7526094 82.879001,79.644103 82.8215452,79.4713786 C76.8315205,61.5899708 59.2448328,64.8053026 59.0693315,64.8429477 C58.8551782,64.8794855 58.6441588,64.7333341 58.6044621,64.5030348 C58.5637208,64.2727356 58.7068379,64.0524012 58.9241251,64.0103273 C59.1079836,63.9760039 77.3538456,60.6178423 83.5747381,79.1879334 C83.6478636,79.4082678 83.53922,79.6496391 83.3323792,79.7282508 C83.2874593,79.744859 83.2425393,79.7526094 83.1976193,79.7526094 Z" id="Path" fill="#FFFFFF"></path>
                        <path d="M88.0484447,94.1245974 C87.8958065,94.1245974 87.7567161,94.0060882 87.7151696,93.82515 C85.8528033,85.713619 87.476729,79.9966086 89.1674902,76.6296778 C91.0045674,72.9707064 93.2607221,71.25973 93.3555565,71.187778 C93.5163233,71.0682106 93.7294749,71.1232328 93.8315347,71.3115777 C93.9344977,71.4999227 93.8875321,71.7496385 93.7267653,71.8692058 C93.6382532,71.9358672 84.9469093,78.6591477 88.3817198,93.6156427 C88.4313949,93.8314987 88.3221096,94.0526454 88.13786,94.1108418 C88.1080549,94.1193068 88.0782498,94.1245974 88.0484447,94.1245974 Z" id="Path" fill="#FFFFFF"></path>
                        <path d="M99.3803598,188.767114 C99.2289411,188.767114 99.0889307,188.677893 99.0225553,188.5317 C82.9566137,153.422811 43.6748628,142.176701 43.2797222,142.067056 C43.0681508,142.007934 42.9426599,141.78327 42.9986641,141.56398 C43.0546683,141.344691 43.2672768,141.211397 43.4840337,141.272669 C43.8771002,141.382314 82.4349451,152.418809 99.055743,186.730087 C99.3191701,179.823543 99.9507728,151.553476 94.3959873,120.668058 C88.5321416,88.0627238 74.376565,45.7882284 40.2440879,29.551133 C40.0449619,29.4565375 39.9578443,29.2125242 40.0491103,29.0072091 C40.1393393,28.800819 40.3789128,28.7094484 40.5738903,28.8051188 C59.5873115,37.8497345 84.4936175,61.1051681 95.1779717,120.53369 C101.5583,156.019886 99.7941685,188.060873 99.7755005,188.380133 C99.7651293,188.567174 99.6334158,188.723041 99.4550321,188.758514 C99.4311785,188.764964 99.4052506,188.767114 99.3803598,188.767114 Z" id="Path" fill="#FFFFFF"></path>
                        <path d="M98.241603,187.462878 C98.1246445,187.462878 98.008721,187.40887 97.9310937,187.305176 C97.7955046,187.125871 97.8244855,186.866634 97.9963007,186.725134 C136.498421,154.950306 143.995151,125.073304 144.066569,124.775182 C144.119355,124.553751 144.339817,124.420892 144.545788,124.4749 C144.757969,124.529988 144.887348,124.753579 144.833527,124.97501 C144.762109,125.275292 137.220873,155.40721 98.4858704,187.373225 C98.4134182,187.433714 98.3275106,187.462878 98.241603,187.462878 Z" id="Path" fill="#FFFFFF"></path>
                        <path d="M64.0452639,151.325766 C63.9860365,151.325766 63.9259508,151.306851 63.8718736,151.267031 C58.8512821,147.62149 60.7053559,141.633524 60.72424,141.573794 C60.7869008,141.37768 60.9748833,141.276138 61.1456985,141.349805 C61.3156552,141.422477 61.401492,141.641488 61.3396895,141.838599 C61.268445,142.060596 59.6607227,147.311888 64.2203708,150.622939 C64.3740186,150.734435 64.4203705,150.969375 64.3242333,151.146575 C64.2615725,151.262053 64.1551349,151.325766 64.0452639,151.325766 Z" id="Path" fill="#FFFFFF"></path>
                        <path d="M79.0737312,162.992881 C78.9732779,162.992881 78.8717671,162.9538 78.7935192,162.876724 C72.5527223,156.720383 63.9740057,156.82677 63.8904708,156.825685 C63.888356,156.825685 63.8851838,156.825685 63.8820116,156.825685 C63.6620716,156.825685 63.4833704,156.645478 63.478009,156.418591 C63.4738538,156.189533 63.6504402,156.000642 63.8735524,155.995214 C64.2383567,155.980016 72.8604268,155.871457 79.3539432,162.277482 C79.5146686,162.435977 79.5199556,162.698688 79.3655747,162.863697 C79.2862694,162.950543 79.180529,162.992881 79.0737312,162.992881 Z" id="Path" fill="#FFFFFF"></path>
                        <path d="M131.21142,152.282946 C131.129207,152.282946 131.046993,152.257108 130.977814,152.203444 C130.810379,152.075245 130.780301,151.835743 130.909637,151.670775 C137.972969,142.634297 130.974806,132.984653 130.903621,132.888256 C130.778296,132.719313 130.815392,132.480805 130.985835,132.356582 C131.156277,132.232359 131.395899,132.269129 131.522227,132.438072 C131.597422,132.539438 138.929452,142.651191 131.516211,152.135866 C131.439011,152.232263 131.325717,152.282946 131.21142,152.282946 Z" id="Path" fill="#FFFFFF"></path>
                        <path d="M116.5092,171.786083 C116.400189,171.786083 116.291179,171.744937 116.211025,171.663647 C116.057128,171.509098 116.065677,171.266234 116.23133,171.12172 C127.056482,161.630969 134.40506,161.776487 134.708579,161.787526 C134.93408,161.795555 135.109352,161.973186 135.100802,162.184939 C135.093321,162.395689 134.910568,162.558267 134.678654,162.554253 C134.613462,162.553249 127.334352,162.435832 116.788138,171.682715 C116.709052,171.750958 116.608592,171.786083 116.5092,171.786083 Z" id="Path" fill="#FFFFFF"></path>
                    </g>
                    <path d="M177,371.335728 C177,371.335103 177,371.333854 177,371.333229 C177,362.864427 168.802799,355.999688 158.691849,355.999688 C158.535229,355.999688 158.390541,356.034667 158.235413,356.03779 C156.132228,347.271037 146.893876,340.666146 135.807405,340.666146 C131.48991,340.666146 127.497587,341.726776 124.051943,343.46701 C120.257261,337.278126 112.647012,333 103.768887,333 C92.6816706,333 83.4433184,339.604891 81.3408792,348.371644 C81.1850048,348.369146 81.0410634,348.333542 80.8844433,348.333542 C68.2451961,348.333542 58,356.914778 58,367.499844 C58.0014916,373.854256 64.1477143,379 71.7311135,379 L167.845924,379 C172.900281,378.999375 177,375.568255 177,371.335728 Z" id="Path备份-3" fill="url(#linearGradient-11)" fill-rule="nonzero"></path>
                    <g id="plant_25_" transform="translate(461.000000, 170.000000)" fill-rule="nonzero">
                        <g id="Group" transform="translate(0.000000, 51.000000)">
                            <path d="M5.57901994,102.44313 C1.62274644,92.6767693 -4.27794872,78.839147 7.78321368,70.6686272 C19.8443761,62.4981073 8.83335613,57.6592557 8.44203989,45.8164348 C8.05072365,33.9736139 20.3617094,30.9300836 19.9936068,25.3143094 C19.6255043,19.6985352 19.0142108,9.76885714 20.1505755,5.53194564 C22.051886,-1.55834843 36.2840798,-4.77802787 37.7365926,15.1863178 C38.6496638,27.7314021 39.875567,35.3058146 46.2162165,44.2544237 C52.5568661,53.2030328 38.5910769,62.6637575 38.8486382,69.8683735 C39.1061994,77.0729895 45.9885014,76.0055958 45.2357151,91.2722425 C44.4829288,106.538889 34.9741652,118.08424 25.9329915,117.404141 C19.7924217,116.939854 9.19040456,111.357909 5.57901994,102.44313 Z" id="Path" fill="url(#linearGradient-12)"></path>
                            <path d="M36.0718405,50.8267693 C35.7999088,50.6832836 35.4671795,50.7987721 35.3290028,51.084577 C35.2228832,51.3062216 32.7113846,56.4157129 28.6147236,54.7463791 C29.1,51.3633826 29.3188718,48.1950314 29.086735,45.335816 C29.0922621,45.3159847 29.1044217,45.299653 29.1077379,45.2786551 C29.1331624,45.1456683 29.1055271,45.0173477 29.0513618,44.9053589 C29.0016182,44.399076 28.9408205,43.8997923 28.8601254,43.4133408 C27.6165356,35.9684153 28.4522279,26.332708 28.9507692,20.5769477 C29.2425983,17.2184488 29.3741425,15.5736125 29.2061197,14.8771819 C29.1309516,14.5633798 28.8247521,14.3732321 28.5351339,14.4560571 C28.2388832,14.534216 28.0598063,14.8526843 28.1360798,15.1641533 C28.2643077,15.6972669 28.0719658,17.9090467 27.8508832,20.4696251 C27.3468148,26.2848794 26.5033846,36.0174105 27.7723989,43.6163206 C27.8132991,43.8589631 27.8409345,44.1097714 27.8729915,44.3582467 C26.1043305,43.7726383 21.8893903,41.9353213 20.4910427,37.3776084 C20.398188,37.0719721 20.087567,36.9039889 19.7946325,37.0031456 C19.5039088,37.1023024 19.3458348,37.4312697 19.4397949,37.7380725 C21.1454473,43.2966857 26.4116353,45.1713324 28.0012194,45.6192878 C28.4511225,51.7238467 26.7686838,59.407915 24.9900741,67.5014425 C23.5784615,73.9244697 22.1182108,80.5656418 21.6417778,86.8451833 C21.4328547,89.5959094 21.5290256,92.8260878 21.810906,96.272078 C18.7975499,94.7112334 10.5832251,89.8665491 10.3665641,83.3163679 C10.3566154,82.9955666 10.0868946,82.7727554 9.79506553,82.7540906 C9.48997151,82.7657561 9.25120228,83.0352293 9.26225641,83.3583638 C9.51981766,91.1532544 19.4243191,96.42023 21.9236581,97.6264432 C22.739453,106.283415 24.647396,116.113936 26.0590085,123.392045 C27.0638291,128.566863 27.9315783,133.035918 27.7569231,133.910831 C27.6939145,134.226966 27.885151,134.536102 28.1836125,134.602595 C28.222302,134.611928 28.259886,134.615427 28.2985755,134.615427 C28.5539259,134.615427 28.7838519,134.427613 28.8391225,134.152307 C29.0513618,133.089579 28.4035897,129.652921 27.1434188,123.158734 C25.7494929,115.977449 23.8725014,106.296247 23.0500741,97.7710955 C23.1097664,97.715101 23.1716695,97.6579401 23.2048319,97.5739484 C23.3131624,97.3021422 23.2026211,97.0011721 22.9682735,96.8553533 C22.6653903,93.4245282 22.5493219,90.2130146 22.7184501,87.4552892 C24.5921254,87.3293017 30.9084558,86.4473895 32.6207407,80.2903359 C32.706963,79.9812 32.5389402,79.656899 32.2460057,79.5670746 C31.9530712,79.4784167 31.6468718,79.6533993 31.5595442,79.9625352 C30.060604,85.3543317 24.6319202,86.1744167 22.8057778,86.2910718 C23.3231111,80.2868362 24.7137208,73.9268028 26.0678519,67.7662495 C26.9676581,63.6704906 27.8431453,59.6797213 28.4378575,55.9234286 C29.0546781,56.1474063 29.6482849,56.2547289 30.2142564,56.2547289 C33.2265071,56.2547289 35.4494929,53.4293436 36.3172422,51.6141909 C36.453208,51.3225533 36.3437721,50.9714216 36.0718405,50.8267693 Z" id="Path" fill="#FFFFFF"></path>
                        </g>
                        <g id="Group" transform="translate(51.000000, 0.000000)">
                            <path d="M60.3767192,143.371125 C65.9522269,129.7164 74.2694054,110.368912 57.2708249,98.945025 C40.271134,87.519975 55.7906114,80.7553875 56.342499,64.1967375 C56.8943865,47.6380875 39.5415764,43.382175 40.0612613,35.53065 C40.5798357,27.679125 41.4415354,13.7953875 39.8402842,7.8712875 C37.1596875,-2.0425125 17.1007407,-6.5437125 15.054204,21.3702375 C13.7683172,38.9100375 12.0393657,49.5004125 3.1036734,62.0124 C-5.83201886,74.5243875 13.8516,87.752475 13.4873764,97.824375 C13.1231529,107.896275 3.4245899,106.404787 4.48505791,127.750612 C5.54552593,149.096437 18.9473987,165.238912 31.6907818,164.286825 C40.3444229,163.640475 55.2864727,155.836612 60.3767192,143.371125 Z" id="Path" fill="url(#linearGradient-13)"></path>
                            <path d="M54.9637059,116.674313 C54.9744397,116.353463 54.7345852,116.083763 54.4281044,116.072138 C54.1338384,116.098875 53.8651125,116.312775 53.8540081,116.632463 C53.534202,126.198675 41.153932,133.165538 37.2252034,135.139463 C37.6627158,130.230225 37.8215084,125.584875 37.5150276,121.577738 C36.8454337,112.814813 34.788903,103.5369 32.8012195,94.564725 C30.2738633,83.1594375 27.8853118,72.3342375 28.5660101,63.735225 C30.5581354,63.2028 38.1990572,60.6825 40.6286949,52.82865 C40.7230822,52.5229125 40.5631791,52.1950875 40.2722444,52.096275 C39.9801993,51.9963 39.6670559,52.166025 39.5726687,52.4694375 C37.480604,59.2282125 30.9734391,61.7833875 28.6837165,62.4878625 C28.7403488,62.0124 28.799202,61.5392625 28.8769327,61.0789125 C30.6602956,50.4862125 29.4732377,36.89775 28.763668,28.7800125 C28.4360889,25.0274625 28.1773569,22.066575 28.3672418,21.2818875 C28.4427515,20.9703375 28.2628606,20.6541375 27.9663737,20.57625 C27.6732182,20.4937125 27.3667374,20.6843625 27.292338,20.9959125 C27.0646983,21.9294 27.2623562,24.3439125 27.6587825,28.8858 C28.3628,36.946575 29.5420848,50.4373875 27.784262,60.8778 C27.6698869,61.5567 27.5854936,62.256525 27.515536,62.96565 C27.4389158,63.088875 27.4056027,63.242325 27.4355845,63.3981 C27.4422471,63.4341375 27.4600141,63.4632 27.472229,63.49575 C27.1357663,67.54125 27.4577933,72.0378 28.1629212,76.8447375 C28.157369,76.8470625 28.1518168,76.8459 28.1473751,76.848225 C22.1021522,79.4440875 18.4021737,71.9878125 18.2478229,71.67045 C18.1090182,71.3833125 17.773666,71.268225 17.5016088,71.4135375 C17.2273306,71.55885 17.1185077,71.9087625 17.256202,72.1947375 C17.2928465,72.2691375 20.3987407,78.5605875 25.6422276,78.5605875 C26.4861603,78.5605875 27.3889461,78.387375 28.3405912,78.0084 C29.1767508,83.3338125 30.4293246,89.00565 31.7196532,94.829775 C33.6484835,103.535738 35.6317253,112.527675 36.3457367,121.012763 C34.0415785,120.860475 25.7388357,119.82585 23.5457212,111.9999 C23.4602175,111.693 23.1515158,111.5163 22.8561394,111.605813 C22.560763,111.695325 22.3930869,112.0185 22.479701,112.326563 C24.9248848,121.046475 34.1481805,122.069475 36.4334613,122.18805 C36.6977455,126.194025 36.5211859,130.811475 36.0614646,135.698625 C36.0570229,135.70095 36.0425872,135.706763 36.0403663,135.707925 C35.7583152,135.83115 35.6239522,136.1706 35.7416586,136.467038 C35.788297,136.583288 35.867138,136.671638 35.9615253,136.73325 C34.7922343,148.298963 32.1516135,161.170163 30.1883596,170.7294 C28.4294263,179.295863 27.5244195,183.831938 27.8131333,185.271113 C27.8686552,185.545463 28.0985158,185.732625 28.3561374,185.732625 C28.3938923,185.732625 28.4327576,185.729138 28.4716229,185.719838 C28.7714411,185.653575 28.9635468,185.345513 28.9002519,185.031638 C28.6459616,183.768 29.8641118,177.838088 31.2743677,170.973525 C33.2642721,161.288738 35.9470896,148.216425 37.1052761,136.4868 C40.359969,134.946488 54.5991118,127.5867 54.9637059,116.674313 Z" id="Path" fill="#FFFFFF"></path>
                        </g>
                    </g>
                    <g id="编组" transform="translate(433.000000, 325.000000)">
                        <mask id="mask-15" fill="white">
                            <use xlink:href="#path-14"></use>
                        </mask>
                        <g id="Clip-2"></g>
                    </g>
                    <path d="M605.891413,363.086544 C606.828315,360.984296 607.215176,358.632697 606.882402,356.168727 C606.078427,350.21468 600.977724,345.313808 594.406581,344.122014 C591.534456,343.601168 588.793424,343.828372 586.313661,344.566579 C583.145431,337.255872 575.213856,332.07038 565.923682,332.07038 C565.341557,332.07038 564.765848,332.096627 564.194724,332.136818 C559.336038,327.732185 552.587965,325 545.125758,325 C534.426565,325 525.195063,330.612832 520.899251,338.724903 C513.445294,338.915196 507.126253,343.114772 504.534648,349.007302 C504.303631,348.995819 504.075365,348.976133 503.841598,348.976133 C496.748833,348.976133 491,354.119794 491,360.466731 C491,361.658524 491.203515,362.807666 491.581209,363.888729 C492.01574,365.135478 493.284499,366 494.743938,366 L600.968557,366 C603.113712,366 605.097523,364.869724 605.891413,363.086544" id="Fill-1" fill="url(#linearGradient-16)" fill-rule="nonzero"></path>
                    <path d="M413,379 L560.20873,379 C559.985864,368.748549 553.281321,364.557686 540.0951,366.427412 C542.670333,350.027723 520.093846,341.235961 509.236659,350.027723 C499.918574,330.382585 477.144489,341.235961 477.144489,350.027723 C469.05642,339.692126 451.337746,345.390497 450.441475,356.875474 C437.011999,349.402632 427.408548,358.902386 427.408548,366.870975 C417.802849,366.575267 413,370.618275 413,379 Z" id="路径-19" fill="url(#linearGradient-17)" fill-rule="nonzero" transform="translate(486.604365, 359.000000) scale(-1, 1) translate(-486.604365, -359.000000) "></path>
                    <g id="paperplane_4_" transform="translate(430.183601, 62.352466) rotate(-10.000000) translate(-430.183601, -62.352466) translate(313.683601, 20.352466)" fill-rule="nonzero">
                        <path d="M39.7540018,84 C38.0418201,84 36.2860238,83.9626964 34.5352121,83.8880893 C34.1912804,83.8731678 33.9246087,83.5834434 33.9383161,83.2402505 C33.9520236,82.8970576 34.2722788,82.6210111 34.5875495,82.6446367 C36.3221616,82.7180004 38.060512,82.755304 39.7540018,82.755304 L40.7845508,82.7503302 C40.7857969,82.7503302 40.7882892,82.7503302 40.7895353,82.7503302 C41.1309747,82.7503302 41.4101077,83.0251332 41.4126168,83.3670826 C41.4150922,83.7102756 41.1396976,83.9912958 40.7945198,83.9937827 L39.7540018,84 Z M47.0127053,83.7687178 C46.6862194,83.7687178 46.4133171,83.516297 46.3908867,83.186782 C46.3684564,82.8435891 46.6288974,82.5476474 46.9728291,82.5265087 C49.0451422,82.3934593 51.1174554,82.1969938 53.1336926,81.9445729 C53.4788705,81.9047824 53.7866644,82.1435253 53.830279,82.4842313 C53.8738935,82.8249373 53.6308983,83.1358005 53.2894588,83.1793213 C51.2482989,83.4354725 49.1498171,83.6344249 47.0525814,83.7687178 C47.038874,83.7687178 47.0264127,83.7687178 47.0127053,83.7687178 Z M28.3456876,83.4765065 C28.3269957,83.4765065 28.3083037,83.4765065 28.2896118,83.4740196 C26.2434674,83.2899886 24.1524623,83.0562195 22.0726724,82.7776861 C21.731233,82.7316784 21.4919762,82.4183283 21.538083,82.0788658 C21.5841897,81.7394032 21.8969682,81.4981734 22.2384077,81.5454246 C24.3007517,81.8214711 26.374311,82.0539967 28.4017634,82.2355408 C28.744449,82.2666271 28.9974133,82.5687861 28.96626,82.9107356 C28.9363529,83.2327898 28.6646967,83.4765065 28.3456876,83.4765065 Z M59.360601,82.205698 C59.0677606,82.205698 58.8073196,81.9992848 58.7499976,81.7020997 C58.6839528,81.365124 58.9057638,81.0393395 59.2434649,80.9734365 C61.2896093,80.5767751 63.3158156,80.1092369 65.266008,79.5832565 C65.5962323,79.4949714 65.9414101,79.68895 66.0298853,80.0221953 C66.1196066,80.3541971 65.9227182,80.6949031 65.5900016,80.7844317 C63.6111482,81.3178728 61.5550348,81.7928717 59.4802294,82.1945069 C59.4403533,82.2019676 59.4004772,82.205698 59.360601,82.205698 Z M15.9977919,81.8314187 C15.9616541,81.8314187 15.9255164,81.8289318 15.8893786,81.8227146 C13.8718952,81.469574 11.8070589,81.0691823 9.75219156,80.6302436 C9.41573663,80.5581233 9.20140238,80.2286084 9.27367789,79.8928762 C9.34595339,79.557144 9.6774238,79.3395398 10.0126326,79.4153904 C12.0537925,79.8505988 14.1036752,80.2485036 16.104959,80.5979138 C16.4439062,80.6575995 16.6707017,80.9796537 16.6108875,81.3178728 C16.5573039,81.6187883 16.2956168,81.8314187 15.9977919,81.8314187 Z M3.8143852,79.2375767 C3.7632939,79.2375767 3.71344872,79.2313594 3.66235742,79.2189249 C2.6043936,78.955313 1.53770687,78.6792665 0.462297245,78.3907855 C0.129580708,78.3012569 -0.067307729,77.9605509 0.0211674549,77.6297925 C0.110888768,77.2977907 0.45357434,77.1025686 0.783798618,77.1896103 C1.8529776,77.4756044 2.91218755,77.7504074 3.96392072,78.0127759 C4.29788339,78.0960872 4.50100247,78.4330629 4.41626568,78.7663082 C4.34772856,79.0498154 4.09351817,79.2375767 3.8143852,79.2375767 Z M71.3707957,78.9515826 C71.1140931,78.9515826 70.8748362,78.7936641 70.7838688,78.5387564 C70.6679787,78.2154587 70.8362062,77.8598313 71.161446,77.7441902 C73.1191152,77.0466133 75.0431389,76.2669685 76.8811797,75.427638 C77.192712,75.2821541 77.5628124,75.4226642 77.7073634,75.7347708 C77.8506683,76.0468774 77.7135941,76.4149394 77.3995695,76.5591799 C75.5303755,77.4146752 73.5714601,78.2067545 71.5801454,78.9155225 C71.5103622,78.9403915 71.4393328,78.9515826 71.3707957,78.9515826 Z M82.674435,73.7663854 C82.4588547,73.7663854 82.2495049,73.6557181 82.134861,73.4555223 C81.9616491,73.1583371 82.0638317,72.7778406 82.3616566,72.6062442 C84.1623135,71.5667178 85.9006639,70.4401498 87.5281089,69.2576264 C87.8072418,69.0561871 88.1960342,69.1171163 88.3991533,69.3944062 C88.6022724,69.6716961 88.5399659,70.0608968 88.2620791,70.2635796 C86.5997425,71.470972 84.8252543,72.6211656 82.9859674,73.6830741 C82.8875232,73.7402729 82.780356,73.7663854 82.674435,73.7663854 Z M92.7082686,66.4424498 C92.5412872,66.4424498 92.3730598,66.3753034 92.2509391,66.2434974 C92.1275723,66.110448 92.0727426,65.9376081 92.08645,65.7709855 C91.3861253,65.692648 90.7020003,65.5944152 90.0353211,65.4762872 C89.6963739,65.4166015 89.4695784,65.0945473 89.5306387,64.7563282 C89.5892068,64.4181091 89.9144466,64.1905573 90.2521476,64.2527299 C91.1605759,64.4118918 92.1026497,64.5349936 93.0733845,64.6207918 C94.3107909,63.4258339 95.4622144,62.1836248 96.5102092,60.9165467 C96.729528,60.6529347 97.1208126,60.6143877 97.3874843,60.8332353 C97.6529098,61.052083 97.6902937,61.4437706 97.470975,61.7086259 C96.6211147,62.7357178 95.7052097,63.7466447 94.7319826,64.7314591 C95.2628337,64.7550847 95.7999155,64.7675192 96.3432279,64.7700062 C96.6871596,64.7712496 96.9650464,65.0510264 96.9638003,65.3942193 C96.9625542,65.7361688 96.6834212,66.0134587 96.3407356,66.0134587 C96.3394895,66.0134587 96.3394895,66.0134587 96.3382434,66.0134587 C95.3837083,66.0097284 94.4453729,65.9724248 93.5307139,65.9052783 C93.3986242,66.030867 93.2652884,66.1539689 93.1319526,66.2770707 C93.011078,66.3877379 92.8590502,66.4424498 92.7082686,66.4424498 Z M102.555183,65.6317188 C102.24365,65.6317188 101.975733,65.4004366 101.937103,65.0845996 C101.89598,64.7438936 102.138976,64.434274 102.481661,64.3919966 C104.425623,64.156984 106.470521,63.8038435 108.559034,63.3450095 C108.896735,63.2691589 109.228205,63.4817893 109.301727,63.8175215 C109.375249,64.1532537 109.163407,64.4852555 108.828198,64.5586192 C106.699809,65.0261574 104.616281,65.3867586 102.631197,65.626745 C102.606274,65.6304753 102.580105,65.6317188 102.555183,65.6317188 Z M84.1810054,63.7454012 C84.0987609,63.7454012 84.0140241,63.7292364 83.9342718,63.6944197 C81.8831429,62.8115684 80.0575634,61.6775396 78.5048862,60.3246632 C78.2456913,60.0983549 78.2195226,59.7054239 78.4463182,59.4467857 C78.6718676,59.1869042 79.0668906,59.1620351 79.3260855,59.3883435 C80.7803184,60.6566651 82.4974847,61.7210605 84.4289852,62.5529302 C84.7442559,62.6884666 84.890053,63.0552851 84.7542249,63.3698786 C84.6507962,63.6048911 84.4215084,63.7454012 84.1810054,63.7454012 Z M114.718651,63.0005732 C114.449487,63.0005732 114.201508,62.8252463 114.121755,62.5554171 C114.024557,62.2259022 114.212723,61.8802224 114.541701,61.7819896 C116.551708,61.1876193 118.539284,60.5895186 120.503184,59.9876876 C120.832162,59.884481 121.181078,60.0709989 121.282015,60.3992704 C121.382951,60.7275419 121.198524,61.0757086 120.869546,61.1764283 C118.901908,61.7795027 116.909347,62.3800903 114.896848,62.9744607 C114.837034,62.9931124 114.777219,63.0005732 114.718651,63.0005732 Z M126.635386,59.348553 C126.371207,59.348553 126.125719,59.1794434 126.040983,58.914588 C125.937554,58.58756 126.118243,58.2381499 126.445975,58.1336998 C128.455981,57.4958087 130.432342,56.859161 132.372566,56.2237567 C132.701544,56.1180632 133.05046,56.29339 133.158873,56.6204181 C133.266041,56.9462026 133.087844,57.2980997 132.761358,57.4050366 C130.817396,58.0416843 128.837297,58.6795755 126.823552,59.3187101 C126.761245,59.3398488 126.697693,59.348553 126.635386,59.348553 Z M100.568853,56.8529437 C100.461685,56.8529437 100.353272,56.8255877 100.254828,56.7671455 C99.9582491,56.5930621 99.8585588,56.2125656 100.033017,55.9166239 C101.109673,54.0837748 101.97324,52.2273002 102.596305,50.4006684 C102.70721,50.0761272 103.062357,49.899557 103.386351,50.0127112 C103.712837,50.1233784 103.886049,50.476519 103.775143,50.8010601 C103.124664,52.7072729 102.226205,54.6395981 101.10718,56.5458109 C100.99129,56.7435199 100.781941,56.8529437 100.568853,56.8529437 Z M75.0717999,55.6343602 C74.8462505,55.6343602 74.6306701,55.5125018 74.5185184,55.2998714 C73.5141382,53.3799807 72.9047809,51.3083887 72.702908,49.1435378 C72.6717547,48.8015884 72.9234729,48.4994294 73.2661584,48.4670996 C73.6125824,48.4360133 73.9116534,48.6871907 73.9440528,49.0291402 C74.1297261,51.0310988 74.6954688,52.9485027 75.6238352,54.7253964 C75.7820936,55.0300422 75.6649574,55.4055649 75.3596558,55.5634834 C75.2661961,55.611978 75.1677518,55.6343602 75.0717999,55.6343602 Z M138.482338,55.4702245 C138.223143,55.4702245 137.980148,55.3073322 137.891673,55.0474506 C137.782013,54.721666 137.956471,54.3697689 138.281711,54.2591017 C140.296702,53.5801766 142.263094,52.9062253 144.173411,52.2434651 C144.496158,52.1303109 144.853797,52.3019073 144.965949,52.6264484 C145.079347,52.9509896 144.907381,53.3041301 144.582141,53.4172843 C142.669333,54.0812879 140.699202,54.7564827 138.680473,55.4366512 C138.615674,55.4602768 138.548383,55.4702245 138.482338,55.4702245 Z M150.25826,51.3854828 C150.001558,51.3854828 149.762301,51.2275643 149.671333,50.9726565 C149.555443,50.6493589 149.723671,50.2937314 150.048911,50.1780904 C152.085086,49.4531575 154.040263,48.745633 155.905719,48.0617341 C156.230958,47.9423626 156.586105,48.1089853 156.705734,48.4310395 C156.824116,48.7530937 156.658381,49.1112081 156.335633,49.229336 C154.466439,49.913235 152.507524,50.6220029 150.468856,51.3494227 C150.399073,51.3742917 150.328044,51.3854828 150.25826,51.3854828 Z M161.963153,47.1005453 C161.711435,47.1005453 161.473425,46.9463571 161.379965,46.6976666 C161.257844,46.3768559 161.421087,46.0174981 161.743835,45.8968832 C163.848547,45.1048039 165.795001,44.3624627 167.563259,43.6798073 C167.88476,43.555462 168.244891,43.7146239 168.369504,44.0354347 C168.494117,44.3562455 168.334613,44.7156033 168.013111,44.8399485 C166.241115,45.5238474 164.290923,46.2674321 162.182472,47.0607548 C162.110197,47.0881107 162.036675,47.1005453 161.963153,47.1005453 Z M104.396962,45.1483247 C104.386993,45.1483247 104.37827,45.1483247 104.368301,45.1483247 C104.024369,45.1321599 103.758944,44.8424354 103.773897,44.4992425 C103.785112,44.2393609 103.791343,43.9832097 103.791343,43.7283019 C103.791343,41.8743142 103.477318,40.1745145 102.856746,38.6749107 C102.725902,38.3578303 102.876684,37.9934987 103.194447,37.8629362 C103.510964,37.7336171 103.877326,37.8828314 104.00817,38.1999118 C104.692295,39.8512168 105.038719,41.7114219 105.038719,43.7283019 C105.038719,44.000618 105.032488,44.2766645 105.020027,44.5551979 C105.003827,44.8871997 104.727186,45.1483247 104.396962,45.1483247 Z M73.936576,43.5591924 C73.878008,43.5591924 73.8169476,43.5504882 73.7571334,43.5330799 C73.4281553,43.4348471 73.2399897,43.0879239 73.3396801,42.7584089 C73.9677293,40.6619479 74.9795863,38.7532482 76.3440979,37.0832914 C76.5609244,36.8171926 76.9534552,36.7761587 77.221373,36.9950063 C77.4880447,37.2113671 77.5279208,37.6030546 77.3110943,37.8691535 C76.0500114,39.4122781 75.1154144,41.1767373 74.533472,43.1152798 C74.4524736,43.385109 74.20574,43.5591924 73.936576,43.5591924 Z M173.594525,42.6067077 C173.347791,42.6067077 173.113519,42.4587369 173.016321,42.2150202 C172.887969,41.8966963 173.043736,41.5348516 173.363991,41.4080194 C177.067487,39.9332847 179.131077,39.0641114 179.134816,39.0628679 C179.451333,38.928575 179.816449,39.0765459 179.951031,39.3936263 C180.084366,39.7094632 179.936077,40.0750383 179.61956,40.2080877 C179.61956,40.2080877 177.546001,41.0809914 173.825059,42.5631869 C173.749045,42.5930297 173.671785,42.6067077 173.594525,42.6067077 Z M99.5657184,34.3029315 C99.44609,34.3029315 99.3252154,34.2681148 99.2180483,34.197238 C97.6915398,33.1701462 95.8260842,32.5111164 93.6740188,32.2375568 C93.3325794,32.194036 93.0920764,31.8819294 93.1344448,31.5412234 C93.1780593,31.2017608 93.4945762,30.9717221 93.8322772,31.0028084 C96.1799849,31.301237 98.2261293,32.0299002 99.9146346,33.1651724 C100.199998,33.3566641 100.274766,33.7433779 100.082862,34.0281285 C99.9632337,34.2071857 99.7663452,34.3029315 99.5657184,34.3029315 Z M81.6214557,34.1959946 C81.3971525,34.1959946 81.180326,34.0753797 81.0694204,33.8627493 C80.9099159,33.5581034 81.027052,33.1825808 81.3311076,33.0234188 C82.799048,32.2549651 84.4053087,31.7003853 86.1062753,31.3733573 C86.5636047,31.2863156 87.0134574,31.2092215 87.4533411,31.144562 C87.7910422,31.0960674 88.1100513,31.328593 88.1611426,31.6680555 C88.2122339,32.0075181 87.9767154,32.323355 87.6365221,32.3743366 C87.2128381,32.4365092 86.7816774,32.5098729 86.3417937,32.5944277 C84.7604556,32.8978301 83.2700849,33.4126195 81.9105577,34.1238743 C81.8183442,34.1736124 81.7186538,34.1959946 81.6214557,34.1959946 Z" id="Shape" fill="#8CA5D3"></path>
                        <g id="Group" transform="translate(158.000000, 0.000000)">
                            <polygon id="Path" fill="#FDC081" points="0.74741533 15.621571 19.1745098 24.910429 74.4557932 0.139721739"></polygon>
                            <polygon id="Path" fill="#EF902E" points="22.2452763 40.3910203 19.1745098 24.910429 74.4557932 0.139721739"></polygon>
                            <polygon id="Path" fill="#FECCA9" points="22.2452763 40.3910203 28.388057 28.0062957 43.744385 24.910429"></polygon>
                            <polygon id="Path" fill="#FDC081" points="28.388057 28.0062957 43.744385 34.198029 74.4557932 0.139721739"></polygon>
                        </g>
                    </g>
                    <path d="M95,383 L242.20873,383 C241.985864,374.286267 235.281321,370.724033 222.0951,372.3133 C224.670333,358.373565 202.093846,350.900567 191.236659,358.373565 C181.918574,341.675197 159.144489,350.900567 159.144489,358.373565 C151.05642,349.588308 133.337746,354.431923 132.441475,364.194153 C119.011999,357.842237 109.408548,365.917028 109.408548,372.690329 C99.8028492,372.438977 95,375.875534 95,383 Z" id="路径-19" fill="url(#linearGradient-18)" fill-rule="nonzero"></path>
                    <g id="woman_6_" transform="translate(177.000000, 170.000000)">
                        <path d="M18.7984671,206.352392 C26.5304536,206.352392 33.0361643,205.804589 33.0361643,204.700019 C33.0361643,203.59545 27.3697763,202.058189 19.6377898,202.058189 C11.9058033,202.058189 5.63778979,202.953619 5.63778979,204.058189 C5.63778979,205.162758 11.0664806,206.352392 18.7984671,206.352392 Z" id="椭圆形" fill="#08428B" transform="translate(19.336977, 204.205290) rotate(4.000000) translate(-19.336977, -204.205290) "></path>
                        <path d="M54.5159154,205.076389 C62.2479019,205.076389 68.3554898,204.564718 68.3554898,203.460149 C68.3554898,202.35558 63.0872246,200.782185 55.3552381,200.782185 C47.6232516,200.782185 41.3552381,201.677616 41.3552381,202.782185 C41.3552381,203.886755 46.7839289,205.076389 54.5159154,205.076389 Z" id="椭圆形备份-36" fill="#08428B" transform="translate(54.855364, 202.929287) rotate(-10.000000) translate(-54.855364, -202.929287) "></path>
                        <path d="M18.2814684,202.429738 L18.2814684,211.964273 C18.2814684,211.964273 28.3733544,221.78249 25.896443,217.724402 C23.4195316,213.666313 25.896443,203 25.896443,203 L18.2814684,202.429738 Z" id="Path" fill="#FAC3C9" fill-rule="nonzero"></path>
                        <path d="M18.6464425,206.486469 C19.2142454,207.667625 24.8275699,206.16354 25.5489817,205.390798 C25.4052346,204.626372 25.6077246,204.03483 25.2577635,202.445278 C22.9963784,202.49964 19.7776521,202.844925 17.6989575,202.950407 C18.0201143,204.078627 18.4713927,205.812403 18.6464425,206.486469 Z" id="路径-14" fill="url(#linearGradient-19)" transform="translate(21.623970, 204.684318) rotate(15.000000) translate(-21.623970, -204.684318) "></path>
                        <path d="M53,202.609758 L53.7805696,212.878265 C53.7805696,212.878265 65.1567468,221.170763 62.1316076,217.504 C59.1064684,213.837237 59.6499251,200.5 59.6499251,200.5 C59.6499251,200.5 57.4332834,201.203253 53,202.609758 Z" id="Path" fill="#FAC3C9" fill-rule="nonzero"></path>
                        <path d="M54.0032642,207.335866 C54.4835997,208.109201 59.1745369,205.6752 59.8959487,204.902458 C59.6325086,203.919286 59.3478727,202.857011 58.9503183,201.373318 C56.5609368,201.770791 54.3191278,202.614241 52.6403752,203.517627 C52.961532,204.645847 53.8282145,206.661801 54.0032642,207.335866 Z" id="路径-14备份" fill="url(#linearGradient-20)" transform="translate(56.268162, 204.429503) rotate(15.000000) translate(-56.268162, -204.429503) "></path>
                        <path d="M43.2474051,25.865253 C45.9445063,26.2601767 46.5340759,30.6628112 47.555038,31.7909076 C48.5751013,32.919004 50.1883291,34.4438233 50.2898861,35.4513735 C50.391443,36.4589237 47.835443,36.8790361 48.4708481,39.2737671 C49.1062532,41.6693976 48.6110276,45.2882409 46.0963924,46.1152129 C41.7133681,47.4277214 43.7012658,50.7598394 44.1236709,53.9291245 C44.5469747,57.0984096 44.2396076,58.0897671 42.9553165,58.2588916 C42.2363291,58.354249 38.480519,58.3020723 34.0749241,56.1214458 C30.6156962,54.40951 34.7112278,46.8528835 34.673481,42.9504257 C34.6006835,35.4360803 27.4099114,30.6241285 33.0449747,27.9019438 C38.6791392,25.179759 40.9682152,25.531502 43.2474051,25.865253 Z" id="Path" fill="#FAC3C9" fill-rule="nonzero"></path>
                        <path d="M66.0437975,15.3840321 C66.0437975,15.3840321 63.4680253,12.5673896 63.956038,9.33963052 C64.4431519,6.11097189 65.4218734,6.49150201 65.6267848,8.51559839 C65.8586582,10.8050763 69.475475,8.51559839 67.0881266,1.98991165 C66.4474617,0.238689027 69.5218987,0.207807229 69.9883418,4.62303614 C70.2202152,6.82075502 74.0721899,5.63058635 71.9601646,15.0412851 C70.2265063,22.7697349 66.0437975,15.3840321 66.0437975,15.3840321 Z" id="Path" fill="#FAC3C9" fill-rule="nonzero"></path>
                        <path d="M70.9230912,17.49489 C70.193388,17.49489 67.0439194,16.6891906 67.1030335,16.7663883 C67.301778,23.6921622 65.0452832,33.9364968 62.6784819,41.1987844 C60.3116806,48.461072 52.0136582,51.7089157 46.9780506,52.969253 C41.9415443,54.2295904 40.9978734,51.0791968 36.0791013,51.0791968 C36.0791013,51.0791968 25.416519,52.8118233 21.4818608,54.0721606 C17.5472025,55.332498 2.28040506,75.0247068 2.12312658,83.2164498 C1.98651899,90.3133815 16.377179,106.350236 19.6593562,110.08087 C18.9264959,112 51.1082141,111.656067 51.7382268,110.08087 C52.3673407,108.505674 50.4597468,101.85253 49.4181139,86.9974618 C49.2078101,84.0035984 49.3192532,81.3929639 49.6697595,79.0684016 C51.216481,78.1957912 52.8512785,76.8913735 53.856962,74.9788273 C55.1709114,72.4788434 55.1142911,69.8286265 54.5220253,67.560739 C59.3886709,61.1421044 66.3349873,57.2711325 69.3178861,48.8382972 C71.8753115,38.5304434 71.6527943,17.49489 70.9230912,17.49489 Z M23.6846582,90.1478554 C23.3871772,94.7286104 22.0130127,98.8595663 20.5184177,102.304129 C18.1826076,97.6388112 13.9774304,88.8974137 12.8126709,84.2204016 C15.1421899,81.0430201 21.9402152,69.5101687 21.9402152,69.5101687 C21.9402152,69.5101687 24.4710506,78.0176707 23.6846582,90.1478554 Z" id="Shape" fill="#FAC3C9" fill-rule="nonzero"></path>
                        <path d="M20.6275752,105.950727 C14.8343347,119.411418 5.68711602,203 5.68711602,203 C5.68711602,203 13.1411482,201.960441 19.8145891,202.609758 C26.7756612,203.287061 32.9682832,205.654421 32.9682832,205.654421 C32.9682832,205.654421 33.8223797,166.664096 33.8223797,158.394088 C33.8223797,150.308498 38.5407314,105.462596 38.5407314,105.462596 C38.5407314,105.462596 24.7141195,96.4545667 20.6275752,105.950727 Z" id="Path" fill="url(#linearGradient-21)" fill-rule="nonzero"></path>
                        <path d="M30.8903243,104.383184 C30.8903243,104.383184 29.1426709,111.989205 30.1267848,125.388723 C31.0776456,138.328546 41.5,205.144418 41.5,205.144418 C59.3283838,202.423919 68.2425757,201.06367 68.2425757,201.06367 C68.2425757,201.06367 51.93546,103.145832 51.93546,103.145832 C51.93546,103.145832 35.0424762,101.537754 30.8903243,104.383184 Z" id="Path" fill="url(#linearGradient-22)" fill-rule="nonzero"></path>
                        <path d="M67.364038,221.947116 C67.350557,223.229944 67.0755443,223.196659 66.1156962,223.292916 C65.7040759,223.334297 62.4111139,223.323502 60.0438481,223.310008 C58.658,223.301912 57.4447089,222.372627 57.0762278,221.035823 C56.6861772,219.616257 56.1145823,218.029365 55.489962,217.908819 C54.2416203,217.668627 54.2416203,223.336096 54.2416203,223.336096 L53.0885443,223.336096 C53.0885443,223.336096 51.9318734,218.462072 51.93546,213.966779 C51.9381646,210.295518 53.5684684,209.543454 54.6253797,209.543454 C58.1313418,209.543454 57.2433924,213.816546 61.9500633,216.439775 C66.6567342,219.063004 67.3829114,220.120032 67.364038,221.947116 Z" id="Path" fill="url(#linearGradient-23)" fill-rule="nonzero"></path>
                        <path d="M31.6959747,222.284466 C31.6824937,223.567293 31.407481,223.534008 30.4476329,223.630265 C30.0360127,223.671647 26.7430506,223.660851 24.3757848,223.647357 C22.9899367,223.639261 21.7766456,222.709976 21.4081646,221.373173 C21.0181139,219.953606 20.446519,218.366715 19.8218987,218.246169 C18.573557,218.005976 18.573557,223.673446 18.573557,223.673446 L17.420481,223.673446 C17.420481,223.673446 16.2638101,218.799422 16.2673967,214.304129 C16.2701013,210.632867 17.9004051,209.880803 18.9573165,209.880803 C22.4632785,209.880803 21.5753291,214.153896 26.282,216.777124 C30.9886709,219.400353 31.7157468,220.457382 31.6959747,222.284466 Z" id="Path" fill="url(#linearGradient-24)" fill-rule="nonzero"></path>
                        <path d="M21.4081646,221.373173 C22.6112766,222.177183 26.0406751,222.480948 31.6963601,222.284466 C31.7295665,222.624362 31.6774869,223.020651 31.5401213,223.473331 C27.8820026,223.924219 25.3625883,223.990924 23.9818784,223.673446 C22.6011685,223.355968 21.7432639,222.58921 21.4081646,221.373173 Z" id="路径-18" fill="#012E67"></path>
                        <path d="M57.0762278,221.035823 C58.2793178,221.839834 61.7087053,222.143598 67.3643902,221.947116 C67.4141999,222.456961 67.3380052,222.824056 67.1319568,223.100158 C66.9259084,223.376261 61.2292545,223.563078 59.4784007,223.236801 C58.3111648,223.019283 57.5104405,222.285624 57.0762278,221.035823 Z" id="路径-18备份" fill="#012E67"></path>
                        <path d="M57.8216512,105 L51.9729899,79.4582294 C57.4244151,76.9152993 58.78568,73.0155613 56.0567849,67.7590155 C65.7806344,58.8180255 74.1799611,46.8199996 72.5906308,39.1999657 C71.2899731,35.6469639 64.7445804,32.2932029 62.8176571,33.261988 C55.6334197,42.9006494 51.268726,52.3128026 45.5446641,51.4453047 C36.0623961,51.4453047 30.9136882,51.2660004 18.2814684,53.2748393 C3.90960983,67.5997524 1,74.2742434 1,83.1244967 C1,89.0246655 3.91169991,95.0220717 9.73509974,101.116715 C11.3637664,99.6393918 13.9961047,97.5217745 17.6321146,94.7638634 C12.7437276,83.9453876 17.6321146,76.5307082 20.6275752,74.8226323 C22.3099555,84.9837285 20.0773836,95.3597602 13.9298594,105.950727 L57.8216512,105 Z" id="路径-21" fill="url(#linearGradient-25)"></path>
                        <path d="M20.6275752,74.8226323 C14.741348,79.1887583 13.7428611,85.8358353 17.6321146,94.7638634 C17.6321146,97.5304997 12.6522746,103.059562 9.73509974,101.116715 C4.95875045,97.3663812 -12.267786,78.6272453 15.1613319,56.7 C16.1072783,57.1631269 17.9293594,63.2040043 20.6275752,74.8226323 Z" id="路径-20" fill="url(#linearGradient-26)"></path>
                        <path d="M41.9343544,33.1996787 C41.9343544,33.1996787 40.4676203,29.6417671 44.9523038,28.5784418 C49.4378861,27.5151165 49.0546686,18.5673208 34.6888279,18.5673208 C20.3229873,18.5673208 25.7490179,22.5740144 19.4007617,26.7089 C12.8126709,31 17.5880909,35.6207633 11,41.962623 C8.33052852,44.5323225 2,49.903012 6.84998546,58.2852293 C9.77389856,63.3386208 14.2674152,54.0255731 18.3244196,58.2852293 C21.5382859,61.6596318 25.4717565,57.3841186 28.4055052,57.5372881 C31.5443611,57.7011662 32.8125834,59.7689852 34.6888279,59.7689852 C44.9523038,59.7689852 46.0440421,52.9146017 40.5915816,47.9878389 C35.9617723,43.8044115 41.7555063,45.1715341 42.8178101,42.454747 C43.8801139,39.7379598 44.6494304,35.6807711 41.9343544,33.1996787 Z" id="Path" fill="url(#linearGradient-27)" fill-rule="nonzero"></path>
                        <path d="M17.8655684,97.4087229 L55.8075235,96.3059379 C58.0078525,101.881411 58.6792284,104.779431 57.8216512,105 C45.8932168,106.546215 15.4229218,106.691916 13.9298594,105.950727 C12.8652011,105.661751 14.1771041,102.814416 17.8655684,97.4087229 Z" id="路径-22" fill="url(#linearGradient-28)"></path>
                    </g>
                    <g id="man_3_" transform="translate(88.000000, 178.000000)">
                        <path d="M43.7183542,72.8967 C43.7183542,72.8967 53.6549375,102.4779 60.629,99.0507 C65.2945,96.7575 58.81225,72.5304 58.81225,72.5304 L43.7183542,72.8967 Z" id="Path" fill="#FAC3C9" fill-rule="nonzero"></path>
                        <path d="M50.9494387,78.6983393 C51.7937271,80.1946221 59.4430784,79.5243512 60.084598,77.7755852 C59.9408509,77.01116 59.7684798,76.5895516 59.4185187,75 C58.0087711,77.1031584 52.4777575,77.1031584 50,75.5308245 C50.3211569,76.6590444 50.7743889,78.0242739 50.9494387,78.6983393 Z" id="路径-14" fill="url(#linearGradient-29)"></path>
                        <path d="M28.9633984,119.453374 L47.8544167,201.7488 C47.9968542,202.6641 66.0223798,201.76275 65.9402449,201.20835 C64.7502965,193.14885 61.0852942,146.256508 59.6958567,137.120608 C58.0645442,126.390808 58.0645442,117.272078 52.3980833,103 L28.9633984,106.607008 L28.9633984,119.453374 Z" id="Path" fill="url(#linearGradient-30)" fill-rule="nonzero"></path>
                        <path d="M41.9431982,104.711649 C41.9431982,104.711649 39.3399198,142.948123 37.3377323,153.007423 C35.7422532,161.021923 23.7708333,193.40284 21.2220371,199.543687 C20.9248337,200.259743 4.43058581,195.5811 4.71725248,194.7531 C12.7135286,161.0253 16.505625,141.5574 16.0935417,136.3494 C15.4261458,127.911 17.1547236,102.08087 17.1547236,102.08087 L41.9431982,104.711649 Z" id="Path" fill="url(#linearGradient-31)" fill-rule="nonzero"></path>
                        <path d="M57.7462336,102.583653 C57.7462336,102.583653 22.277367,103.947845 11.9618462,101.250545 C10.5571795,100.883345 11.9618462,84.5983712 11.9618462,84.5983712 L16.3645597,78.126433 C6.03992943,78.173742 0.877614287,78.0707326 0.877614287,77.8174049 C0.877614287,72.8013 1.68897549,62.3852735 4.71330882,55.3256735 C9.56245466,44.0027735 22.7531667,40.2204 31.0082708,39.999 C57.4801458,39.2907 59.7394375,72.5304 59.7394375,72.5304 L49.09425,72.5304 C49.09425,72.5313 56.7921024,96.0462488 57.7462336,102.583653 Z" id="Path" fill="url(#linearGradient-32)" fill-rule="nonzero"></path>
                        <path d="M22.7289792,110.154 C22.5990833,107.0805 18.8303125,104.2374 17.5689792,103.5876 C17.0440208,101.0433 15.011375,89.9841 15.2012917,86.6073 C15.3571667,83.8443 15.1163083,82.0771847 15.972725,78.1009847 L5.78422161,78.1009847 C5.51726328,81.8161847 5.85058333,85.9773 6.20354167,87.987 C6.60935417,90.2955 9.88183333,102.9999 10.45875,105.0699 C9.79941667,107.1147 8.73695833,110.9217 9.15710417,113.1357 C9.75014583,116.265 17.0189375,117.5691 19.0954792,117.7923 C21.1720208,118.0146 22.8776875,113.6559 22.7289792,110.154 Z" id="Path" fill="#FAC3C9" fill-rule="nonzero"></path>
                        <path d="M47.8544167,79.0041 C47.8544167,79.0041 47.6725625,64.0911 46.6907292,61.9158 L43.71925,83.6868 L47.8544167,79.0041 Z" id="Path" fill="#1277D7" fill-rule="nonzero"></path>
                        <path d="M16.5746042,72.5304 C16.5746042,72.5304 17.9909167,67.1115 18.2229375,65.2899 C18.2229375,65.2899 20.1946667,71.508 20.1946667,78.033 C20.1946667,84.558 15.4619792,82.2441 15.4619792,82.2441 L16.5746042,72.5304 Z" id="Path" fill="#1277D7" fill-rule="nonzero"></path>
                        <g id="编组-2" transform="translate(0.295326, 189.614023)">
                            <polygon id="Path" fill="#FAC3C9" fill-rule="nonzero" points="8.56167421 5.13907682 4.19896587 14.3055768 11.9622575 18.0495768 17.5719659 9.44467682"></polygon>
                            <polygon id="Path" fill="#FAC3C9" fill-rule="nonzero" points="61.9479659 12.1347768 62.1979034 19.8711768 52.9824659 21.6279768 52.1027575 12.1347768"></polygon>
                            <path d="M47.9177748,4.77671262 L65.9761496,9.15723416 C65.8175081,12.8440496 65.4536011,14.8121091 64.8844285,15.0614126 C64.0306695,15.4353679 46.3456266,10.7532951 46.3456266,9.65639224 C46.3456266,8.92512364 46.869676,7.29856377 47.9177748,4.77671262 Z" id="路径-13" fill="url(#linearGradient-33)" transform="translate(56.160888, 9.929664) rotate(-21.000000) translate(-56.160888, -9.929664) "></path>
                            <path d="M52.48707,16.7022768 C50.1041534,16.7022768 49.7422367,23.3955768 49.7359409,24.6708768 C49.7261117,26.8587768 52.6330909,27.3249768 53.9714659,27.4536768 C55.3098409,27.5823768 60.33457,27.2889768 63.0856742,28.6209768 C65.8367784,29.9529768 76.28757,28.0350768 76.3529659,24.7752768 C76.4183617,21.5154768 70.9313825,22.3029768 67.9643825,20.6712768 C65.4094659,19.2672768 64.1570909,14.9238768 62.3564659,14.9238768 C60.6122784,14.9238768 58.4309242,19.3986768 56.1994034,19.3986768 C53.9678825,19.3986768 53.58357,16.7022768 52.48707,16.7022768 Z" id="Path" fill="#DC8042" fill-rule="nonzero"></path>
                            <rect id="矩形" fill="#FFFFFF" transform="translate(67.285872, 22.322132) rotate(-62.000000) translate(-67.285872, -22.322132) " x="65.2858722" y="21.8221322" width="4" height="1"></rect>
                            <rect id="矩形备份-11" fill="#FFFFFF" transform="translate(69.724689, 23.263205) rotate(-62.000000) translate(-69.724689, -23.263205) " x="67.7246889" y="22.7632052" width="4" height="1"></rect>
                            <path d="M6.32029921,9.74257682 C4.20165337,8.64637682 0.829736707,14.4297768 0.242965873,15.5610768 C-0.76305496,17.5014768 1.60821587,19.2528768 2.73965337,19.9827768 C3.87109087,20.7126768 8.47119504,22.7637768 10.3103409,25.2135768 C12.1494867,27.6633768 22.3136117,30.7656768 23.8580284,27.8982768 C25.402445,25.0299768 20.1654034,23.2065768 18.2707159,20.3913768 C16.6394034,17.9676768 17.5056742,13.5297768 15.90482,12.7017768 C14.3541325,11.8998768 10.3757367,14.8743768 8.39146587,13.8474768 C6.40719504,12.8196768 7.29407004,10.2465768 6.32029921,9.74257682 Z" id="Path" fill="#DC8042" fill-rule="nonzero"></path>
                            <rect id="矩形" fill="#FFFFFF" transform="translate(16.209045, 20.742023) rotate(-28.000000) translate(-16.209045, -20.742023) " x="14.2090448" y="20.242023" width="4" height="1"></rect>
                            <rect id="矩形备份-11" fill="#FFFFFF" transform="translate(17.704674, 22.885977) rotate(-28.000000) translate(-17.704674, -22.885977) " x="15.7046742" y="22.3859768" width="4" height="1"></rect>
                            <path d="M4.42192668,0.442877333 L23.0329277,5.32255695 L21.349571,10.9392497 C9.01637598,7.92605645 2.84977846,6.05382554 2.84977846,5.32255695 C2.84977846,4.59128835 3.37382787,2.96472848 4.42192668,0.442877333 Z" id="路径-13" fill="url(#linearGradient-34)"></path>
                            <path d="M0.242965873,15.5610768 C0.242965873,15.5610768 17.2139163,28.0171336 22.3344607,28.8275946 C22.0173449,29.448532 14.6387286,29.5112742 10.5217357,25.3817977 C6.40474279,21.2523211 1.84255562,20.0890769 0.697307211,18.257834 C-0.447941196,16.4265912 0.242965873,15.5610768 0.242965873,15.5610768 Z" id="路径-17" fill="#AC561D"></path>
                            <path d="M51.790305,18.9998053 C51.790305,18.9998053 68.7612554,31.455862 73.8817999,32.2663231 C73.5646841,32.8872604 66.1860678,32.9500026 62.0690748,28.8205261 C57.9520819,24.6910496 53.3898947,23.5278053 52.2446463,21.6965625 C51.0993979,19.8653196 51.790305,18.9998053 51.790305,18.9998053 Z" id="路径-17备份" fill="#AC561D" transform="translate(62.732763, 25.788457) rotate(-29.000000) translate(-62.732763, -25.788457) "></path>
                        </g>
                        <path d="M46.7068542,71.0508 C46.7068542,71.0508 46.4049583,74.0532 48.4125208,74.8488 C49.6953542,75.3573 56.570875,75.1692 60.1309167,74.2278 C63.6909583,73.2864 60.6505,64.7922 54.345625,65.3133 C48.0416458,65.8353 46.7068542,68.3688 46.7068542,71.0508 Z" id="Path" fill="#FAC3C9" fill-rule="nonzero"></path>
                        <g id="Group" transform="translate(23.770833, 14.700000)" fill-rule="nonzero">
                            <path d="M19.1914375,2.394 C20.6462708,5.2479 19.559625,6.6807 19.8534583,7.8624 C20.1472917,9.045 21.5456875,11.484 21.4722292,12.5919 C21.3987708,13.6998 19.7065417,13.743 19.1547083,15.1632 C18.602875,16.5834 19.3034167,18.5247 17.8494792,19.9557 C16.3955417,21.3867 11.572375,20.7216 11.6673333,22.1994 C11.7613958,23.6772 14.1156458,29.2941 14.1156458,29.2941 C14.1156458,29.2941 13.9454375,33.1101 7.15233333,33.1101 C0.359229167,33.1101 0.359229167,28.629 0.359229167,28.629 C0.359229167,28.629 2.198375,20.7954 1.6098125,17.4699 C1.02125,14.1444 0.343104167,2.0241 4.69147917,0.8415 C9.03985417,-0.3402 17.6470208,-0.6354 19.1914375,2.394 Z" id="Path" fill="#FAC3C9"></path>
                            <path d="M11.6646458,22.203 C11.6825625,22.4955 11.7882708,22.9482 11.9468333,23.4801 C10.1193333,22.0788 10.164125,19.5075 10.164125,19.5075 C13.4742292,21.3876 16.9697708,20.4831 16.9697708,20.4831 C16.9697708,20.4831 16.9697708,20.4831 16.9608125,20.4921 C15.0186458,21.2364 11.593875,20.9529 11.6646458,22.203 Z" id="Path" fill="#E6969F"></path>
                        </g>
                        <path d="M34.829,-2.27373675e-13 C34.829,-2.27373675e-13 45.8611875,7.6845 45.8611875,12.1377 C45.8611875,15.7242 44.7646875,18.9201 37.3642083,18.9201 C33.8014792,18.9201 35.7302083,27.4836 34.829,27.4836 C33.2532292,27.4836 31.3737708,22.8936 29.5525417,22.8936 C26.9483542,22.8936 28.9577083,37.4178 26.2639375,37.4178 C22.6196875,37.4178 18.867026,35.3410334 15.9860417,22.6191 C14.8150844,17.4483535 16.2943336,12.3827343 18.867026,9.73435017 C21.4397185,7.08596605 23.4754755,9.36677743 28.0529167,6.57524201 C32.6303579,3.78370659 34.829,-2.27373675e-13 34.829,-2.27373675e-13 Z" id="Path" fill="url(#linearGradient-35)" fill-rule="nonzero"></path>
                        <path d="M17.5729434,102.132615 C17.5729434,102.132615 51.5737084,117.386076 55.0119399,102.657484 C37.4451387,103.3846 17.5729434,102.132615 17.5729434,102.132615 Z" id="路径-15" fill="#E9F9FD"></path>
                        <polygon id="路径-16" fill="url(#linearGradient-36)" points="5.6874666 81.1742585 15.4619792 81.1742585 15.972725 78.1009847 5.78422161 78.1009847"></polygon>
                    </g>
                </g>
            </g>
        </g>
    </g>
</svg>